SplineFontDB: 1.0
FontName: DejaVuSans-Oblique
FullName: DejaVu Sans Oblique
FamilyName: DejaVu Sans
Weight: Book
Copyright: Copyright (c) 2003 by Bitstream, Inc. All Rights Reserved.\nDejaVu changes are in public domain\n
Version: 1.11
ItalicAngle: -11
UnderlinePosition: -213
UnderlineWidth: 143
Ascent: 1556
Descent: 492
Order2: 1
NeedsXUIDChange: 1
FSType: 4
PfmFamily: 17
TTFWeight: 400
TTFWidth: 5
Panose: 2 11 6 3 3 3 4 11 2 4
LineGap: 410
VLineGap: 0
OS2TypoAscent: 1556
OS2TypoDescent: -492
OS2TypoLinegap: 0
OS2WinAscent: 1901
OS2WinAOffset: 0
OS2WinDescent: 483
OS2WinDOffset: 0
HheadAscent: 1901
HheadAOffset: 0
HheadDescent: -483
HheadDOffset: 0
ScriptLang: 2
 1 latn 1 dflt 
 1 DFLT 1 dflt 
TtfTable: prep 1036
\,q1Gs0;P*YU'CT1'=\F"0E%8XE+jTX>0mYrWB/H"/ub4W$MPDQ34#\"/YhrV#CIk3Wl,U"/.IP
TV#-dTU#\P9gJrT;ZiUH".^,.S<a8H$3Qar".9c(R!f(']*"Au"-cMG"dFE;PPtZIO[fS<I05U%
"-AQ_"d&]cNuJ1]rWA/Z"-!3]MuEg9M&lhXrW@uu",J]7L].C/('B3g"+pLSJc5b%rW@ZL"+L4O
I7kjiI:NG-rW@KZ"+#7)"a^.MH$ETuH+O0(J-:+@,mAO!"*d'6G9m?7rW@;/"*A&UEt/:mE?td/
A-6gj&d<8$")nkTDbWM$Du'QR5l^fcD>jWRrW?pO");O2"_qQMBhK`UBfZ?0:(%5=(^"D_%L$K#
"(i#FARkmR9gJqnQ31Xr"(G[I"_.H5@136G?Ps#TA-61F&-ZDY"'uN@>m^[=>7Ca@rW?@6"'SDb
"^72o=]c.;=XXAS%Kff/"'/F6"]kU)<E*6-<P&?5J-8hM,m@7R"&qMg;^DNDrW?"o/d5,O"&LTP
:JM9$:D<n+$Nj*r,m@"/"&)?6"\emt91fd"9-j[4&HbW("%Yoo"\AUp7hGhmrW>Ug"%<+j6UH2)
6iI0SI02e7"$l\b5PbIGq?&i<63TLN"$=R+3]9;.3`?,@r]kE)3.1lf2F7R*">'d863B+E"#TuZ
1HGUnq?&D["#'WU/cGi'rW=YR/HmXZ""Fia.0C+b.3epC*Wmc:%L"4j"""K[,ln>V,r,QJ$lB-n
I01\t3X$c-"!S-j"X:P\+Ti8Z+WCM+*t&5p%g*ras1gmg"<S!R*XMoi5Qi)=!uqJ*"WWg1)jURE
)'oG)A-3\d&d9.!!uMXQ(D\;#(I8-=,m+n]!u1_:'D_eD&K(`brW<`7&-WX`!tbG6&,lY@"Zces
Q3.R)(^1@s!t5PG"Ul4M$Od+ErW<E03X#eT!sSi="U=r."U$C\"Zc_g!tYV=/HZ(d!s/K1"TfMC
!=Ao05Qh',!s,n4A;-!D.k<,#.k<,#.k<,#.k<,#.k<,#.k<,#.k<,#.k<,#.k<,#.k<,#.k<,#
.k<,#.k<,#.k<,#.k<,#.k<,#.k<,#.k<,#.k<,#.k<,#.k<,#.k<,#.k<,#.k<+M.k<,#.k<,#
.k<,#.k<,#.k<,#.k<,#.k<,#.k<,#.k<,#.k<,#.k<,#.k<,#.k<,#.k<,#.k<,#.k<,#.k<,#

StartChar: .notdef
Encoding: 0 -1 0
Width: 1229
Flags: W
Fore
102 -362 m 1,0,-1
 102 1444 l 1,1,-1
 1126 1444 l 1,2,-1
 1126 -362 l 1,3,-1
 102 -362 l 1,0,-1
217 -248 m 1,4,-1
 1012 -248 l 1,5,-1
 1012 1329 l 1,6,-1
 217 1329 l 1,7,-1
 217 -248 l 1,4,-1
EndSplineSet
EndChar
StartChar: exclam
Encoding: 33 33 4
Width: 821
Flags: W
Fore
453 1493 m 1,0,-1
 655 1493 l 1,1,-1
 528 838 l 1,2,-1
 438 481 l 1,3,-1
 276 481 l 1,4,-1
 326 838 l 1,5,-1
 453 1493 l 1,0,-1
213 254 m 1,6,-1
 416 254 l 1,7,-1
 367 0 l 1,8,-1
 162 0 l 1,9,-1
 213 254 l 1,6,-1
EndSplineSet
EndChar
StartChar: quotedbl
Encoding: 34 34 5
Width: 942
Flags: W
Fore
367 1493 m 1,0,-1
 367 938 l 1,1,-1
 197 938 l 1,2,-1
 197 1493 l 1,3,-1
 367 1493 l 1,0,-1
745 1493 m 1,4,-1
 745 938 l 1,5,-1
 575 938 l 1,6,-1
 575 1493 l 1,7,-1
 745 1493 l 1,4,-1
EndSplineSet
EndChar
StartChar: numbersign
Encoding: 35 35 6
Width: 1716
Flags: W
Fore
897 1470 m 1,0,-1
 793 1055 l 1,1,-1
 1085 1055 l 1,2,-1
 1190 1470 l 1,3,-1
 1350 1470 l 1,4,-1
 1247 1055 l 1,5,-1
 1583 1055 l 1,6,-1
 1544 901 l 1,7,-1
 1208 901 l 1,8,-1
 1126 567 l 1,9,-1
 1466 567 l 1,10,-1
 1430 414 l 1,11,-1
 1087 414 l 1,12,-1
 983 0 l 1,13,-1
 823 0 l 1,14,-1
 926 414 l 1,15,-1
 633 414 l 1,16,-1
 530 0 l 1,17,-1
 369 0 l 1,18,-1
 473 414 l 1,19,-1
 143 414 l 1,20,-1
 180 567 l 1,21,-1
 510 567 l 1,22,-1
 594 901 l 1,23,-1
 258 901 l 1,24,-1
 297 1055 l 1,25,-1
 633 1055 l 1,26,-1
 735 1470 l 1,27,-1
 897 1470 l 1,0,-1
1047 901 m 1,28,-1
 756 901 l 1,29,-1
 672 567 l 1,30,-1
 965 567 l 1,31,-1
 1047 901 l 1,28,-1
EndSplineSet
EndChar
StartChar: dollar
Encoding: 36 36 7
Width: 1303
Flags: W
Fore
600 145 m 1,0,1
 739 151 739 151 820 215.5 c 128,-1,2
 901 280 901 280 901 383 c 0,3,4
 901 467 901 467 850 513 c 128,-1,5
 799 559 799 559 684 578 c 1,6,-1
 600 145 l 1,0,1
700 1180 m 1,7,8
 568 1166 568 1166 493 1102 c 128,-1,9
 418 1038 418 1038 418 938 c 0,10,11
 418 868 418 868 465.5 828.5 c 128,-1,12
 513 789 513 789 621 770 c 1,13,-1
 700 1180 l 1,7,8
1167 1262 m 1,14,-1
 1133 1081 l 1,15,16
 1047 1127 1047 1127 963.5 1152 c 128,-1,17
 880 1177 880 1177 801 1179 c 1,18,-1
 717 752 l 1,19,20
 901 723 901 723 997.5 637 c 128,-1,21
 1094 551 1094 551 1094 416 c 0,22,23
 1094 241 1094 241 951 126.5 c 128,-1,24
 808 12 808 12 571 0 c 1,25,-1
 512 -301 l 1,26,-1
 412 -301 l 1,27,-1
 471 0 l 1,28,29
 355 3 355 3 253 26.5 c 128,-1,30
 151 50 151 50 68 92 c 1,31,-1
 102 276 l 1,32,33
 194 214 194 214 294 180 c 128,-1,34
 394 146 394 146 500 142 c 1,35,-1
 588 598 l 1,36,37
 399 634 399 634 313 708.5 c 128,-1,38
 227 783 227 783 227 909 c 0,39,40
 227 1075 227 1075 364.5 1190 c 128,-1,41
 502 1305 502 1305 727 1323 c 1,42,-1
 774 1556 l 1,43,-1
 874 1556 l 1,44,-1
 830 1323 l 1,45,46
 920 1320 920 1320 1005.5 1304.5 c 128,-1,47
 1091 1289 1091 1289 1167 1262 c 1,14,-1
EndSplineSet
EndChar
StartChar: percent
Encoding: 37 37 8
Width: 1946
Flags: W
Fore
481 707 m 0,0,1
 345 707 345 707 265.5 795.5 c 128,-1,2
 186 884 186 884 186 1036 c 0,3,4
 186 1252 186 1252 302 1386 c 128,-1,5
 418 1520 418 1520 604 1520 c 0,6,7
 740 1520 740 1520 819.5 1430.5 c 128,-1,8
 899 1341 899 1341 899 1188 c 0,9,10
 899 974 899 974 783 840.5 c 128,-1,11
 667 707 667 707 481 707 c 0,0,1
739 1182 m 0,12,13
 739 1287 739 1287 700 1340 c 128,-1,14
 661 1393 661 1393 584 1393 c 0,15,16
 472 1393 472 1393 409 1296 c 128,-1,17
 346 1199 346 1199 346 1026 c 0,18,19
 346 934 346 934 386.5 884 c 128,-1,20
 427 834 427 834 502 834 c 0,21,22
 609 834 609 834 674 929 c 128,-1,23
 739 1024 739 1024 739 1182 c 0,12,13
1599 446 m 0,24,25
 1599 553 1599 553 1561 606 c 128,-1,26
 1523 659 1523 659 1446 659 c 0,27,28
 1335 659 1335 659 1271.5 561.5 c 128,-1,29
 1208 464 1208 464 1208 291 c 0,30,31
 1208 198 1208 198 1248.5 148 c 128,-1,32
 1289 98 1289 98 1364 98 c 0,33,34
 1471 98 1471 98 1535 193 c 128,-1,35
 1599 288 1599 288 1599 446 c 0,24,25
1343 -29 m 0,36,37
 1207 -29 1207 -29 1128 60 c 128,-1,38
 1049 149 1049 149 1049 301 c 0,39,40
 1049 517 1049 517 1164.5 650.5 c 128,-1,41
 1280 784 1280 784 1466 784 c 0,42,43
 1602 784 1602 784 1680.5 696 c 128,-1,44
 1759 608 1759 608 1759 455 c 0,45,46
 1759 240 1759 240 1643.5 105.5 c 128,-1,47
 1528 -29 1528 -29 1343 -29 c 0,36,37
1683 1520 m 1,48,-1
 449 -29 l 1,49,-1
 289 -29 l 1,50,-1
 1524 1520 l 1,51,-1
 1683 1520 l 1,48,-1
EndSplineSet
EndChar
StartChar: ampersand
Encoding: 38 38 9
Width: 1597
Flags: W
Fore
967 260 m 1,0,-1
 541 803 l 1,1,2
 420 715 420 715 357.5 616 c 128,-1,3
 295 517 295 517 295 414 c 0,4,5
 295 287 295 287 380.5 210 c 128,-1,6
 466 133 466 133 608 133 c 0,7,8
 702 133 702 133 793.5 165.5 c 128,-1,9
 885 198 885 198 967 260 c 1,0,-1
1507 801 m 1,10,11
 1462 642 1462 642 1388.5 510 c 128,-1,12
 1315 378 1315 378 1212 270 c 1,13,-1
 1421 0 l 1,14,-1
 1169 0 l 1,15,-1
 1063 139 l 1,16,17
 957 56 957 56 835 13.5 c 128,-1,18
 713 -29 713 -29 580 -29 c 0,19,20
 359 -29 359 -29 227.5 80 c 128,-1,21
 96 189 96 189 96 369 c 0,22,23
 96 523 96 523 188.5 660 c 128,-1,24
 281 797 281 797 463 913 c 1,25,26
 432 959 432 959 417.5 1006.5 c 128,-1,27
 403 1054 403 1054 403 1108 c 0,28,29
 403 1176 403 1176 426 1237 c 128,-1,30
 449 1298 449 1298 492 1348 c 0,31,32
 561 1430 561 1430 665 1475 c 128,-1,33
 769 1520 769 1520 889 1520 c 0,34,35
 967 1520 967 1520 1046 1502 c 128,-1,36
 1125 1484 1125 1484 1206 1448 c 1,37,-1
 1171 1266 l 1,38,39
 1096 1313 1096 1313 1021.5 1337.5 c 128,-1,40
 947 1362 947 1362 877 1362 c 0,41,42
 753 1362 753 1362 675.5 1297.5 c 128,-1,43
 598 1233 598 1233 598 1133 c 0,44,45
 598 1089 598 1089 617 1046 c 128,-1,46
 636 1003 636 1003 705 915 c 2,47,-1
 1112 395 l 1,48,49
 1187 474 1187 474 1240 576.5 c 128,-1,50
 1293 679 1293 679 1321 801 c 1,51,-1
 1507 801 l 1,10,11
EndSplineSet
EndChar
StartChar: quotesingle
Encoding: 39 39 10
Width: 563
Flags: W
Fore
367 1493 m 1,0,-1
 367 938 l 1,1,-1
 197 938 l 1,2,-1
 197 1493 l 1,3,-1
 367 1493 l 1,0,-1
EndSplineSet
EndChar
StartChar: parenleft
Encoding: 40 40 11
Width: 799
Flags: W
Fore
874 1554 m 1,0,1
 609 1223 609 1223 478.5 925.5 c 128,-1,2
 348 628 348 628 348 352 c 0,3,4
 348 194 348 194 386 38.5 c 128,-1,5
 424 -117 424 -117 500 -270 c 1,6,-1
 340 -270 l 1,7,8
 248 -98 248 -98 203 64.5 c 128,-1,9
 158 227 158 227 158 383 c 0,10,11
 158 680 158 680 295.5 971.5 c 128,-1,12
 433 1263 433 1263 711 1554 c 1,13,-1
 874 1554 l 1,0,1
EndSplineSet
EndChar
StartChar: parenright
Encoding: 41 41 12
Width: 799
Flags: W
Fore
-127 -270 m 1,0,1
 139 61 139 61 269 358.5 c 128,-1,2
 399 656 399 656 399 932 c 0,3,4
 399 1090 399 1090 361.5 1245.5 c 128,-1,5
 324 1401 324 1401 248 1554 c 1,6,-1
 408 1554 l 1,7,8
 500 1381 500 1381 545 1220 c 128,-1,9
 590 1059 590 1059 590 903 c 0,10,11
 590 605 590 605 451.5 311.5 c 128,-1,12
 313 18 313 18 37 -270 c 1,13,-1
 -127 -270 l 1,0,1
EndSplineSet
EndChar
StartChar: asterisk
Encoding: 42 42 13
Width: 1024
Flags: W
Fore
963 1247 m 1,0,-1
 604 1053 l 1,1,-1
 963 858 l 1,2,-1
 905 760 l 1,3,-1
 569 963 l 1,4,-1
 569 586 l 1,5,-1
 455 586 l 1,6,-1
 455 963 l 1,7,-1
 119 760 l 1,8,-1
 61 858 l 1,9,-1
 420 1053 l 1,10,-1
 61 1247 l 1,11,-1
 119 1346 l 1,12,-1
 455 1143 l 1,13,-1
 455 1520 l 1,14,-1
 569 1520 l 1,15,-1
 569 1143 l 1,16,-1
 905 1346 l 1,17,-1
 963 1247 l 1,0,-1
EndSplineSet
EndChar
StartChar: plus
Encoding: 43 43 14
Width: 1716
Flags: W
Fore
942 1284 m 1,0,-1
 942 727 l 1,1,-1
 1499 727 l 1,2,-1
 1499 557 l 1,3,-1
 942 557 l 1,4,-1
 942 0 l 1,5,-1
 774 0 l 1,6,-1
 774 557 l 1,7,-1
 217 557 l 1,8,-1
 217 727 l 1,9,-1
 774 727 l 1,10,-1
 774 1284 l 1,11,-1
 942 1284 l 1,0,-1
EndSplineSet
EndChar
StartChar: comma
Encoding: 44 44 15
Width: 651
Flags: W
Fore
184 254 m 1,0,-1
 395 254 l 1,1,-1
 362 82 l 1,2,-1
 135 -238 l 1,3,-1
 6 -238 l 1,4,-1
 150 82 l 1,5,-1
 184 254 l 1,0,-1
EndSplineSet
EndChar
StartChar: hyphen
Encoding: 45 45 16
Width: 739
Flags: W
Fore
125 643 m 1,0,-1
 664 643 l 1,1,-1
 633 479 l 1,2,-1
 92 479 l 1,3,-1
 125 643 l 1,0,-1
EndSplineSet
KernsSLIF: 356 -149 0 0 221 -149 0 0 376 -149 0 0 89 -149 0 0 88 -73 0 0 87 -36 0 0 86 -83 0 0 84 -149 0 0
EndChar
StartChar: period
Encoding: 46 46 17
Width: 651
Flags: W
Fore
168 254 m 1,0,-1
 379 254 l 1,1,-1
 330 0 l 1,2,-1
 119 0 l 1,3,-1
 168 254 l 1,0,-1
EndSplineSet
EndChar
StartChar: slash
Encoding: 47 47 18
Width: 690
Flags: W
Fore
696 1493 m 1,0,-1
 874 1493 l 1,1,-1
 27 -190 l 1,2,-1
 -150 -190 l 1,3,-1
 696 1493 l 1,0,-1
EndSplineSet
EndChar
StartChar: zero
Encoding: 48 48 19
Width: 1303
Flags: W
Fore
782 1520 m 0,0,1
 985 1520 985 1520 1092.5 1385 c 128,-1,2
 1200 1250 1200 1250 1200 997 c 0,3,4
 1200 805 1200 805 1149.5 615.5 c 128,-1,5
 1099 426 1099 426 1008 276 c 1,6,7
 915 126 915 126 789.5 48.5 c 128,-1,8
 664 -29 664 -29 512 -29 c 0,9,10
 316 -29 316 -29 209 107 c 128,-1,11
 102 243 102 243 102 494 c 0,12,13
 102 684 102 684 153.5 874.5 c 128,-1,14
 205 1065 205 1065 297 1214 c 0,15,16
 389 1364 389 1364 512.5 1442 c 128,-1,17
 636 1520 636 1520 782 1520 c 0,0,1
770 1360 m 0,18,19
 694 1360 694 1360 625.5 1319.5 c 128,-1,20
 557 1279 557 1279 502 1200 c 0,21,22
 410 1068 410 1068 355.5 870.5 c 128,-1,23
 301 673 301 673 301 465 c 0,24,25
 301 300 301 300 359.5 215.5 c 128,-1,26
 418 131 418 131 532 131 c 0,27,28
 612 131 612 131 680 171.5 c 128,-1,29
 748 212 748 212 803 291 c 0,30,31
 894 422 894 422 947.5 619.5 c 128,-1,32
 1001 817 1001 817 1001 1026 c 0,33,34
 1001 1191 1001 1191 942.5 1275.5 c 128,-1,35
 884 1360 884 1360 770 1360 c 0,18,19
EndSplineSet
EndChar
StartChar: one
Encoding: 49 49 20
Width: 1303
Flags: W
Fore
133 170 m 1,0,-1
 463 170 l 1,1,-1
 686 1319 l 1,2,-1
 313 1247 l 1,3,-1
 348 1421 l 1,4,-1
 719 1493 l 1,5,-1
 922 1493 l 1,6,-1
 664 170 l 1,7,-1
 993 170 l 1,8,-1
 961 0 l 1,9,-1
 100 0 l 1,10,-1
 133 170 l 1,0,-1
EndSplineSet
EndChar
StartChar: two
Encoding: 50 50 21
Width: 1303
Flags: W
Fore
944 721 m 2,0,-1
 299 168 l 1,1,-1
 1012 168 l 1,2,-1
 977 0 l 1,3,-1
 8 0 l 1,4,-1
 41 170 l 1,5,-1
 715 748 l 1,6,7
 850 865 850 865 906.5 953.5 c 128,-1,8
 963 1042 963 1042 963 1135 c 0,9,10
 963 1232 963 1232 895 1293 c 128,-1,11
 827 1354 827 1354 717 1354 c 0,12,13
 622 1354 622 1354 506 1320 c 128,-1,14
 390 1286 390 1286 258 1221 c 1,15,-1
 295 1421 l 1,16,17
 419 1470 419 1470 532 1495 c 128,-1,18
 645 1520 645 1520 741 1520 c 0,19,20
 937 1520 937 1520 1056.5 1416 c 128,-1,21
 1176 1312 1176 1312 1176 1143 c 0,22,23
 1176 1029 1176 1029 1119 925.5 c 128,-1,24
 1062 822 1062 822 944 721 c 2,0,-1
EndSplineSet
EndChar
StartChar: three
Encoding: 51 51 22
Width: 1303
Flags: W
Fore
324 1456 m 1,0,1
 434 1488 434 1488 537.5 1504 c 128,-1,2
 641 1520 641 1520 741 1520 c 0,3,4
 939 1520 939 1520 1055 1432 c 128,-1,5
 1171 1344 1171 1344 1171 1196 c 0,6,7
 1171 1051 1171 1051 1079.5 947 c 128,-1,8
 988 843 988 843 827 805 c 1,9,10
 953 769 953 769 1012 693 c 128,-1,11
 1071 617 1071 617 1071 492 c 0,12,13
 1071 372 1071 372 1013.5 267 c 128,-1,14
 956 162 956 162 848 86 c 0,15,16
 766 28 766 28 652 -0.5 c 128,-1,17
 538 -29 538 -29 389 -29 c 0,18,19
 295 -29 295 -29 199 -10.5 c 128,-1,20
 103 8 103 8 4 45 c 1,21,-1
 41 236 l 1,22,23
 135 184 135 184 230.5 158.5 c 128,-1,24
 326 133 326 133 426 133 c 0,25,26
 623 133 623 133 745.5 234.5 c 128,-1,27
 868 336 868 336 868 498 c 0,28,29
 868 602 868 602 790 658.5 c 128,-1,30
 712 715 712 715 567 715 c 2,31,-1
 393 715 l 1,32,-1
 424 879 l 1,33,-1
 608 879 l 2,34,35
 774 879 774 879 869.5 955 c 128,-1,36
 965 1031 965 1031 965 1161 c 0,37,38
 965 1255 965 1255 895 1306.5 c 128,-1,39
 825 1358 825 1358 698 1358 c 0,40,41
 602 1358 602 1358 501.5 1337.5 c 128,-1,42
 401 1317 401 1317 293 1276 c 1,43,-1
 324 1456 l 1,0,1
EndSplineSet
EndChar
StartChar: four
Encoding: 52 52 23
Width: 1303
Flags: W
Fore
881 1493 m 1,0,-1
 1135 1493 l 1,1,-1
 944 520 l 1,2,-1
 1157 520 l 1,3,-1
 1124 352 l 1,4,-1
 911 352 l 1,5,-1
 844 0 l 1,6,-1
 643 0 l 1,7,-1
 711 352 l 1,8,-1
 37 352 l 1,9,-1
 76 547 l 1,10,-1
 881 1493 l 1,0,-1
899 1317 m 1,11,-1
 233 520 l 1,12,-1
 743 520 l 1,13,-1
 899 1317 l 1,11,-1
EndSplineSet
EndChar
StartChar: five
Encoding: 53 53 24
Width: 1303
Flags: W
Fore
1190 1493 m 1,0,-1
 1159 1325 l 1,1,-1
 541 1325 l 1,2,-1
 469 956 l 1,3,4
 515 971 515 971 562.5 978 c 128,-1,5
 610 985 610 985 659 985 c 0,6,7
 866 985 866 985 986 874 c 128,-1,8
 1106 763 1106 763 1106 573 c 0,9,10
 1106 440 1106 440 1044.5 318 c 128,-1,11
 983 196 983 196 870 104 c 0,12,13
 790 40 790 40 674.5 5.5 c 128,-1,14
 559 -29 559 -29 422 -29 c 0,15,16
 332 -29 332 -29 238 -13 c 128,-1,17
 144 3 144 3 41 35 c 1,18,-1
 78 223 l 1,19,20
 170 178 170 178 262.5 155.5 c 128,-1,21
 355 133 355 133 449 133 c 0,22,23
 644 133 644 133 771.5 250 c 128,-1,24
 899 367 899 367 899 543 c 0,25,26
 899 673 899 673 815.5 745 c 128,-1,27
 732 817 732 817 582 817 c 0,28,29
 503 817 503 817 417.5 798.5 c 128,-1,30
 332 780 332 780 242 743 c 1,31,-1
 387 1493 l 1,32,-1
 1190 1493 l 1,0,-1
EndSplineSet
EndChar
StartChar: six
Encoding: 54 54 25
Width: 1303
Flags: W
Fore
940 553 m 0,0,1
 940 680 940 680 875 753.5 c 128,-1,2
 810 827 810 827 698 827 c 0,3,4
 543 827 543 827 437.5 707.5 c 128,-1,5
 332 588 332 588 332 412 c 0,6,7
 332 280 332 280 396.5 205.5 c 128,-1,8
 461 131 461 131 575 131 c 0,9,10
 731 131 731 131 835.5 253.5 c 128,-1,11
 940 376 940 376 940 553 c 0,0,1
1212 1458 m 1,12,-1
 1178 1274 l 1,13,14
 1120 1312 1120 1312 1045 1332 c 128,-1,15
 970 1352 970 1352 885 1352 c 0,16,17
 678 1352 678 1352 552.5 1222 c 128,-1,18
 427 1092 427 1092 365 815 c 1,19,20
 438 900 438 900 534.5 943.5 c 128,-1,21
 631 987 631 987 743 987 c 0,22,23
 926 987 926 987 1034.5 881.5 c 128,-1,24
 1143 776 1143 776 1143 598 c 0,25,26
 1143 452 1143 452 1089.5 326.5 c 128,-1,27
 1036 201 1036 201 934 106 c 0,28,29
 864 41 864 41 771 6 c 128,-1,30
 678 -29 678 -29 573 -29 c 0,31,32
 367 -29 367 -29 248 102 c 128,-1,33
 129 233 129 233 129 461 c 0,34,35
 129 673 129 673 183.5 869.5 c 128,-1,36
 238 1066 238 1066 336 1210 c 0,37,38
 439 1362 439 1362 585.5 1441 c 128,-1,39
 732 1520 732 1520 909 1520 c 0,40,41
 987 1520 987 1520 1063 1504.5 c 128,-1,42
 1139 1489 1139 1489 1212 1458 c 1,12,-1
EndSplineSet
EndChar
StartChar: seven
Encoding: 55 55 26
Width: 1303
Flags: W
Fore
262 1493 m 1,0,-1
 1284 1493 l 1,1,-1
 1266 1407 l 1,2,-1
 412 0 l 1,3,-1
 190 0 l 1,4,-1
 997 1323 l 1,5,-1
 229 1323 l 1,6,-1
 262 1493 l 1,0,-1
EndSplineSet
EndChar
StartChar: eight
Encoding: 56 56 27
Width: 1303
Flags: W
Fore
911 453 m 0,0,1
 911 566 911 566 832 637.5 c 128,-1,2
 753 709 753 709 625 709 c 0,3,4
 469 709 469 709 367.5 615.5 c 128,-1,5
 266 522 266 522 266 379 c 0,6,7
 266 265 266 265 343.5 198 c 128,-1,8
 421 131 421 131 553 131 c 0,9,10
 710 131 710 131 810.5 222 c 128,-1,11
 911 313 911 313 911 453 c 0,0,1
1014 1149 m 0,12,13
 1014 1244 1014 1244 944 1302 c 128,-1,14
 874 1360 874 1360 758 1360 c 0,15,16
 621 1360 621 1360 532.5 1283 c 128,-1,17
 444 1206 444 1206 444 1090 c 0,18,19
 444 990 444 990 513.5 929 c 128,-1,20
 583 868 583 868 698 868 c 0,21,22
 836 868 836 868 925 947.5 c 128,-1,23
 1014 1027 1014 1027 1014 1149 c 0,12,13
877 786 m 1,24,25
 990 743 990 743 1050 656 c 128,-1,26
 1110 569 1110 569 1110 446 c 0,27,28
 1110 239 1110 239 950 105 c 128,-1,29
 790 -29 790 -29 537 -29 c 0,30,31
 322 -29 322 -29 195 76.5 c 128,-1,32
 68 182 68 182 68 358 c 0,33,34
 68 518 68 518 177 642.5 c 128,-1,35
 286 767 286 767 461 801 c 1,36,37
 356 837 356 837 301 912.5 c 128,-1,38
 246 988 246 988 246 1096 c 0,39,40
 246 1277 246 1277 396.5 1398.5 c 128,-1,41
 547 1520 547 1520 778 1520 c 0,42,43
 971 1520 971 1520 1092.5 1421.5 c 128,-1,44
 1214 1323 1214 1323 1214 1171 c 0,45,46
 1214 1039 1214 1039 1123.5 935.5 c 128,-1,47
 1033 832 1033 832 877 786 c 1,24,25
EndSplineSet
EndChar
StartChar: nine
Encoding: 57 57 28
Width: 1303
Flags: W
Fore
90 33 m 1,0,-1
 127 217 l 1,1,2
 185 179 185 179 259 159 c 128,-1,3
 333 139 333 139 418 139 c 0,4,5
 625 139 625 139 751.5 270 c 128,-1,6
 878 401 878 401 940 678 c 1,7,8
 866 593 866 593 768.5 548.5 c 128,-1,9
 671 504 671 504 559 504 c 0,10,11
 377 504 377 504 269.5 609.5 c 128,-1,12
 162 715 162 715 162 893 c 0,13,14
 162 1039 162 1039 215 1164.5 c 128,-1,15
 268 1290 268 1290 371 1384 c 1,16,17
 441 1450 441 1450 533 1485 c 128,-1,18
 625 1520 625 1520 729 1520 c 0,19,20
 936 1520 936 1520 1056 1388.5 c 128,-1,21
 1176 1257 1176 1257 1176 1030 c 0,22,23
 1176 819 1176 819 1120.5 622 c 128,-1,24
 1065 425 1065 425 967 281 c 0,25,26
 863 129 863 129 717 50 c 128,-1,27
 571 -29 571 -29 393 -29 c 0,28,29
 316 -29 316 -29 239.5 -13.5 c 128,-1,30
 163 2 163 2 90 33 c 1,0,-1
362 940 m 0,31,32
 362 813 362 813 428 738.5 c 128,-1,33
 494 664 494 664 606 664 c 0,34,35
 761 664 761 664 866 783 c 128,-1,36
 971 902 971 902 971 1079 c 0,37,38
 971 1211 971 1211 906 1285.5 c 128,-1,39
 841 1360 841 1360 727 1360 c 0,40,41
 572 1360 572 1360 467 1238.5 c 128,-1,42
 362 1117 362 1117 362 940 c 0,31,32
EndSplineSet
EndChar
StartChar: colon
Encoding: 58 58 29
Width: 690
Flags: W
Fore
313 1059 m 1,0,-1
 524 1059 l 1,1,-1
 475 805 l 1,2,-1
 264 805 l 1,3,-1
 313 1059 l 1,0,-1
156 254 m 1,4,-1
 367 254 l 1,5,-1
 317 0 l 1,6,-1
 106 0 l 1,7,-1
 156 254 l 1,4,-1
EndSplineSet
EndChar
StartChar: semicolon
Encoding: 59 59 30
Width: 690
Flags: W
Fore
180 254 m 1,0,-1
 391 254 l 1,1,-1
 356 82 l 1,2,-1
 131 -238 l 1,3,-1
 2 -238 l 1,4,-1
 145 82 l 1,5,-1
 180 254 l 1,0,-1
336 1059 m 1,6,-1
 547 1059 l 1,7,-1
 498 805 l 1,8,-1
 287 805 l 1,9,-1
 336 1059 l 1,6,-1
EndSplineSet
EndChar
StartChar: less
Encoding: 60 60 31
Width: 1716
Flags: W
Fore
1499 1008 m 1,0,-1
 467 641 l 1,1,-1
 1499 276 l 1,2,-1
 1499 94 l 1,3,-1
 217 559 l 1,4,-1
 217 725 l 1,5,-1
 1499 1190 l 1,6,-1
 1499 1008 l 1,0,-1
EndSplineSet
EndChar
StartChar: equal
Encoding: 61 61 32
Width: 1716
Flags: W
Fore
217 930 m 1,0,-1
 1499 930 l 1,1,-1
 1499 762 l 1,2,-1
 217 762 l 1,3,-1
 217 930 l 1,0,-1
217 522 m 1,4,-1
 1499 522 l 1,5,-1
 1499 352 l 1,6,-1
 217 352 l 1,7,-1
 217 522 l 1,4,-1
EndSplineSet
EndChar
StartChar: greater
Encoding: 62 62 33
Width: 1716
Flags: W
Fore
217 1008 m 1,0,-1
 217 1190 l 1,1,-1
 1499 725 l 1,2,-1
 1499 559 l 1,3,-1
 217 94 l 1,4,-1
 217 276 l 1,5,-1
 1247 641 l 1,6,-1
 217 1008 l 1,0,-1
EndSplineSet
EndChar
StartChar: question
Encoding: 63 63 34
Width: 1087
Flags: W
Fore
510 254 m 1,0,-1
 461 0 l 1,1,-1
 258 0 l 1,2,-1
 307 254 l 1,3,-1
 510 254 l 1,0,-1
289 1407 m 1,4,5
 391 1464 391 1464 492.5 1492 c 128,-1,6
 594 1520 594 1520 700 1520 c 0,7,8
 861 1520 861 1520 954 1445 c 128,-1,9
 1047 1370 1047 1370 1047 1241 c 0,10,11
 1047 1138 1047 1138 993.5 1048 c 128,-1,12
 940 958 940 958 819 860 c 2,13,-1
 715 776 l 1,14,15
 631 710 631 710 603 663 c 128,-1,16
 575 616 575 616 557 524 c 1,17,-1
 532 401 l 1,18,-1
 342 401 l 1,19,-1
 373 555 l 1,20,21
 391 649 391 649 430 714.5 c 128,-1,22
 469 780 469 780 580 872 c 2,23,-1
 686 961 l 2,24,25
 770 1031 770 1031 804 1084 c 128,-1,26
 838 1137 838 1137 838 1194 c 0,27,28
 838 1270 838 1270 783.5 1313 c 128,-1,29
 729 1356 729 1356 633 1356 c 0,30,31
 553 1356 553 1356 454.5 1320.5 c 128,-1,32
 356 1285 356 1285 252 1219 c 1,33,-1
 289 1407 l 1,4,5
EndSplineSet
EndChar
StartChar: at
Encoding: 64 64 35
Width: 2048
Flags: W
Fore
1253 238 m 1,0,1
 1184 164 1184 164 1103.5 126 c 128,-1,2
 1023 88 1023 88 936 88 c 0,3,4
 789 88 789 88 692.5 187 c 128,-1,5
 596 286 596 286 596 438 c 0,6,7
 596 658 596 658 744.5 822.5 c 128,-1,8
 893 987 893 987 1092 987 c 0,9,10
 1184 987 1184 987 1256.5 947 c 128,-1,11
 1329 907 1329 907 1368 836 c 1,12,-1
 1395 967 l 1,13,-1
 1538 967 l 1,14,-1
 1395 229 l 1,15,16
 1572 257 1572 257 1686 409 c 128,-1,17
 1800 561 1800 561 1800 770 c 0,18,19
 1800 1003 1800 1003 1635 1150.5 c 128,-1,20
 1470 1298 1470 1298 1208 1298 c 0,21,22
 1030 1298 1030 1298 864 1235.5 c 128,-1,23
 698 1173 698 1173 571 1059 c 1,24,25
 426 925 426 925 345 749 c 128,-1,26
 264 573 264 573 264 389 c 0,27,28
 264 128 264 128 438.5 -42.5 c 128,-1,29
 613 -213 613 -213 883 -213 c 0,30,31
 1012 -213 1012 -213 1137 -169.5 c 128,-1,32
 1262 -126 1262 -126 1399 -33 c 1,33,-1
 1481 -147 l 1,34,35
 1346 -249 1346 -249 1189.5 -301.5 c 128,-1,36
 1033 -354 1033 -354 868 -354 c 0,37,38
 546 -354 546 -354 332.5 -140 c 128,-1,39
 119 74 119 74 119 401 c 0,40,41
 119 626 119 626 223.5 836.5 c 128,-1,42
 328 1047 328 1047 516 1200 c 0,43,44
 655 1314 655 1314 835 1377 c 128,-1,45
 1015 1440 1015 1440 1204 1440 c 0,46,47
 1525 1440 1525 1440 1735.5 1251 c 128,-1,48
 1946 1062 1946 1062 1946 778 c 0,49,50
 1946 483 1946 483 1742.5 286.5 c 128,-1,51
 1539 90 1539 90 1223 84 c 1,52,-1
 1253 238 l 1,0,1
1094 846 m 0,53,54
 953 846 953 846 854.5 734.5 c 128,-1,55
 756 623 756 623 756 467 c 0,56,57
 756 355 756 355 813 292 c 128,-1,58
 870 229 870 229 971 229 c 0,59,60
 1113 229 1113 229 1209 343 c 128,-1,61
 1305 457 1305 457 1305 623 c 0,62,63
 1305 725 1305 725 1247.5 785.5 c 128,-1,64
 1190 846 1190 846 1094 846 c 0,53,54
EndSplineSet
EndChar
StartChar: A
Encoding: 65 65 36
Width: 1401
Flags: W
Fore
754 1493 m 1,0,-1
 983 1493 l 1,1,-1
 1260 0 l 1,2,-1
 1049 0 l 1,3,-1
 987 383 l 1,4,-1
 315 383 l 1,5,-1
 104 0 l 1,6,-1
 -109 0 l 1,7,-1
 754 1493 l 1,0,-1
827 1294 m 1,8,-1
 408 551 l 1,9,-1
 956 551 l 1,10,-1
 827 1294 l 1,8,-1
EndSplineSet
KernsSLIF: 354 -149 0 0 538 -149 0 0 7812 -36 0 0 7810 -36 0 0 7808 -36 0 0 372 -36 0 0 356 -149 0 0 8217 -272 0 0 8221 -272 0 0 87 -36 0 0 86 -102 0 0 84 -149 0 0 59 38 0 0 58 38 0 0 46 38 0 0 44 38 0 0
EndChar
StartChar: B
Encoding: 66 66 37
Width: 1405
Flags: W
Fore
346 1493 m 1,0,-1
 862 1493 l 2,1,2
 1072 1493 1072 1493 1176 1415 c 128,-1,3
 1280 1337 1280 1337 1280 1180 c 0,4,5
 1280 1036 1280 1036 1190.5 931.5 c 128,-1,6
 1101 827 1101 827 956 805 c 1,7,8
 1080 777 1080 777 1142 698 c 128,-1,9
 1204 619 1204 619 1204 487 c 0,10,11
 1204 262 1204 262 1037.5 131 c 128,-1,12
 871 0 871 0 582 0 c 2,13,-1
 55 0 l 1,14,-1
 346 1493 l 1,0,-1
395 713 m 1,15,-1
 289 166 l 1,16,-1
 614 166 l 2,17,18
 797 166 797 166 896 250 c 128,-1,19
 995 334 995 334 995 487 c 0,20,21
 995 605 995 605 929.5 659 c 128,-1,22
 864 713 864 713 719 713 c 2,23,-1
 395 713 l 1,15,-1
514 1327 m 1,24,-1
 426 877 l 1,25,-1
 727 877 l 2,26,27
 888 877 888 877 978.5 947 c 128,-1,28
 1069 1017 1069 1017 1069 1141 c 0,29,30
 1069 1238 1069 1238 1008 1282.5 c 128,-1,31
 947 1327 947 1327 813 1327 c 2,32,-1
 514 1327 l 1,24,-1
EndSplineSet
KernsSLIF: 7922 -36 0 0 562 -36 0 0 374 -36 0 0 221 -36 0 0 376 -36 0 0 89 -36 0 0 45 -36 0 0
EndChar
StartChar: C
Encoding: 67 67 38
Width: 1430
Flags: W
Fore
1423 1378 m 1,0,-1
 1382 1165 l 1,1,2
 1286 1262 1286 1262 1178.5 1309 c 128,-1,3
 1071 1356 1071 1356 946 1356 c 0,4,5
 775 1356 775 1356 645.5 1274 c 128,-1,6
 516 1192 516 1192 422 1024 c 0,7,8
 362 916 362 916 330.5 795.5 c 128,-1,9
 299 675 299 675 299 553 c 0,10,11
 299 349 299 349 404.5 242 c 128,-1,12
 510 135 510 135 711 135 c 0,13,14
 850 135 850 135 978 179.5 c 128,-1,15
 1106 224 1106 224 1227 313 c 1,16,-1
 1180 74 l 1,17,18
 1061 23 1061 23 939.5 -3 c 128,-1,19
 818 -29 818 -29 696 -29 c 0,20,21
 409 -29 409 -29 247.5 127 c 128,-1,22
 86 283 86 283 86 561 c 0,23,24
 86 739 86 739 147.5 911 c 128,-1,25
 209 1083 209 1083 324 1225 c 0,26,27
 446 1376 446 1376 602.5 1448 c 128,-1,28
 759 1520 759 1520 967 1520 c 0,29,30
 1095 1520 1095 1520 1209.5 1484.5 c 128,-1,31
 1324 1449 1324 1449 1423 1378 c 1,0,-1
EndSplineSet
KernsSLIF: 536 38 0 0 348 38 0 0 346 38 0 0 350 38 0 0 352 38 0 0 8217 -45 0 0 8221 -45 0 0 83 38 0 0
EndChar
StartChar: D
Encoding: 68 68 39
Width: 1577
Flags: W
Fore
346 1493 m 1,0,-1
 780 1493 l 2,1,2
 1126 1493 1126 1493 1302.5 1346.5 c 128,-1,3
 1479 1200 1479 1200 1479 911 c 0,4,5
 1479 720 1479 720 1412 543.5 c 128,-1,6
 1345 367 1345 367 1227 246 c 0,7,8
 1108 122 1108 122 925 61 c 128,-1,9
 742 0 742 0 492 0 c 2,10,-1
 55 0 l 1,11,-1
 346 1493 l 1,0,-1
516 1327 m 1,12,-1
 291 166 l 1,13,-1
 555 166 l 2,14,15
 894 166 894 166 1080 361 c 128,-1,16
 1266 556 1266 556 1266 911 c 0,17,18
 1266 1126 1266 1126 1146 1226.5 c 128,-1,19
 1026 1327 1026 1327 770 1327 c 2,20,-1
 516 1327 l 1,12,-1
EndSplineSet
EndChar
StartChar: E
Encoding: 69 69 40
Width: 1294
Flags: W
Fore
346 1493 m 1,0,-1
 1290 1493 l 1,1,-1
 1257 1323 l 1,2,-1
 514 1323 l 1,3,-1
 428 881 l 1,4,-1
 1141 881 l 1,5,-1
 1108 711 l 1,6,-1
 395 711 l 1,7,-1
 291 170 l 1,8,-1
 1051 170 l 1,9,-1
 1018 0 l 1,10,-1
 55 0 l 1,11,-1
 346 1493 l 1,0,-1
EndSplineSet
EndChar
StartChar: F
Encoding: 70 70 41
Width: 1178
Flags: W
Fore
346 1493 m 1,0,-1
 1202 1493 l 1,1,-1
 1169 1323 l 1,2,-1
 514 1323 l 1,3,-1
 428 883 l 1,4,-1
 1020 883 l 1,5,-1
 987 713 l 1,6,-1
 395 713 l 1,7,-1
 256 0 l 1,8,-1
 55 0 l 1,9,-1
 346 1493 l 1,0,-1
EndSplineSet
KernsSLIF: 367 -83 0 0 193 -120 0 0 194 -120 0 0 195 -120 0 0 192 -120 0 0 252 -83 0 0 251 -83 0 0 249 -83 0 0 250 -83 0 0 196 -120 0 0 117 -83 0 0 65 -120 0 0 59 -73 0 0 58 -73 0 0 46 -264 0 0 45 -112 0 0 44 -264 0 0
EndChar
StartChar: G
Encoding: 71 71 42
Width: 1587
Flags: W
Fore
1118 223 m 1,0,-1
 1196 614 l 1,1,-1
 864 614 l 1,2,-1
 895 780 l 1,3,-1
 1425 780 l 1,4,-1
 1296 123 l 1,5,6
 1163 50 1163 50 1006 10.5 c 128,-1,7
 849 -29 849 -29 690 -29 c 0,8,9
 409 -29 409 -29 250.5 127 c 128,-1,10
 92 283 92 283 92 561 c 0,11,12
 92 792 92 792 188.5 1000.5 c 128,-1,13
 285 1209 285 1209 455 1348 c 0,14,15
 562 1435 562 1435 689 1477.5 c 128,-1,16
 816 1520 816 1520 971 1520 c 0,17,18
 1111 1520 1111 1520 1239.5 1484.5 c 128,-1,19
 1368 1449 1368 1449 1485 1378 c 1,20,-1
 1444 1163 l 1,21,22
 1354 1257 1354 1257 1233 1306.5 c 128,-1,23
 1112 1356 1112 1356 975 1356 c 0,24,25
 816 1356 816 1356 695 1295.5 c 128,-1,26
 574 1235 574 1235 479 1108 c 0,27,28
 398 1000 398 1000 351.5 853.5 c 128,-1,29
 305 707 305 707 305 555 c 0,30,31
 305 346 305 346 412 240.5 c 128,-1,32
 519 135 519 135 731 135 c 0,33,34
 837 135 837 135 936 157.5 c 128,-1,35
 1035 180 1035 180 1118 223 c 1,0,-1
EndSplineSet
EndChar
StartChar: H
Encoding: 72 72 43
Width: 1540
Flags: W
Fore
346 1493 m 1,0,-1
 549 1493 l 1,1,-1
 430 881 l 1,2,-1
 1163 881 l 1,3,-1
 1282 1493 l 1,4,-1
 1485 1493 l 1,5,-1
 1194 0 l 1,6,-1
 991 0 l 1,7,-1
 1130 711 l 1,8,-1
 397 711 l 1,9,-1
 258 0 l 1,10,-1
 55 0 l 1,11,-1
 346 1493 l 1,0,-1
EndSplineSet
EndChar
StartChar: I
Encoding: 73 73 44
Width: 604
Flags: W
Fore
346 1493 m 1,0,-1
 549 1493 l 1,1,-1
 258 0 l 1,2,-1
 55 0 l 1,3,-1
 346 1493 l 1,0,-1
EndSplineSet
EndChar
StartChar: J
Encoding: 74 74 45
Width: 604
Flags: W
Fore
342 1493 m 1,0,-1
 545 1493 l 1,1,-1
 274 104 l 2,2,3
 221 -167 221 -167 95.5 -288.5 c 128,-1,4
 -30 -410 -30 -410 -256 -410 c 2,5,-1
 -336 -410 l 1,6,-1
 -303 -240 l 1,7,-1
 -240 -240 l 2,8,9
 -105 -240 -105 -240 -35 -163 c 128,-1,10
 35 -86 35 -86 72 104 c 2,11,-1
 342 1493 l 1,0,-1
EndSplineSet
EndChar
StartChar: K
Encoding: 75 75 46
Width: 1343
Flags: W
Fore
346 1493 m 1,0,-1
 549 1493 l 1,1,-1
 426 864 l 1,2,-1
 1210 1493 l 1,3,-1
 1479 1493 l 1,4,-1
 592 780 l 1,5,-1
 1241 0 l 1,6,-1
 995 0 l 1,7,-1
 399 727 l 1,8,-1
 258 0 l 1,9,-1
 55 0 l 1,10,-1
 346 1493 l 1,0,-1
EndSplineSet
KernsSLIF: 367 -55 0 0 366 -36 0 0 283 -73 0 0 268 -55 0 0 262 -55 0 0 253 -55 0 0 217 -36 0 0 219 -36 0 0 218 -36 0 0 210 -55 0 0 212 -55 0 0 211 -55 0 0 255 -55 0 0 339 -92 0 0 338 -55 0 0 213 -55 0 0 248 -92 0 0 230 -36 0 0 216 -55 0 0 252 -55 0 0 251 -55 0 0 249 -55 0 0 250 -55 0 0 245 -73 0 0 246 -73 0 0 244 -73 0 0 242 -73 0 0 243 -73 0 0 235 -73 0 0 234 -73 0 0 232 -73 0 0 233 -73 0 0 229 -73 0 0 227 -73 0 0 228 -73 0 0 226 -73 0 0 224 -73 0 0 225 -73 0 0 220 -36 0 0 214 -55 0 0 199 -55 0 0 121 -55 0 0 117 -55 0 0 111 -73 0 0 101 -73 0 0 97 -73 0 0 85 -36 0 0 79 -55 0 0 67 -55 0 0 45 -206 0 0
EndChar
StartChar: L
Encoding: 76 76 47
Width: 1141
Flags: W
Fore
344 1493 m 1,0,-1
 547 1493 l 1,1,-1
 291 168 l 1,2,-1
 1018 168 l 1,3,-1
 985 0 l 1,4,-1
 55 0 l 1,5,-1
 344 1493 l 1,0,-1
EndSplineSet
KernsSLIF: 356 -139 0 0 253 -73 0 0 221 -196 0 0 210 -63 0 0 212 -63 0 0 211 -63 0 0 376 -196 0 0 255 -73 0 0 8217 -368 0 0 8216 -188 0 0 8221 -368 0 0 8220 -188 0 0 338 -63 0 0 213 -63 0 0 216 -63 0 0 214 -63 0 0 121 -73 0 0 89 -196 0 0 87 -83 0 0 86 -149 0 0 84 -139 0 0 79 -63 0 0 45 -159 0 0
EndChar
StartChar: M
Encoding: 77 77 48
Width: 1767
Flags: W
Fore
346 1493 m 1,0,-1
 649 1493 l 1,1,-1
 823 487 l 1,2,-1
 1401 1493 l 1,3,-1
 1712 1493 l 1,4,-1
 1421 0 l 1,5,-1
 1225 0 l 1,6,-1
 1479 1309 l 1,7,-1
 893 287 l 1,8,-1
 696 287 l 1,9,-1
 506 1313 l 1,10,-1
 252 0 l 1,11,-1
 55 0 l 1,12,-1
 346 1493 l 1,0,-1
EndSplineSet
EndChar
StartChar: N
Encoding: 78 78 49
Width: 1532
Flags: W
Fore
346 1493 m 1,0,-1
 618 1493 l 1,1,-1
 1030 213 l 1,2,-1
 1280 1493 l 1,3,-1
 1477 1493 l 1,4,-1
 1186 0 l 1,5,-1
 913 0 l 1,6,-1
 502 1288 l 1,7,-1
 252 0 l 1,8,-1
 55 0 l 1,9,-1
 346 1493 l 1,0,-1
EndSplineSet
EndChar
StartChar: O
Encoding: 79 79 50
Width: 1612
Flags: W
Fore
934 1356 m 0,0,1
 768 1356 768 1356 641 1275.5 c 128,-1,2
 514 1195 514 1195 420 1030 c 0,3,4
 360 925 360 925 328.5 807 c 128,-1,5
 297 689 297 689 297 569 c 0,6,7
 297 361 297 361 396.5 248 c 128,-1,8
 496 135 496 135 678 135 c 0,9,10
 842 135 842 135 970.5 216.5 c 128,-1,11
 1099 298 1099 298 1190 459 c 0,12,13
 1251 567 1251 567 1283 685.5 c 128,-1,14
 1315 804 1315 804 1315 922 c 0,15,16
 1315 1129 1315 1129 1215 1242.5 c 128,-1,17
 1115 1356 1115 1356 934 1356 c 0,0,1
672 -29 m 0,18,19
 397 -29 397 -29 239.5 134 c 128,-1,20
 82 297 82 297 82 580 c 0,21,22
 82 742 82 742 143.5 911 c 128,-1,23
 205 1080 205 1080 313 1212 c 0,24,25
 440 1367 440 1367 596 1443.5 c 128,-1,26
 752 1520 752 1520 940 1520 c 0,27,28
 1214 1520 1214 1520 1372 1358.5 c 128,-1,29
 1530 1197 1530 1197 1530 918 c 0,30,31
 1530 746 1530 746 1470 580 c 128,-1,32
 1410 414 1410 414 1298 279 c 0,33,34
 1170 123 1170 123 1015.5 47 c 128,-1,35
 861 -29 861 -29 672 -29 c 0,18,19
EndSplineSet
KernsSLIF: 88 -55 0 0 59 38 0 0 58 38 0 0 46 -83 0 0 44 -83 0 0
EndChar
StartChar: P
Encoding: 80 80 51
Width: 1235
Flags: W
Fore
346 1493 m 1,0,-1
 813 1493 l 2,1,2
 1017 1493 1017 1493 1124 1398 c 128,-1,3
 1231 1303 1231 1303 1231 1120 c 0,4,5
 1231 874 1231 874 1073 737 c 128,-1,6
 915 600 915 600 629 600 c 2,7,-1
 375 600 l 1,8,-1
 258 0 l 1,9,-1
 55 0 l 1,10,-1
 346 1493 l 1,0,-1
516 1327 m 1,11,-1
 408 766 l 1,12,-1
 662 766 l 2,13,14
 834 766 834 766 926 854 c 128,-1,15
 1018 942 1018 942 1018 1106 c 0,16,17
 1018 1211 1018 1211 955.5 1269 c 128,-1,18
 893 1327 893 1327 780 1327 c 2,19,-1
 516 1327 l 1,11,-1
EndSplineSet
KernsSLIF: 193 -102 0 0 194 -102 0 0 195 -102 0 0 192 -102 0 0 196 -102 0 0 65 -102 0 0 59 -36 0 0 58 -36 0 0 46 -282 0 0 45 -112 0 0 44 -282 0 0
EndChar
StartChar: Q
Encoding: 81 81 52
Width: 1612
Flags: W
Fore
739 -27 m 1,0,1
 728 -28 728 -28 716 -28.5 c 128,-1,2
 704 -29 704 -29 680 -29 c 0,3,4
 400 -29 400 -29 242 131.5 c 128,-1,5
 84 292 84 292 84 575 c 0,6,7
 84 742 84 742 144.5 910 c 128,-1,8
 205 1078 205 1078 313 1212 c 0,9,10
 438 1366 438 1366 594.5 1443 c 128,-1,11
 751 1520 751 1520 940 1520 c 0,12,13
 1214 1520 1214 1520 1372 1358.5 c 128,-1,14
 1530 1197 1530 1197 1530 918 c 0,15,16
 1530 617 1530 617 1365 367 c 128,-1,17
 1200 117 1200 117 934 14 c 1,18,-1
 1137 -264 l 1,19,-1
 911 -264 l 1,20,-1
 739 -27 l 1,0,1
934 1356 m 0,21,22
 768 1356 768 1356 641 1275.5 c 128,-1,23
 514 1195 514 1195 420 1030 c 0,24,25
 360 925 360 925 328.5 807 c 128,-1,26
 297 689 297 689 297 569 c 0,27,28
 297 361 297 361 396.5 248 c 128,-1,29
 496 135 496 135 678 135 c 0,30,31
 842 135 842 135 970.5 216.5 c 128,-1,32
 1099 298 1099 298 1190 459 c 0,33,34
 1251 567 1251 567 1283 685.5 c 128,-1,35
 1315 804 1315 804 1315 922 c 0,36,37
 1315 1129 1315 1129 1215 1242.5 c 128,-1,38
 1115 1356 1115 1356 934 1356 c 0,21,22
EndSplineSet
KernsSLIF: 45 38 0 0
EndChar
StartChar: R
Encoding: 82 82 53
Width: 1423
Flags: W
Fore
516 1327 m 1,0,-1
 414 797 l 1,1,-1
 674 797 l 2,2,3
 827 797 827 797 921.5 881.5 c 128,-1,4
 1016 966 1016 966 1016 1102 c 0,5,6
 1016 1211 1016 1211 952.5 1269 c 128,-1,7
 889 1327 889 1327 770 1327 c 2,8,-1
 516 1327 l 1,0,-1
887 717 m 1,9,10
 951 702 951 702 993.5 643 c 128,-1,11
 1036 584 1036 584 1092 408 c 1,12,-1
 1219 0 l 1,13,-1
 1006 0 l 1,14,-1
 889 383 l 2,15,16
 844 531 844 531 785 581 c 128,-1,17
 726 631 726 631 604 631 c 2,18,-1
 381 631 l 1,19,-1
 258 0 l 1,20,-1
 55 0 l 1,21,-1
 346 1493 l 1,22,-1
 801 1493 l 2,23,24
 1008 1493 1008 1493 1118.5 1399.5 c 128,-1,25
 1229 1306 1229 1306 1229 1130 c 0,26,27
 1229 974 1229 974 1135 860 c 128,-1,28
 1041 746 1041 746 887 717 c 1,9,10
EndSplineSet
EndChar
StartChar: S
Encoding: 83 83 54
Width: 1300
Flags: W
Fore
1235 1444 m 1,0,-1
 1196 1247 l 1,1,2
 1095 1301 1095 1301 995.5 1328.5 c 128,-1,3
 896 1356 896 1356 803 1356 c 0,4,5
 622 1356 622 1356 515 1277 c 128,-1,6
 408 1198 408 1198 408 1067 c 0,7,8
 408 995 408 995 447.5 956.5 c 128,-1,9
 487 918 487 918 651 874 c 1,10,-1
 772 844 l 2,11,12
 977 791 977 791 1057 709.5 c 128,-1,13
 1137 628 1137 628 1137 481 c 0,14,15
 1137 255 1137 255 959.5 113 c 128,-1,16
 782 -29 782 -29 492 -29 c 0,17,18
 373 -29 373 -29 253 -5.5 c 128,-1,19
 133 18 133 18 12 66 c 1,20,-1
 53 274 l 1,21,22
 164 205 164 205 275.5 170 c 128,-1,23
 387 135 387 135 498 135 c 0,24,25
 687 135 687 135 801 219 c 128,-1,26
 915 303 915 303 915 438 c 0,27,28
 915 528 915 528 869.5 574.5 c 128,-1,29
 824 621 824 621 674 659 c 2,30,-1
 553 690 l 2,31,32
 346 744 346 744 270.5 814.5 c 128,-1,33
 195 885 195 885 195 1012 c 0,34,35
 195 1235 195 1235 366.5 1377.5 c 128,-1,36
 538 1520 538 1520 813 1520 c 0,37,38
 920 1520 920 1520 1025 1501 c 128,-1,39
 1130 1482 1130 1482 1235 1444 c 1,0,-1
EndSplineSet
KernsSLIF: 350 -73 0 0 352 -73 0 0 83 -73 0 0
EndChar
StartChar: T
Encoding: 84 84 55
Width: 1251
Flags: W
Fore
121 1493 m 1,0,-1
 1384 1493 l 1,1,-1
 1352 1323 l 1,2,-1
 819 1323 l 1,3,-1
 563 0 l 1,4,-1
 360 0 l 1,5,-1
 616 1323 l 1,6,-1
 88 1323 l 1,7,-1
 121 1493 l 1,0,-1
EndSplineSet
KernsSLIF: 252 -206 0 0 229 -215 0 0 230 -253 0 0 59 -188 0 0 242 -253 0 0 45 -292 0 0 46 -243 0 0 367 -206 0 0 245 -253 0 0 235 -253 0 0 249 -206 0 0 58 -188 0 0 224 -215 0 0 195 -188 0 0 234 -253 0 0 231 -253 0 0 341 -159 0 0 232 -253 0 0 196 -188 0 0 193 -188 0 0 269 -253 0 0 251 -206 0 0 253 -178 0 0 227 -215 0 0 194 -188 0 0 248 -253 0 0 244 -253 0 0 353 -243 0 0 65 -188 0 0 283 -253 0 0 351 -243 0 0 228 -215 0 0 119 -167 0 0 246 -253 0 0 250 -206 0 0 263 -253 0 0 225 -215 0 0 345 -159 0 0 226 -215 0 0 233 -253 0 0 97 -215 0 0 99 -253 0 0 101 -253 0 0 339 -253 0 0 255 -178 0 0 111 -253 0 0 115 -243 0 0 114 -159 0 0 117 -206 0 0 192 -188 0 0 121 -178 0 0 44 -243 0 0 243 -253 0 0
EndChar
StartChar: U
Encoding: 85 85 56
Width: 1499
Flags: W
Fore
317 1493 m 1,0,-1
 520 1493 l 1,1,-1
 344 586 l 1,2,3
 333 525 333 525 328.5 485.5 c 128,-1,4
 324 446 324 446 324 416 c 0,5,6
 324 278 324 278 401 206.5 c 128,-1,7
 478 135 478 135 627 135 c 0,8,9
 820 135 820 135 927.5 241 c 128,-1,10
 1035 347 1035 347 1081 586 c 1,11,-1
 1257 1493 l 1,12,-1
 1460 1493 l 1,13,-1
 1280 561 l 1,14,15
 1221 259 1221 259 1056 115 c 128,-1,16
 891 -29 891 -29 604 -29 c 0,17,18
 380 -29 380 -29 249.5 83.5 c 128,-1,19
 119 196 119 196 119 389 c 0,20,21
 119 424 119 424 124 467.5 c 128,-1,22
 129 511 129 511 139 561 c 1,23,-1
 317 1493 l 1,0,-1
EndSplineSet
EndChar
StartChar: V
Encoding: 86 86 57
Width: 1401
Flags: W
Fore
422 0 m 1,0,-1
 160 1493 l 1,1,-1
 358 1493 l 1,2,-1
 575 209 l 1,3,-1
 1300 1493 l 1,4,-1
 1520 1493 l 1,5,-1
 657 0 l 1,6,-1
 422 0 l 1,0,-1
EndSplineSet
KernsSLIF: 367 -36 0 0 283 -120 0 0 193 -139 0 0 194 -139 0 0 339 -120 0 0 195 -139 0 0 192 -139 0 0 248 -120 0 0 230 -149 0 0 252 -36 0 0 251 -36 0 0 249 -36 0 0 250 -36 0 0 245 -120 0 0 246 -120 0 0 244 -120 0 0 242 -120 0 0 243 -120 0 0 235 -120 0 0 234 -120 0 0 232 -120 0 0 233 -120 0 0 229 -131 0 0 227 -131 0 0 228 -131 0 0 226 -131 0 0 224 -131 0 0 225 -131 0 0 196 -139 0 0 117 -36 0 0 111 -120 0 0 101 -120 0 0 97 -131 0 0 65 -139 0 0 59 -55 0 0 58 -55 0 0 46 -235 0 0 45 -178 0 0 44 -235 0 0
EndChar
StartChar: W
Encoding: 87 87 58
Width: 2025
Flags: W
Fore
197 1493 m 1,0,-1
 393 1493 l 1,1,-1
 465 223 l 1,2,-1
 1028 1493 l 1,3,-1
 1253 1493 l 1,4,-1
 1327 223 l 1,5,-1
 1884 1493 l 1,6,-1
 2089 1493 l 1,7,-1
 1425 0 l 1,8,-1
 1171 0 l 1,9,-1
 1102 1245 l 1,10,-1
 543 0 l 1,11,-1
 289 0 l 1,12,-1
 197 1493 l 1,0,-1
EndSplineSet
KernsSLIF: 229 -112 0 0 230 -112 0 0 45 -159 0 0 46 -167 0 0 44 -167 0 0 224 -112 0 0 195 -102 0 0 341 -36 0 0 8221 -36 0 0 196 -102 0 0 193 -102 0 0 8217 -36 0 0 227 -112 0 0 194 -102 0 0 65 -102 0 0 228 -112 0 0 225 -112 0 0 345 -36 0 0 226 -112 0 0 97 -112 0 0 114 -36 0 0 192 -102 0 0
EndChar
StartChar: X
Encoding: 88 88 59
Width: 1403
Flags: W
Fore
281 1493 m 1,0,-1
 485 1493 l 1,1,-1
 741 954 l 1,2,-1
 1204 1493 l 1,3,-1
 1440 1493 l 1,4,-1
 825 780 l 1,5,-1
 1196 0 l 1,6,-1
 993 0 l 1,7,-1
 692 629 l 1,8,-1
 147 0 l 1,9,-1
 -88 0 l 1,10,-1
 610 803 l 1,11,-1
 281 1493 l 1,0,-1
EndSplineSet
KernsSLIF: 268 -36 0 0 262 -36 0 0 210 -73 0 0 212 -73 0 0 211 -73 0 0 338 -55 0 0 213 -73 0 0 216 -36 0 0 214 -73 0 0 199 -36 0 0 79 -73 0 0 67 -36 0 0 45 -188 0 0
EndChar
StartChar: Y
Encoding: 89 89 60
Width: 1251
Flags: W
Fore
129 1493 m 1,0,-1
 346 1493 l 1,1,-1
 625 879 l 1,2,-1
 1157 1493 l 1,3,-1
 1384 1493 l 1,4,-1
 707 711 l 1,5,-1
 569 0 l 1,6,-1
 367 0 l 1,7,-1
 504 711 l 1,8,-1
 129 1493 l 1,0,-1
EndSplineSet
KernsSLIF: 367 -188 0 0 283 -225 0 0 268 -36 0 0 262 -36 0 0 210 -36 0 0 212 -36 0 0 211 -36 0 0 193 -159 0 0 194 -159 0 0 8216 -45 0 0 8220 -45 0 0 339 -225 0 0 338 -36 0 0 213 -36 0 0 195 -159 0 0 192 -159 0 0 248 -225 0 0 230 -188 0 0 216 -36 0 0 252 -188 0 0 251 -188 0 0 249 -188 0 0 250 -188 0 0 245 -225 0 0 246 -225 0 0 244 -225 0 0 242 -225 0 0 243 -225 0 0 235 -225 0 0 234 -225 0 0 232 -225 0 0 233 -225 0 0 229 -188 0 0 227 -188 0 0 228 -188 0 0 226 -188 0 0 224 -188 0 0 225 -188 0 0 214 -36 0 0 199 -36 0 0 196 -159 0 0 117 -188 0 0 111 -225 0 0 105 -36 0 0 101 -225 0 0 97 -188 0 0 79 -36 0 0 67 -36 0 0 65 -159 0 0 59 -178 0 0 58 -178 0 0 46 -264 0 0 45 -282 0 0 44 -264 0 0
EndChar
StartChar: Z
Encoding: 90 90 61
Width: 1403
Flags: W
Fore
268 1493 m 1,0,-1
 1440 1493 l 1,1,-1
 1411 1339 l 1,2,-1
 254 170 l 1,3,-1
 1206 170 l 1,4,-1
 1174 0 l 1,5,-1
 -45 0 l 1,6,-1
 -16 154 l 1,7,-1
 1141 1323 l 1,8,-1
 236 1323 l 1,9,-1
 268 1493 l 1,0,-1
EndSplineSet
KernsSLIF: 45 -102 0 0
EndChar
StartChar: bracketleft
Encoding: 91 91 62
Width: 799
Flags: W
Fore
436 1556 m 1,0,-1
 860 1556 l 1,1,-1
 831 1413 l 1,2,-1
 592 1413 l 1,3,-1
 293 -127 l 1,4,-1
 532 -127 l 1,5,-1
 506 -270 l 1,6,-1
 82 -270 l 1,7,-1
 436 1556 l 1,0,-1
EndSplineSet
EndChar
StartChar: backslash
Encoding: 92 92 63
Width: 690
Flags: W
Fore
344 1493 m 1,0,-1
 537 -190 l 1,1,-1
 369 -190 l 1,2,-1
 174 1493 l 1,3,-1
 344 1493 l 1,0,-1
EndSplineSet
EndChar
StartChar: bracketright
Encoding: 93 93 64
Width: 799
Flags: W
Fore
700 1556 m 1,0,-1
 346 -270 l 1,1,-1
 -78 -270 l 1,2,-1
 -51 -127 l 1,3,-1
 188 -127 l 1,4,-1
 487 1413 l 1,5,-1
 250 1413 l 1,6,-1
 276 1556 l 1,7,-1
 700 1556 l 1,0,-1
EndSplineSet
EndChar
StartChar: asciicircum
Encoding: 94 94 65
Width: 1716
Flags: W
Fore
956 1493 m 1,0,-1
 1499 936 l 1,1,-1
 1298 936 l 1,2,-1
 858 1331 l 1,3,-1
 418 936 l 1,4,-1
 217 936 l 1,5,-1
 760 1493 l 1,6,-1
 956 1493 l 1,0,-1
EndSplineSet
EndChar
StartChar: underscore
Encoding: 95 95 66
Width: 1024
Flags: W
Fore
1044 -340 m 1,0,-1
 1044 -483 l 1,1,-1
 -20 -483 l 1,2,-1
 -20 -340 l 1,3,-1
 1044 -340 l 1,0,-1
EndSplineSet
EndChar
StartChar: grave
Encoding: 96 96 67
Width: 1024
Flags: W
Fore
586 1638 m 1,0,-1
 795 1264 l 1,1,-1
 641 1264 l 1,2,-1
 389 1638 l 1,3,-1
 586 1638 l 1,0,-1
EndSplineSet
EndChar
StartChar: a
Encoding: 97 97 68
Width: 1255
Flags: W
Fore
1100 639 m 1,0,-1
 975 0 l 1,1,-1
 791 0 l 1,2,-1
 825 170 l 1,3,4
 744 70 744 70 640.5 20.5 c 128,-1,5
 537 -29 537 -29 410 -29 c 0,6,7
 267 -29 267 -29 175.5 58.5 c 128,-1,8
 84 146 84 146 84 283 c 0,9,10
 84 479 84 479 240.5 593 c 128,-1,11
 397 707 397 707 672 707 c 2,12,-1
 928 707 l 1,13,-1
 938 756 l 1,14,15
 940 764 940 764 941 773.5 c 128,-1,16
 942 783 942 783 942 803 c 0,17,18
 942 892 942 892 869.5 941.5 c 128,-1,19
 797 991 797 991 666 991 c 0,20,21
 576 991 576 991 481.5 968 c 128,-1,22
 387 945 387 945 287 899 c 1,23,-1
 319 1069 l 1,24,25
 423 1108 423 1108 522.5 1127.5 c 128,-1,26
 622 1147 622 1147 715 1147 c 0,27,28
 913 1147 913 1147 1016.5 1061 c 128,-1,29
 1120 975 1120 975 1120 811 c 0,30,31
 1120 778 1120 778 1115 733.5 c 128,-1,32
 1110 689 1110 689 1100 639 c 1,0,-1
901 563 m 1,33,-1
 717 563 l 2,34,35
 491 563 491 563 382.5 502.5 c 128,-1,36
 274 442 274 442 274 315 c 0,37,38
 274 227 274 227 329.5 177 c 128,-1,39
 385 127 385 127 483 127 c 0,40,41
 633 127 633 127 745 234.5 c 128,-1,42
 857 342 857 342 893 522 c 2,43,-1
 901 563 l 1,33,-1
EndSplineSet
EndChar
StartChar: b
Encoding: 98 98 69
Width: 1300
Flags: W
Fore
1014 684 m 0,0,1
 1014 829 1014 829 947.5 911 c 128,-1,2
 881 993 881 993 764 993 c 0,3,4
 679 993 679 993 604.5 951.5 c 128,-1,5
 530 910 530 910 475 831 c 0,6,7
 417 748 417 748 383.5 638.5 c 128,-1,8
 350 529 350 529 350 420 c 0,9,10
 350 282 350 282 415.5 203.5 c 128,-1,11
 481 125 481 125 596 125 c 0,12,13
 683 125 683 125 757 165.5 c 128,-1,14
 831 206 831 206 887 285 c 0,15,16
 944 367 944 367 979 476 c 128,-1,17
 1014 585 1014 585 1014 684 c 0,0,1
442 950 m 1,18,19
 510 1042 510 1042 612.5 1094.5 c 128,-1,20
 715 1147 715 1147 827 1147 c 0,21,22
 999 1147 999 1147 1100.5 1031 c 128,-1,23
 1202 915 1202 915 1202 717 c 0,24,25
 1202 555 1202 555 1142.5 403 c 128,-1,26
 1083 251 1083 251 973 133 c 0,27,28
 901 55 901 55 807 13 c 128,-1,29
 713 -29 713 -29 610 -29 c 0,30,31
 501 -29 501 -29 421 21 c 128,-1,32
 341 71 341 71 291 170 c 1,33,-1
 258 0 l 1,34,-1
 74 0 l 1,35,-1
 377 1556 l 1,36,-1
 561 1556 l 1,37,-1
 442 950 l 1,18,19
EndSplineSet
EndChar
StartChar: c
Encoding: 99 99 70
Width: 1126
Flags: W
Fore
1098 1077 m 1,0,-1
 1061 895 l 1,1,2
 995 943 995 943 920.5 967 c 128,-1,3
 846 991 846 991 766 991 c 0,4,5
 678 991 678 991 598.5 960 c 128,-1,6
 519 929 519 929 465 872 c 1,7,8
 379 785 379 785 332 668 c 128,-1,9
 285 551 285 551 285 426 c 0,10,11
 285 275 285 275 360.5 201 c 128,-1,12
 436 127 436 127 590 127 c 0,13,14
 666 127 666 127 751.5 150 c 128,-1,15
 837 173 837 173 930 219 c 1,16,-1
 895 37 l 1,17,18
 815 4 815 4 730.5 -12.5 c 128,-1,19
 646 -29 646 -29 557 -29 c 0,20,21
 334 -29 334 -29 214 82.5 c 128,-1,22
 94 194 94 194 94 401 c 0,23,24
 94 575 94 575 156.5 721.5 c 128,-1,25
 219 868 219 868 342 985 c 0,26,27
 426 1065 426 1065 539 1106 c 128,-1,28
 652 1147 652 1147 786 1147 c 0,29,30
 864 1147 864 1147 941 1129.5 c 128,-1,31
 1018 1112 1018 1112 1098 1077 c 1,0,-1
EndSplineSet
EndChar
StartChar: d
Encoding: 100 100 71
Width: 1300
Flags: W
Fore
856 168 m 1,0,1
 782 71 782 71 681 21 c 128,-1,2
 580 -29 580 -29 457 -29 c 0,3,4
 289 -29 289 -29 191.5 85.5 c 128,-1,5
 94 200 94 200 94 399 c 0,6,7
 94 565 94 565 153 715.5 c 128,-1,8
 212 866 212 866 324 985 c 0,9,10
 398 1064 398 1064 491 1105.5 c 128,-1,11
 584 1147 584 1147 686 1147 c 0,12,13
 794 1147 794 1147 876.5 1095 c 128,-1,14
 959 1043 959 1043 1004 946 c 1,15,-1
 1124 1556 l 1,16,-1
 1309 1556 l 1,17,-1
 1006 0 l 1,18,-1
 821 0 l 1,19,-1
 856 168 l 1,0,1
285 432 m 0,20,21
 285 287 285 287 350.5 206 c 128,-1,22
 416 125 416 125 532 125 c 0,23,24
 618 125 618 125 691.5 166.5 c 128,-1,25
 765 208 765 208 821 289 c 0,26,27
 880 373 880 373 914 483 c 128,-1,28
 948 593 948 593 948 700 c 0,29,30
 948 839 948 839 882.5 917 c 128,-1,31
 817 995 817 995 702 995 c 0,32,33
 615 995 615 995 540 954 c 128,-1,34
 465 913 465 913 412 836 c 0,35,36
 354 753 354 753 319.5 643 c 128,-1,37
 285 533 285 533 285 432 c 0,20,21
EndSplineSet
EndChar
StartChar: e
Encoding: 101 101 72
Width: 1260
Flags: W
Fore
985 660 m 1,0,1
 988 676 988 676 989.5 693 c 128,-1,2
 991 710 991 710 991 727 c 0,3,4
 991 849 991 849 919.5 920 c 128,-1,5
 848 991 848 991 725 991 c 0,6,7
 588 991 588 991 483 904.5 c 128,-1,8
 378 818 378 818 324 659 c 1,9,-1
 985 660 l 1,0,1
1145 516 m 1,10,-1
 289 516 l 1,11,12
 283 478 283 478 281 456 c 128,-1,13
 279 434 279 434 279 418 c 0,14,15
 279 279 279 279 364.5 203 c 128,-1,16
 450 127 450 127 606 127 c 0,17,18
 726 127 726 127 833 154 c 128,-1,19
 940 181 940 181 1032 233 c 1,20,-1
 997 51 l 1,21,22
 898 11 898 11 792.5 -9 c 128,-1,23
 687 -29 687 -29 578 -29 c 0,24,25
 345 -29 345 -29 219.5 82.5 c 128,-1,26
 94 194 94 194 94 399 c 0,27,28
 94 574 94 574 156.5 724.5 c 128,-1,29
 219 875 219 875 340 993 c 1,30,31
 418 1067 418 1067 525.5 1107 c 128,-1,32
 633 1147 633 1147 754 1147 c 0,33,34
 944 1147 944 1147 1056.5 1033 c 128,-1,35
 1169 919 1169 919 1169 727 c 0,36,37
 1169 681 1169 681 1163 628.5 c 128,-1,38
 1157 576 1157 576 1145 516 c 1,10,-1
EndSplineSet
EndChar
StartChar: f
Encoding: 102 102 73
Width: 721
Flags: W
Fore
979 1556 m 1,0,-1
 950 1403 l 1,1,-1
 774 1403 l 2,2,3
 674 1403 674 1403 628.5 1363.5 c 128,-1,4
 583 1324 583 1324 561 1219 c 1,5,-1
 541 1120 l 1,6,-1
 844 1120 l 1,7,-1
 817 977 l 1,8,-1
 514 977 l 1,9,-1
 324 0 l 1,10,-1
 139 0 l 1,11,-1
 330 977 l 1,12,-1
 154 977 l 1,13,-1
 180 1120 l 1,14,-1
 356 1120 l 1,15,-1
 371 1198 l 2,16,17
 409 1396 409 1396 504.5 1476 c 128,-1,18
 600 1556 600 1556 805 1556 c 2,19,-1
 979 1556 l 1,0,-1
EndSplineSet
KernsSLIF: 8217 94 0 0 8216 141 0 0 8221 94 0 0 8220 141 0 0 46 -36 0 0 45 -36 0 0 44 -36 0 0
EndChar
StartChar: g
Encoding: 103 103 74
Width: 1300
Flags: W
Fore
1221 1120 m 1,0,-1
 1030 139 l 1,1,2
 975 -146 975 -146 819.5 -286 c 128,-1,3
 664 -426 664 -426 401 -426 c 0,4,5
 304 -426 304 -426 221 -411.5 c 128,-1,6
 138 -397 138 -397 66 -367 c 1,7,-1
 100 -188 l 1,8,9
 168 -232 168 -232 244 -253 c 128,-1,10
 320 -274 320 -274 406 -274 c 0,11,12
 581 -274 581 -274 693.5 -178.5 c 128,-1,13
 806 -83 806 -83 842 96 c 1,14,-1
 858 180 l 1,15,16
 781 92 781 92 679 46 c 128,-1,17
 577 0 577 0 459 0 c 0,18,19
 289 0 289 0 191.5 112.5 c 128,-1,20
 94 225 94 225 94 422 c 0,21,22
 94 577 94 577 153 725.5 c 128,-1,23
 212 874 212 874 319 989 c 0,24,25
 390 1065 390 1065 484.5 1106 c 128,-1,26
 579 1147 579 1147 682 1147 c 0,27,28
 795 1147 795 1147 879 1094.5 c 128,-1,29
 963 1042 963 1042 1004 946 c 1,30,-1
 1036 1120 l 1,31,-1
 1221 1120 l 1,0,-1
944 709 m 0,32,33
 944 845 944 845 880 919 c 128,-1,34
 816 993 816 993 698 993 c 0,35,36
 625 993 625 993 559 964 c 128,-1,37
 493 935 493 935 446 883 c 0,38,39
 370 797 370 797 327.5 680.5 c 128,-1,40
 285 564 285 564 285 440 c 0,41,42
 285 302 285 302 349.5 228 c 128,-1,43
 414 154 414 154 535 154 c 0,44,45
 710 154 710 154 827 312.5 c 128,-1,46
 944 471 944 471 944 709 c 0,32,33
EndSplineSet
EndChar
StartChar: h
Encoding: 104 104 75
Width: 1298
Flags: W
Fore
1141 676 m 1,0,-1
 1010 0 l 1,1,-1
 825 0 l 1,2,-1
 956 669 l 2,3,4
 965 716 965 716 970 752 c 128,-1,5
 975 788 975 788 975 809 c 0,6,7
 975 893 975 893 922 940 c 128,-1,8
 869 987 869 987 774 987 c 0,9,10
 626 987 626 987 517.5 887 c 128,-1,11
 409 787 409 787 377 621 c 1,12,-1
 256 0 l 1,13,-1
 72 0 l 1,14,-1
 375 1556 l 1,15,-1
 559 1556 l 1,16,-1
 440 944 l 1,17,18
 510 1038 510 1038 619 1092.5 c 128,-1,19
 728 1147 728 1147 848 1147 c 0,20,21
 996 1147 996 1147 1077.5 1067 c 128,-1,22
 1159 987 1159 987 1159 842 c 0,23,24
 1159 806 1159 806 1154.5 765 c 128,-1,25
 1150 724 1150 724 1141 676 c 1,0,-1
EndSplineSet
EndChar
StartChar: i
Encoding: 105 105 76
Width: 569
Flags: W
Fore
375 1556 m 1,0,-1
 559 1556 l 1,1,-1
 514 1323 l 1,2,-1
 330 1323 l 1,3,-1
 375 1556 l 1,0,-1
291 1120 m 1,4,-1
 475 1120 l 1,5,-1
 256 0 l 1,6,-1
 72 0 l 1,7,-1
 291 1120 l 1,4,-1
EndSplineSet
EndChar
StartChar: j
Encoding: 106 106 77
Width: 569
Flags: W
Fore
297 1120 m 1,0,-1
 481 1120 l 1,1,-1
 260 -20 l 1,2,-1
 259 -25 l 2,3,4
 222 -216 222 -216 174 -287 c 0,5,6
 129 -354 129 -354 42.5 -390 c 128,-1,7
 -44 -426 -44 -426 -162 -426 c 2,8,-1
 -231 -426 l 1,9,-1
 -201 -270 l 1,10,-1
 -154 -270 l 2,11,12
 -46 -270 -46 -270 -0.5 -225 c 128,-1,13
 45 -180 45 -180 76 -20 c 2,14,-1
 297 1120 l 1,0,-1
383 1556 m 1,15,-1
 567 1556 l 1,16,-1
 522 1323 l 1,17,-1
 338 1323 l 1,18,-1
 383 1556 l 1,15,-1
EndSplineSet
EndChar
StartChar: k
Encoding: 107 107 78
Width: 1186
Flags: W
Fore
375 1556 m 1,0,-1
 559 1556 l 1,1,-1
 383 649 l 1,2,-1
 1014 1120 l 1,3,-1
 1253 1120 l 1,4,-1
 549 584 l 1,5,-1
 1063 0 l 1,6,-1
 840 0 l 1,7,-1
 362 547 l 1,8,-1
 256 0 l 1,9,-1
 72 0 l 1,10,-1
 375 1556 l 1,0,-1
EndSplineSet
EndChar
StartChar: l
Encoding: 108 108 79
Width: 569
Flags: W
Fore
375 1556 m 1,0,-1
 559 1556 l 1,1,-1
 256 0 l 1,2,-1
 72 0 l 1,3,-1
 375 1556 l 1,0,-1
EndSplineSet
EndChar
StartChar: m
Encoding: 109 109 80
Width: 1995
Flags: W
Fore
1839 676 m 2,0,-1
 1708 0 l 1,1,-1
 1524 0 l 1,2,-1
 1653 670 l 1,3,4
 1661 713 1661 713 1665 744 c 128,-1,5
 1669 775 1669 775 1669 797 c 0,6,7
 1669 887 1669 887 1619 937 c 128,-1,8
 1569 987 1569 987 1479 987 c 0,9,10
 1345 987 1345 987 1240 886.5 c 128,-1,11
 1135 786 1135 786 1104 625 c 1,12,-1
 981 0 l 1,13,-1
 797 0 l 1,14,-1
 928 670 l 1,15,16
 936 707 936 707 940 738.5 c 128,-1,17
 944 770 944 770 944 795 c 0,18,19
 944 886 944 886 894 936.5 c 128,-1,20
 844 987 844 987 756 987 c 0,21,22
 620 987 620 987 515 886.5 c 128,-1,23
 410 786 410 786 379 625 c 1,24,-1
 256 0 l 1,25,-1
 72 0 l 1,26,-1
 291 1120 l 1,27,-1
 475 1120 l 1,28,-1
 440 946 l 1,29,30
 515 1044 515 1044 615.5 1095.5 c 128,-1,31
 716 1147 716 1147 831 1147 c 0,32,33
 953 1147 953 1147 1031.5 1083 c 128,-1,34
 1110 1019 1110 1019 1126 905 c 1,35,36
 1210 1023 1210 1023 1320.5 1085 c 128,-1,37
 1431 1147 1431 1147 1554 1147 c 0,38,39
 1698 1147 1698 1147 1776.5 1064 c 128,-1,40
 1855 981 1855 981 1855 829 c 0,41,42
 1855 796 1855 796 1851 756.5 c 128,-1,43
 1847 717 1847 717 1839 676 c 2,0,-1
EndSplineSet
EndChar
StartChar: n
Encoding: 110 110 81
Width: 1298
Flags: W
Fore
1141 676 m 1,0,-1
 1010 0 l 1,1,-1
 825 0 l 1,2,-1
 956 669 l 2,3,4
 965 716 965 716 970 752 c 128,-1,5
 975 788 975 788 975 809 c 0,6,7
 975 893 975 893 922 940 c 128,-1,8
 869 987 869 987 774 987 c 0,9,10
 626 987 626 987 519 888.5 c 128,-1,11
 412 790 412 790 379 621 c 1,12,-1
 256 0 l 1,13,-1
 72 0 l 1,14,-1
 289 1120 l 1,15,-1
 473 1120 l 1,16,-1
 436 944 l 1,17,18
 513 1041 513 1041 621 1094 c 128,-1,19
 729 1147 729 1147 848 1147 c 0,20,21
 996 1147 996 1147 1077.5 1067 c 128,-1,22
 1159 987 1159 987 1159 842 c 0,23,24
 1159 806 1159 806 1154.5 765 c 128,-1,25
 1150 724 1150 724 1141 676 c 1,0,-1
EndSplineSet
EndChar
StartChar: o
Encoding: 111 111 82
Width: 1253
Flags: W
Fore
520 -29 m 0,0,1
 323 -29 323 -29 208.5 92.5 c 128,-1,2
 94 214 94 214 94 424 c 0,3,4
 94 546 94 546 133.5 672.5 c 128,-1,5
 173 799 173 799 236 885 c 0,6,7
 335 1019 335 1019 457 1083 c 128,-1,8
 579 1147 579 1147 733 1147 c 0,9,10
 924 1147 924 1147 1041.5 1028 c 128,-1,11
 1159 909 1159 909 1159 717 c 0,12,13
 1159 584 1159 584 1120 452 c 128,-1,14
 1081 320 1081 320 1018 233 c 0,15,16
 920 99 920 99 798 35 c 128,-1,17
 676 -29 676 -29 520 -29 c 0,0,1
285 430 m 0,18,19
 285 278 285 278 348.5 202.5 c 128,-1,20
 412 127 412 127 541 127 c 0,21,22
 726 127 726 127 847.5 288.5 c 128,-1,23
 969 450 969 450 969 698 c 0,24,25
 969 843 969 843 904 917 c 128,-1,26
 839 991 839 991 713 991 c 0,27,28
 609 991 609 991 528 942.5 c 128,-1,29
 447 894 447 894 383 795 c 0,30,31
 336 721 336 721 310.5 626 c 128,-1,32
 285 531 285 531 285 430 c 0,18,19
EndSplineSet
EndChar
StartChar: p
Encoding: 112 112 83
Width: 1300
Flags: W
Fore
1016 690 m 0,0,1
 1016 837 1016 837 952 915 c 128,-1,2
 888 993 888 993 768 993 c 0,3,4
 686 993 686 993 611.5 951 c 128,-1,5
 537 909 537 909 479 829 c 0,6,7
 422 750 422 750 388 638 c 128,-1,8
 354 526 354 526 354 416 c 0,9,10
 354 276 354 276 418 200.5 c 128,-1,11
 482 125 482 125 600 125 c 0,12,13
 687 125 687 125 761.5 166 c 128,-1,14
 836 207 836 207 889 285 c 0,15,16
 946 367 946 367 981 478 c 128,-1,17
 1016 589 1016 589 1016 690 c 0,0,1
446 950 m 1,18,19
 520 1047 520 1047 620.5 1097 c 128,-1,20
 721 1147 721 1147 844 1147 c 0,21,22
 1016 1147 1016 1147 1111 1034.5 c 128,-1,23
 1206 922 1206 922 1206 719 c 0,24,25
 1206 553 1206 553 1147 402.5 c 128,-1,26
 1088 252 1088 252 977 133 c 0,27,28
 903 54 903 54 810 12.5 c 128,-1,29
 717 -29 717 -29 614 -29 c 0,30,31
 495 -29 495 -29 414 20.5 c 128,-1,32
 333 70 333 70 293 168 c 1,33,-1
 178 -426 l 1,34,-1
 -6 -426 l 1,35,-1
 295 1120 l 1,36,-1
 479 1120 l 1,37,-1
 446 950 l 1,18,19
EndSplineSet
EndChar
StartChar: q
Encoding: 113 113 84
Width: 1300
Flags: W
Fore
854 168 m 1,0,1
 780 71 780 71 679.5 21 c 128,-1,2
 579 -29 579 -29 457 -29 c 0,3,4
 287 -29 287 -29 190.5 85.5 c 128,-1,5
 94 200 94 200 94 401 c 0,6,7
 94 563 94 563 153.5 714 c 128,-1,8
 213 865 213 865 324 985 c 0,9,10
 396 1063 396 1063 489.5 1105 c 128,-1,11
 583 1147 583 1147 686 1147 c 0,12,13
 810 1147 810 1147 890 1098 c 128,-1,14
 970 1049 970 1049 1006 950 c 1,15,-1
 1038 1118 l 1,16,-1
 1223 1118 l 1,17,-1
 924 -422 l 1,18,-1
 739 -422 l 1,19,-1
 854 168 l 1,0,1
285 428 m 0,20,21
 285 280 285 280 347 202.5 c 128,-1,22
 409 125 409 125 526 125 c 0,23,24
 700 125 700 125 823 291.5 c 128,-1,25
 946 458 946 458 946 696 c 0,26,27
 946 840 946 840 882.5 916.5 c 128,-1,28
 819 993 819 993 700 993 c 0,29,30
 613 993 613 993 539 952.5 c 128,-1,31
 465 912 465 912 410 834 c 0,32,33
 352 752 352 752 318.5 642 c 128,-1,34
 285 532 285 532 285 428 c 0,20,21
EndSplineSet
EndChar
StartChar: r
Encoding: 114 114 85
Width: 842
Flags: W
Fore
913 950 m 1,0,1
 885 965 885 965 849 973 c 128,-1,2
 813 981 813 981 772 981 c 0,3,4
 625 981 625 981 515 869.5 c 128,-1,5
 405 758 405 758 369 571 c 1,6,-1
 256 0 l 1,7,-1
 72 0 l 1,8,-1
 291 1120 l 1,9,-1
 475 1120 l 1,10,-1
 440 946 l 1,11,12
 513 1043 513 1043 614.5 1095 c 128,-1,13
 716 1147 716 1147 831 1147 c 0,14,15
 861 1147 861 1147 890 1143.5 c 128,-1,16
 919 1140 919 1140 948 1132 c 1,17,-1
 913 950 l 1,0,1
EndSplineSet
KernsSLIF: 46 -188 0 0 45 -112 0 0 44 -188 0 0
EndChar
StartChar: s
Encoding: 115 115 86
Width: 1067
Flags: W
Fore
1024 1087 m 1,0,-1
 989 913 l 1,1,2
 916 953 916 953 835 973 c 128,-1,3
 754 993 754 993 668 993 c 0,4,5
 523 993 523 993 439.5 943.5 c 128,-1,6
 356 894 356 894 356 809 c 0,7,8
 356 710 356 710 550 657 c 0,9,10
 565 653 565 653 572 651 c 2,11,-1
 631 633 l 1,12,13
 815 582 815 582 876.5 526 c 128,-1,14
 938 470 938 470 938 373 c 0,15,16
 938 195 938 195 796.5 83 c 128,-1,17
 655 -29 655 -29 426 -29 c 0,18,19
 337 -29 337 -29 239 -12 c 128,-1,20
 141 5 141 5 23 41 c 1,21,-1
 59 231 l 1,22,23
 160 179 160 179 258 152 c 128,-1,24
 356 125 356 125 446 125 c 0,25,26
 581 125 581 125 665.5 183 c 128,-1,27
 750 241 750 241 750 330 c 0,28,29
 750 426 750 426 528 485 c 2,30,-1
 509 490 l 1,31,-1
 446 506 l 2,32,33
 306 543 306 543 241 603.5 c 128,-1,34
 176 664 176 664 176 758 c 0,35,36
 176 937 176 937 310.5 1042 c 128,-1,37
 445 1147 445 1147 676 1147 c 0,38,39
 767 1147 767 1147 853.5 1132 c 128,-1,40
 940 1117 940 1117 1024 1087 c 1,0,-1
EndSplineSet
EndChar
StartChar: t
Encoding: 116 116 87
Width: 803
Flags: W
Fore
866 1120 m 1,0,-1
 838 977 l 1,1,-1
 471 977 l 1,2,-1
 352 369 l 1,3,4
 346 335 346 335 343 312 c 128,-1,5
 340 289 340 289 340 276 c 0,6,7
 340 212 340 212 378.5 183 c 128,-1,8
 417 154 417 154 502 154 c 2,9,-1
 688 154 l 1,10,-1
 657 0 l 1,11,-1
 481 0 l 2,12,13
 317 0 317 0 236.5 64 c 128,-1,14
 156 128 156 128 156 258 c 0,15,16
 156 281 156 281 159 308.5 c 128,-1,17
 162 336 162 336 168 369 c 1,18,-1
 287 977 l 1,19,-1
 131 977 l 1,20,-1
 160 1120 l 1,21,-1
 313 1120 l 1,22,-1
 375 1438 l 1,23,-1
 559 1438 l 1,24,-1
 498 1120 l 1,25,-1
 866 1120 l 1,0,-1
EndSplineSet
EndChar
StartChar: u
Encoding: 117 117 88
Width: 1298
Flags: W
Fore
137 444 m 1,0,-1
 268 1120 l 1,1,-1
 453 1120 l 1,2,-1
 322 451 l 1,3,4
 312 402 312 402 307.5 367 c 128,-1,5
 303 332 303 332 303 309 c 0,6,7
 303 224 303 224 355 177.5 c 128,-1,8
 407 131 407 131 502 131 c 0,9,10
 650 131 650 131 758 231 c 128,-1,11
 866 331 866 331 899 500 c 1,12,-1
 1022 1120 l 1,13,-1
 1206 1120 l 1,14,-1
 989 0 l 1,15,-1
 805 0 l 1,16,-1
 842 176 l 1,17,18
 764 78 764 78 656.5 24.5 c 128,-1,19
 549 -29 549 -29 428 -29 c 0,20,21
 281 -29 281 -29 199 51.5 c 128,-1,22
 117 132 117 132 117 276 c 0,23,24
 117 306 117 306 122 351 c 128,-1,25
 127 396 127 396 137 444 c 1,0,-1
EndSplineSet
EndChar
StartChar: v
Encoding: 118 118 89
Width: 1212
Flags: W
Fore
147 1120 m 1,0,-1
 342 1120 l 1,1,-1
 506 168 l 1,2,-1
 1042 1120 l 1,3,-1
 1237 1120 l 1,4,-1
 600 0 l 1,5,-1
 352 0 l 1,6,-1
 147 1120 l 1,0,-1
EndSplineSet
KernsSLIF: 46 -167 0 0 44 -167 0 0
EndChar
StartChar: w
Encoding: 119 119 90
Width: 1675
Flags: W
Fore
174 1120 m 1,0,-1
 356 1120 l 1,1,-1
 403 219 l 1,2,-1
 821 1120 l 1,3,-1
 1034 1120 l 1,4,-1
 1096 219 l 1,5,-1
 1493 1120 l 1,6,-1
 1677 1120 l 1,7,-1
 1165 0 l 1,8,-1
 950 0 l 1,9,-1
 895 928 l 1,10,-1
 467 0 l 1,11,-1
 250 0 l 1,12,-1
 174 1120 l 1,0,-1
EndSplineSet
KernsSLIF: 46 -131 0 0 44 -131 0 0
EndChar
StartChar: x
Encoding: 120 120 91
Width: 1212
Flags: W
Fore
1229 1120 m 1,0,-1
 715 571 l 1,1,-1
 1030 0 l 1,2,-1
 819 0 l 1,3,-1
 582 444 l 1,4,-1
 170 0 l 1,5,-1
 -53 0 l 1,6,-1
 498 590 l 1,7,-1
 205 1120 l 1,8,-1
 416 1120 l 1,9,-1
 631 715 l 1,10,-1
 1006 1120 l 1,11,-1
 1229 1120 l 1,0,-1
EndSplineSet
EndChar
StartChar: y
Encoding: 121 121 92
Width: 1212
Flags: W
Fore
508 -104 m 2,0,1
 380 -319 380 -319 299.5 -372.5 c 128,-1,2
 219 -426 219 -426 94 -426 c 2,3,-1
 -51 -426 l 1,4,-1
 -20 -272 l 1,5,-1
 86 -272 l 2,6,7
 163 -272 163 -272 217 -230 c 128,-1,8
 271 -188 271 -188 338 -66 c 1,9,-1
 395 41 l 1,10,-1
 147 1120 l 1,11,-1
 342 1120 l 1,12,-1
 528 262 l 1,13,-1
 1042 1120 l 1,14,-1
 1235 1120 l 1,15,-1
 508 -104 l 2,0,1
EndSplineSet
KernsSLIF: 46 -159 0 0 45 -73 0 0 44 -159 0 0
EndChar
StartChar: z
Encoding: 122 122 93
Width: 1075
Flags: W
Fore
238 1120 m 1,0,-1
 1112 1120 l 1,1,-1
 1079 952 l 1,2,-1
 236 147 l 1,3,-1
 932 147 l 1,4,-1
 903 0 l 1,5,-1
 -6 0 l 1,6,-1
 27 168 l 1,7,-1
 870 973 l 1,8,-1
 209 973 l 1,9,-1
 238 1120 l 1,0,-1
EndSplineSet
EndChar
StartChar: braceleft
Encoding: 123 123 94
Width: 1303
Flags: W
Fore
1239 1556 m 1,0,-1
 1210 1413 l 1,1,-1
 1133 1413 l 2,2,3
 997 1413 997 1413 950 1373.5 c 128,-1,4
 903 1334 903 1334 872 1184 c 1,5,-1
 821 932 l 1,6,7
 789 772 789 772 728.5 699.5 c 128,-1,8
 668 627 668 627 557 606 c 1,9,10
 630 588 630 588 670.5 536.5 c 128,-1,11
 711 485 711 485 711 410 c 0,12,13
 711 386 711 386 707 353 c 128,-1,14
 703 320 703 320 696 282 c 1,15,-1
 649 38 l 1,16,17
 644 7 644 7 641.5 -19.5 c 128,-1,18
 639 -46 639 -46 639 -70 c 0,19,20
 639 -133 639 -133 681.5 -161.5 c 128,-1,21
 724 -190 724 -190 821 -190 c 2,22,-1
 899 -190 l 1,23,-1
 870 -334 l 1,24,-1
 799 -334 l 2,25,26
 611 -334 611 -334 530 -279.5 c 128,-1,27
 449 -225 449 -225 449 -102 c 0,28,29
 449 -70 449 -70 452.5 -36 c 128,-1,30
 456 -2 456 -2 463 35 c 2,31,-1
 508 270 l 1,32,33
 508 273 508 273 510 282 c 0,34,35
 520 332 520 332 520 377 c 0,36,37
 520 462 520 462 471 499.5 c 128,-1,38
 422 537 422 537 309 537 c 2,39,-1
 248 537 l 1,40,-1
 276 684 l 1,41,-1
 338 684 l 2,42,43
 482 684 482 684 545.5 738.5 c 128,-1,44
 609 793 609 793 641 944 c 1,45,-1
 688 1188 l 1,46,47
 714 1311 714 1311 749.5 1382.5 c 128,-1,48
 785 1454 785 1454 840 1493 c 0,49,50
 886 1527 886 1527 955 1541.5 c 128,-1,51
 1024 1556 1024 1556 1157 1556 c 2,52,-1
 1239 1556 l 1,0,-1
EndSplineSet
EndChar
StartChar: bar
Encoding: 124 124 95
Width: 690
Flags: W
Fore
430 1565 m 1,0,-1
 430 -483 l 1,1,-1
 260 -483 l 1,2,-1
 260 1565 l 1,3,-1
 430 1565 l 1,0,-1
EndSplineSet
EndChar
StartChar: braceright
Encoding: 125 125 96
Width: 1303
Flags: W
Fore
14 -334 m 1,0,-1
 43 -190 l 1,1,-1
 121 -190 l 2,2,3
 257 -190 257 -190 304 -150.5 c 128,-1,4
 351 -111 351 -111 381 39 c 1,5,-1
 432 291 l 1,6,7
 465 451 465 451 525 523.5 c 128,-1,8
 585 596 585 596 696 616 c 1,9,10
 623 635 623 635 583 686 c 128,-1,11
 543 737 543 737 543 813 c 0,12,13
 543 838 543 838 546.5 870 c 128,-1,14
 550 902 550 902 557 940 c 1,15,-1
 604 1183 l 1,16,17
 610 1217 610 1217 612 1242 c 128,-1,18
 614 1267 614 1267 614 1292 c 0,19,20
 614 1356 614 1356 571.5 1384.5 c 128,-1,21
 529 1413 529 1413 432 1413 c 2,22,-1
 354 1413 l 1,23,-1
 381 1556 l 1,24,-1
 455 1556 l 2,25,26
 642 1556 642 1556 723.5 1502 c 128,-1,27
 805 1448 805 1448 805 1325 c 0,28,29
 805 1294 805 1294 801.5 1260 c 128,-1,30
 798 1226 798 1226 790 1187 c 1,31,-1
 745 952 l 1,32,33
 745 949 745 949 743 940 c 0,34,35
 733 891 733 891 733 846 c 0,36,37
 733 760 733 760 782 723 c 128,-1,38
 831 686 831 686 944 686 c 2,39,-1
 1006 686 l 1,40,-1
 977 539 l 1,41,-1
 915 539 l 2,42,43
 771 539 771 539 708 484 c 128,-1,44
 645 429 645 429 616 279 c 1,45,-1
 563 35 l 1,46,47
 537 -91 537 -91 502 -161.5 c 128,-1,48
 467 -232 467 -232 414 -270 c 0,49,50
 367 -304 367 -304 298 -319 c 128,-1,51
 229 -334 229 -334 96 -334 c 2,52,-1
 14 -334 l 1,0,-1
EndSplineSet
EndChar
StartChar: asciitilde
Encoding: 126 126 97
Width: 1716
Flags: W
Fore
1499 817 m 1,0,-1
 1499 639 l 1,1,2
 1394 560 1394 560 1304.5 526 c 128,-1,3
 1215 492 1215 492 1118 492 c 0,4,5
 1008 492 1008 492 862 551 c 0,6,7
 851 555 851 555 846 557 c 0,8,9
 839 560 839 560 824 565 c 0,10,11
 669 627 669 627 575 627 c 0,12,13
 487 627 487 627 401 588.5 c 128,-1,14
 315 550 315 550 217 467 c 1,15,-1
 217 645 l 1,16,17
 322 724 322 724 411.5 758.5 c 128,-1,18
 501 793 501 793 598 793 c 0,19,20
 708 793 708 793 855 733 c 0,21,22
 865 729 865 729 870 727 c 0,23,24
 878 724 878 724 892 719 c 0,25,26
 1047 657 1047 657 1141 657 c 0,27,28
 1227 657 1227 657 1311.5 695 c 128,-1,29
 1396 733 1396 733 1499 817 c 1,0,-1
EndSplineSet
EndChar
StartChar: exclamdown
Encoding: 161 161 163
Width: 821
Flags: W
Fore
377 0 m 1,0,-1
 174 0 l 1,1,-1
 301 655 l 1,2,-1
 391 1012 l 1,3,-1
 553 1012 l 1,4,-1
 504 655 l 1,5,-1
 377 0 l 1,0,-1
616 1239 m 1,6,-1
 414 1239 l 1,7,-1
 463 1493 l 1,8,-1
 668 1493 l 1,9,-1
 616 1239 l 1,6,-1
EndSplineSet
EndChar
StartChar: cent
Encoding: 162 162 132
Width: 1303
Flags: W
Fore
758 985 m 1,0,1
 580 962 580 962 460 801.5 c 128,-1,2
 340 641 340 641 340 426 c 0,3,4
 340 292 340 292 401 218.5 c 128,-1,5
 462 145 462 145 590 125 c 1,6,-1
 758 985 l 1,0,1
889 1145 m 1,7,8
 962 1138 962 1138 1026.5 1121.5 c 128,-1,9
 1091 1105 1091 1105 1153 1077 c 1,10,-1
 1118 895 l 1,11,12
 1071 932 1071 932 1009 954.5 c 128,-1,13
 947 977 947 977 858 989 c 1,14,-1
 690 127 l 1,15,16
 756 132 756 132 830 154.5 c 128,-1,17
 904 177 904 177 987 219 c 1,18,-1
 952 37 l 1,19,20
 887 9 887 9 814 -7.5 c 128,-1,21
 741 -24 741 -24 664 -29 c 1,22,-1
 604 -313 l 1,23,-1
 504 -313 l 1,24,-1
 563 -29 l 1,25,26
 366 -16 366 -16 259 95.5 c 128,-1,27
 152 207 152 207 152 401 c 0,28,29
 152 707 152 707 329 914.5 c 128,-1,30
 506 1122 506 1122 788 1145 c 1,31,-1
 844 1430 l 1,32,-1
 944 1430 l 1,33,-1
 889 1145 l 1,7,8
EndSplineSet
EndChar
StartChar: sterling
Encoding: 163 163 133
Width: 1303
Flags: W
Fore
1305 1460 m 1,0,-1
 1270 1278 l 1,1,2
 1209 1318 1209 1318 1143.5 1339 c 128,-1,3
 1078 1360 1078 1360 1014 1360 c 0,4,5
 867 1360 867 1360 793 1280.5 c 128,-1,6
 719 1201 719 1201 678 993 c 1,7,-1
 637 778 l 1,8,-1
 1028 778 l 1,9,-1
 999 635 l 1,10,-1
 608 635 l 1,11,-1
 518 170 l 1,12,-1
 1055 170 l 1,13,-1
 1022 0 l 1,14,-1
 49 0 l 1,15,-1
 82 170 l 1,16,-1
 317 170 l 1,17,-1
 408 635 l 1,18,-1
 209 635 l 1,19,-1
 238 778 l 1,20,-1
 436 778 l 1,21,-1
 481 1016 l 1,22,23
 533 1278 533 1278 663.5 1399 c 128,-1,24
 794 1520 794 1520 1026 1520 c 0,25,26
 1096 1520 1096 1520 1166 1505 c 128,-1,27
 1236 1490 1236 1490 1305 1460 c 1,0,-1
EndSplineSet
EndChar
StartChar: currency
Encoding: 164 164 189
Width: 1303
Flags: W
Fore
891 993 m 1,0,-1
 1098 1202 l 1,1,-1
 1212 1087 l 1,2,-1
 1006 881 l 1,3,4
 1043 822 1043 822 1061 762.5 c 128,-1,5
 1079 703 1079 703 1079 641 c 0,6,7
 1079 578 1079 578 1060 520.5 c 128,-1,8
 1041 463 1041 463 1001 406 c 1,9,-1
 1210 199 l 1,10,-1
 1096 86 l 1,11,-1
 889 293 l 1,12,13
 830 253 830 253 772 234 c 128,-1,14
 714 215 714 215 653 215 c 0,15,16
 595 215 595 215 535 233.5 c 128,-1,17
 475 252 475 252 414 289 c 1,18,-1
 207 82 l 1,19,-1
 94 197 l 1,20,-1
 301 403 l 1,21,22
 264 465 264 465 245.5 524 c 128,-1,23
 227 583 227 583 227 641 c 0,24,25
 227 705 227 705 246 763 c 128,-1,26
 265 821 265 821 303 877 c 1,27,-1
 96 1083 l 1,28,-1
 211 1198 l 1,29,-1
 418 991 l 1,30,31
 473 1030 473 1030 531 1048.5 c 128,-1,32
 589 1067 589 1067 653 1067 c 0,33,34
 713 1067 713 1067 771.5 1049 c 128,-1,35
 830 1031 830 1031 891 993 c 1,0,-1
922 643 m 0,36,37
 922 755 922 755 844.5 832 c 128,-1,38
 767 909 767 909 653 909 c 0,39,40
 541 909 541 909 462 832 c 128,-1,41
 383 755 383 755 383 643 c 0,42,43
 383 529 383 529 461.5 451 c 128,-1,44
 540 373 540 373 653 373 c 0,45,46
 766 373 766 373 844 451.5 c 128,-1,47
 922 530 922 530 922 643 c 0,36,37
EndSplineSet
EndChar
StartChar: yen
Encoding: 165 165 150
Width: 1303
Flags: W
Fore
1122 455 m 1,0,-1
 711 455 l 1,1,-1
 623 0 l 1,2,-1
 420 0 l 1,3,-1
 508 455 l 1,4,-1
 92 455 l 1,5,-1
 115 578 l 1,6,-1
 532 578 l 1,7,-1
 543 629 l 1,8,-1
 489 784 l 1,9,-1
 156 784 l 1,10,-1
 180 907 l 1,11,-1
 446 907 l 1,12,-1
 242 1493 l 1,13,-1
 432 1493 l 1,14,-1
 672 793 l 1,15,-1
 1184 1493 l 1,16,-1
 1378 1493 l 1,17,-1
 948 907 l 1,18,-1
 1210 907 l 1,19,-1
 1186 784 l 1,20,-1
 858 784 l 1,21,-1
 745 629 l 1,22,-1
 735 578 l 1,23,-1
 1145 578 l 1,24,-1
 1122 455 l 1,0,-1
EndSplineSet
EndChar
StartChar: brokenbar
Encoding: 166 166 231
Width: 690
Flags: W
Fore
430 408 m 1,0,-1
 430 -350 l 1,1,-1
 260 -350 l 1,2,-1
 260 408 l 1,3,-1
 430 408 l 1,0,-1
430 1432 m 1,4,-1
 430 674 l 1,5,-1
 260 674 l 1,6,-1
 260 1432 l 1,7,-1
 430 1432 l 1,4,-1
EndSplineSet
EndChar
StartChar: section
Encoding: 167 167 134
Width: 1024
Flags: W
Fore
602 410 m 1,0,1
 684 459 684 459 727 514.5 c 128,-1,2
 770 570 770 570 770 627 c 0,3,4
 770 681 770 681 716.5 737.5 c 128,-1,5
 663 794 663 794 520 885 c 2,6,-1
 440 936 l 1,7,8
 359 885 359 885 316.5 829 c 128,-1,9
 274 773 274 773 274 717 c 0,10,11
 274 667 274 667 316.5 618.5 c 128,-1,12
 359 570 359 570 485 487 c 2,13,-1
 602 410 l 1,0,1
993 1462 m 1,14,-1
 961 1298 l 1,15,16
 889 1337 889 1337 820.5 1356.5 c 128,-1,17
 752 1376 752 1376 694 1376 c 0,18,19
 591 1376 591 1376 525 1327.5 c 128,-1,20
 459 1279 459 1279 459 1206 c 0,21,22
 459 1127 459 1127 594 1037 c 0,23,24
 624 1017 624 1017 641 1006 c 2,25,-1
 729 946 l 2,26,27
 851 861 851 861 893.5 802.5 c 128,-1,28
 936 744 936 744 936 674 c 0,29,30
 936 573 936 573 870 483 c 128,-1,31
 804 393 804 393 690 340 c 1,32,33
 731 305 731 305 751.5 260 c 128,-1,34
 772 215 772 215 772 160 c 0,35,36
 772 3 772 3 650.5 -96 c 128,-1,37
 529 -195 529 -195 330 -195 c 0,38,39
 261 -195 261 -195 184 -180.5 c 128,-1,40
 107 -166 107 -166 25 -137 c 1,41,-1
 57 27 l 1,42,43
 133 -11 133 -11 205 -31 c 128,-1,44
 277 -51 277 -51 336 -51 c 0,45,46
 448 -51 448 -51 515 -3.5 c 128,-1,47
 582 44 582 44 582 123 c 0,48,49
 582 221 582 221 402 342 c 2,50,-1
 387 352 l 1,51,-1
 311 403 l 2,52,53
 188 487 188 487 147 543.5 c 128,-1,54
 106 600 106 600 106 674 c 0,55,56
 106 770 106 770 170 856.5 c 128,-1,57
 234 943 234 943 352 1006 c 1,58,59
 309 1044 309 1044 289.5 1084.5 c 128,-1,60
 270 1125 270 1125 270 1176 c 0,61,62
 270 1323 270 1323 391.5 1421.5 c 128,-1,63
 513 1520 513 1520 700 1520 c 0,64,65
 771 1520 771 1520 843.5 1505.5 c 128,-1,66
 916 1491 916 1491 993 1462 c 1,14,-1
EndSplineSet
EndChar
StartChar: dieresis
Encoding: 168 168 142
Width: 1024
Flags: W
Fore
416 1552 m 1,0,-1
 621 1552 l 1,1,-1
 580 1350 l 1,2,-1
 377 1350 l 1,3,-1
 416 1552 l 1,0,-1
807 1552 m 1,4,-1
 1010 1552 l 1,5,-1
 971 1350 l 1,6,-1
 768 1350 l 1,7,-1
 807 1552 l 1,4,-1
EndSplineSet
Ligature: 0 1 'liga' space uni0308
EndChar
StartChar: copyright
Encoding: 169 169 139
Width: 2048
Flags: W
Fore
1024 1485 m 0,0,1
 1176 1485 1176 1485 1307.5 1430 c 128,-1,2
 1439 1375 1439 1375 1548 1266 c 0,3,4
 1657 1157 1657 1157 1711 1026 c 128,-1,5
 1765 895 1765 895 1765 741 c 0,6,7
 1765 589 1765 589 1711 458.5 c 128,-1,8
 1657 328 1657 328 1548 219 c 0,9,10
 1439 110 1439 110 1307.5 55 c 128,-1,11
 1176 0 1176 0 1024 0 c 0,12,13
 872 0 872 0 740.5 55 c 128,-1,14
 609 110 609 110 500 219 c 0,15,16
 391 328 391 328 337 458.5 c 128,-1,17
 283 589 283 589 283 741 c 0,18,19
 283 895 283 895 337 1026 c 128,-1,20
 391 1157 391 1157 500 1266 c 0,21,22
 609 1375 609 1375 740.5 1430 c 128,-1,23
 872 1485 872 1485 1024 1485 c 0,0,1
1024 1382 m 0,24,25
 893 1382 893 1382 780 1335 c 128,-1,26
 667 1288 667 1288 573 1194 c 0,27,28
 479 1100 479 1100 431 985.5 c 128,-1,29
 383 871 383 871 383 741 c 0,30,31
 383 612 383 612 431 498.5 c 128,-1,32
 479 385 479 385 573 291 c 0,33,34
 667 197 667 197 780 149.5 c 128,-1,35
 893 102 893 102 1024 102 c 0,36,37
 1156 102 1156 102 1269.5 149.5 c 128,-1,38
 1383 197 1383 197 1477 291 c 0,39,40
 1570 384 1570 384 1616.5 497 c 128,-1,41
 1663 610 1663 610 1663 741 c 0,42,43
 1663 874 1663 874 1616 987.5 c 128,-1,44
 1569 1101 1569 1101 1477 1194 c 0,45,46
 1383 1288 1383 1288 1269.5 1335 c 128,-1,47
 1156 1382 1156 1382 1024 1382 c 0,24,25
1323 1137 m 1,48,-1
 1323 1008 l 1,49,50
 1257 1041 1257 1041 1192 1057 c 128,-1,51
 1127 1073 1127 1073 1061 1073 c 0,52,53
 912 1073 912 1073 828.5 985.5 c 128,-1,54
 745 898 745 898 745 741 c 0,55,56
 745 582 745 582 830.5 495 c 128,-1,57
 916 408 916 408 1071 408 c 0,58,59
 1135 408 1135 408 1196 423.5 c 128,-1,60
 1257 439 1257 439 1323 473 c 1,61,-1
 1323 346 l 1,62,63
 1256 317 1256 317 1187.5 303 c 128,-1,64
 1119 289 1119 289 1049 289 c 0,65,66
 833 289 833 289 707.5 411 c 128,-1,67
 582 533 582 533 582 741 c 0,68,69
 582 950 582 950 707.5 1071 c 128,-1,70
 833 1192 833 1192 1049 1192 c 0,71,72
 1122 1192 1122 1192 1190 1178 c 128,-1,73
 1258 1164 1258 1164 1323 1137 c 1,48,-1
EndSplineSet
EndChar
StartChar: ordfeminine
Encoding: 170 170 157
Width: 965
Flags: W
Fore
594 1104 m 2,0,1
 437 1104 437 1104 366 1066.5 c 128,-1,2
 295 1029 295 1029 295 946 c 0,3,4
 295 887 295 887 333 852 c 128,-1,5
 371 817 371 817 436 817 c 0,6,7
 551 817 551 817 629.5 884.5 c 128,-1,8
 708 952 708 952 735 1075 c 1,9,-1
 741 1104 l 1,10,-1
 594 1104 l 2,0,1
903 1165 m 1,11,-1
 815 717 l 1,12,-1
 666 717 l 1,13,-1
 688 829 l 1,14,15
 630 764 630 764 553.5 731 c 128,-1,16
 477 698 477 698 381 698 c 0,17,18
 274 698 274 698 208.5 759 c 128,-1,19
 143 820 143 820 143 920 c 0,20,21
 143 1060 143 1060 258.5 1139.5 c 128,-1,22
 374 1219 374 1219 582 1219 c 2,23,-1
 764 1219 l 1,24,-1
 764 1223 l 1,25,26
 766 1242 766 1242 767 1252.5 c 128,-1,27
 768 1263 768 1263 768 1270 c 0,28,29
 768 1340 768 1340 721.5 1372.5 c 128,-1,30
 675 1405 675 1405 575 1405 c 0,31,32
 505 1405 505 1405 432.5 1388 c 128,-1,33
 360 1371 360 1371 287 1337 c 1,34,-1
 311 1464 l 1,35,36
 390 1492 390 1492 466 1506 c 128,-1,37
 542 1520 542 1520 610 1520 c 0,38,39
 760 1520 760 1520 836.5 1458 c 128,-1,40
 913 1396 913 1396 913 1276 c 0,41,42
 913 1249 913 1249 910.5 1221.5 c 128,-1,43
 908 1194 908 1194 903 1165 c 1,11,-1
104 592 m 1,44,-1
 793 592 l 1,45,-1
 770 469 l 1,46,-1
 82 469 l 1,47,-1
 104 592 l 1,44,-1
EndSplineSet
EndChar
StartChar: guillemotleft
Encoding: 171 171 169
Width: 1264
Flags: W
Fore
692 1059 m 1,0,-1
 653 858 l 1,1,-1
 299 588 l 1,2,-1
 551 322 l 1,3,-1
 514 141 l 1,4,-1
 127 559 l 1,5,-1
 143 641 l 1,6,-1
 692 1059 l 1,0,-1
1137 1059 m 1,7,-1
 1098 858 l 1,8,-1
 743 588 l 1,9,-1
 995 322 l 1,10,-1
 958 141 l 1,11,-1
 571 559 l 1,12,-1
 588 641 l 1,13,-1
 1137 1059 l 1,7,-1
EndSplineSet
EndChar
StartChar: logicalnot
Encoding: 172 172 164
Width: 1716
Flags: W
Fore
217 862 m 1,0,-1
 1499 862 l 1,1,-1
 1499 287 l 1,2,-1
 1331 287 l 1,3,-1
 1331 692 l 1,4,-1
 217 692 l 1,5,-1
 217 862 l 1,0,-1
EndSplineSet
EndChar
StartChar: sfthyphen
Encoding: 173 173 256
Width: 739
Flags: W
Fore
125 643 m 1,0,-1
 664 643 l 1,1,-1
 633 479 l 1,2,-1
 92 479 l 1,3,-1
 125 643 l 1,0,-1
EndSplineSet
EndChar
StartChar: registered
Encoding: 174 174 138
Width: 2048
Flags: W
Fore
1024 1382 m 0,0,1
 893 1382 893 1382 780 1335 c 128,-1,2
 667 1288 667 1288 573 1194 c 0,3,4
 479 1100 479 1100 431 985.5 c 128,-1,5
 383 871 383 871 383 741 c 0,6,7
 383 612 383 612 431 498.5 c 128,-1,8
 479 385 479 385 573 291 c 0,9,10
 667 197 667 197 780 149.5 c 128,-1,11
 893 102 893 102 1024 102 c 0,12,13
 1156 102 1156 102 1269.5 149.5 c 128,-1,14
 1383 197 1383 197 1477 291 c 0,15,16
 1570 384 1570 384 1616.5 497 c 128,-1,17
 1663 610 1663 610 1663 741 c 0,18,19
 1663 874 1663 874 1616 987.5 c 128,-1,20
 1569 1101 1569 1101 1477 1194 c 0,21,22
 1383 1288 1383 1288 1269.5 1335 c 128,-1,23
 1156 1382 1156 1382 1024 1382 c 0,0,1
1024 1485 m 0,24,25
 1176 1485 1176 1485 1307.5 1430 c 128,-1,26
 1439 1375 1439 1375 1548 1266 c 0,27,28
 1657 1157 1657 1157 1711 1026 c 128,-1,29
 1765 895 1765 895 1765 741 c 0,30,31
 1765 589 1765 589 1711 458.5 c 128,-1,32
 1657 328 1657 328 1548 219 c 0,33,34
 1439 110 1439 110 1307.5 55 c 128,-1,35
 1176 0 1176 0 1024 0 c 0,36,37
 872 0 872 0 740.5 55 c 128,-1,38
 609 110 609 110 500 219 c 0,39,40
 391 328 391 328 337 458.5 c 128,-1,41
 283 589 283 589 283 741 c 0,42,43
 283 895 283 895 337 1026 c 128,-1,44
 391 1157 391 1157 500 1266 c 0,45,46
 609 1375 609 1375 740.5 1430 c 128,-1,47
 872 1485 872 1485 1024 1485 c 0,24,25
997 1071 m 2,48,-1
 874 1071 l 1,49,-1
 874 795 l 1,50,-1
 997 795 l 2,51,52
 1107 795 1107 795 1150.5 826 c 128,-1,53
 1194 857 1194 857 1194 932 c 0,54,55
 1194 1008 1194 1008 1150 1039.5 c 128,-1,56
 1106 1071 1106 1071 997 1071 c 2,48,-1
1004 1174 m 2,57,58
 1180 1174 1180 1174 1267 1114.5 c 128,-1,59
 1354 1055 1354 1055 1354 934 c 0,60,61
 1354 848 1354 848 1301.5 792 c 128,-1,62
 1249 736 1249 736 1153 719 c 1,63,64
 1177 711 1177 711 1210.5 672.5 c 128,-1,65
 1244 634 1244 634 1290 561 c 1,66,-1
 1427 338 l 1,67,-1
 1255 338 l 1,68,-1
 1126 547 l 2,69,70
 1067 643 1067 643 1030.5 668.5 c 128,-1,71
 994 694 994 694 940 694 c 2,72,-1
 874 694 l 1,73,-1
 874 338 l 1,74,-1
 719 338 l 1,75,-1
 719 1174 l 1,76,-1
 1004 1174 l 2,57,58
EndSplineSet
EndChar
StartChar: macron
Encoding: 175 175 217
Width: 1024
Flags: W
Fore
410 1526 m 1,0,-1
 1008 1526 l 1,1,-1
 979 1378 l 1,2,-1
 381 1378 l 1,3,-1
 410 1526 l 1,0,-1
EndSplineSet
Ligature: 0 1 'liga' space uni0304
EndChar
StartChar: degree
Encoding: 176 176 131
Width: 1024
Flags: W
Fore
512 1391 m 0,0,1
 432 1391 432 1391 377 1335.5 c 128,-1,2
 322 1280 322 1280 322 1200 c 0,3,4
 322 1121 322 1121 377 1066.5 c 128,-1,5
 432 1012 432 1012 512 1012 c 0,6,7
 592 1012 592 1012 647 1066.5 c 128,-1,8
 702 1121 702 1121 702 1200 c 0,9,10
 702 1279 702 1279 646.5 1335 c 128,-1,11
 591 1391 591 1391 512 1391 c 0,0,1
512 1520 m 0,12,13
 576 1520 576 1520 635 1495.5 c 128,-1,14
 694 1471 694 1471 737 1425 c 1,15,16
 783 1380 783 1380 806 1323 c 128,-1,17
 829 1266 829 1266 829 1200 c 0,18,19
 829 1068 829 1068 736.5 976.5 c 128,-1,20
 644 885 644 885 510 885 c 0,21,22
 375 885 375 885 285 975 c 128,-1,23
 195 1065 195 1065 195 1200 c 0,24,25
 195 1334 195 1334 287 1427 c 128,-1,26
 379 1520 379 1520 512 1520 c 0,12,13
EndSplineSet
EndChar
StartChar: plusminus
Encoding: 177 177 147
Width: 1716
Flags: W
Fore
942 1284 m 1,0,-1
 942 897 l 1,1,-1
 1499 897 l 1,2,-1
 1499 727 l 1,3,-1
 942 727 l 1,4,-1
 942 340 l 1,5,-1
 774 340 l 1,6,-1
 774 727 l 1,7,-1
 217 727 l 1,8,-1
 217 897 l 1,9,-1
 774 897 l 1,10,-1
 774 1284 l 1,11,-1
 942 1284 l 1,0,-1
217 170 m 1,12,-1
 1499 170 l 1,13,-1
 1499 0 l 1,14,-1
 217 0 l 1,15,-1
 217 170 l 1,12,-1
EndSplineSet
EndChar
StartChar: twosuperior
Encoding: 178 178 241
Width: 821
Flags: W
Fore
659 1090 m 2,0,-1
 274 782 l 1,1,-1
 715 782 l 1,2,-1
 692 668 l 1,3,-1
 74 668 l 1,4,-1
 96 778 l 1,5,-1
 518 1118 l 1,6,7
 577 1164 577 1164 606 1207 c 128,-1,8
 635 1250 635 1250 635 1290 c 0,9,10
 635 1344 635 1344 593 1377.5 c 128,-1,11
 551 1411 551 1411 481 1411 c 0,12,13
 426 1411 426 1411 360 1394 c 128,-1,14
 294 1377 294 1377 211 1341 c 1,15,-1
 236 1464 l 1,16,17
 312 1492 312 1492 380 1506 c 128,-1,18
 448 1520 448 1520 512 1520 c 0,19,20
 635 1520 635 1520 711.5 1463 c 128,-1,21
 788 1406 788 1406 788 1317 c 0,22,23
 788 1255 788 1255 756 1198.5 c 128,-1,24
 724 1142 724 1142 659 1090 c 2,0,-1
EndSplineSet
EndChar
StartChar: threesuperior
Encoding: 179 179 242
Width: 821
Flags: W
Fore
215 1485 m 1,0,1
 298 1503 298 1503 361 1511.5 c 128,-1,2
 424 1520 424 1520 479 1520 c 0,3,4
 604 1520 604 1520 679 1467.5 c 128,-1,5
 754 1415 754 1415 754 1329 c 0,6,7
 754 1252 754 1252 697 1195 c 128,-1,8
 640 1138 640 1138 543 1120 c 1,9,10
 618 1104 618 1104 658 1057 c 128,-1,11
 698 1010 698 1010 698 938 c 0,12,13
 698 811 698 811 586.5 732 c 128,-1,14
 475 653 475 653 291 653 c 0,15,16
 227 653 227 653 162 663.5 c 128,-1,17
 97 674 97 674 33 694 c 1,18,-1
 57 815 l 1,19,20
 110 788 110 788 166 775 c 128,-1,21
 222 762 222 762 285 762 c 0,22,23
 408 762 408 762 477.5 808 c 128,-1,24
 547 854 547 854 547 936 c 0,25,26
 547 998 547 998 498.5 1029.5 c 128,-1,27
 450 1061 450 1061 352 1061 c 2,28,-1
 266 1061 l 1,29,-1
 289 1169 l 1,30,-1
 381 1169 l 2,31,32
 483 1169 483 1169 540.5 1205 c 128,-1,33
 598 1241 598 1241 598 1305 c 0,34,35
 598 1358 598 1358 557 1384.5 c 128,-1,36
 516 1411 516 1411 434 1411 c 0,37,38
 378 1411 378 1411 316 1400.5 c 128,-1,39
 254 1390 254 1390 193 1370 c 1,40,-1
 215 1485 l 1,0,1
EndSplineSet
EndChar
StartChar: acute
Encoding: 180 180 141
Width: 1024
Flags: W
Fore
870 1638 m 1,0,-1
 1069 1638 l 1,1,-1
 670 1262 l 1,2,-1
 516 1262 l 1,3,-1
 870 1638 l 1,0,-1
EndSplineSet
LCarets: 0 65535 '    ' 1 0 
Ligature: 0 1 'liga' space acutecomb
EndChar
StartChar: mu
Encoding: 181 181 151
Width: 1303
Flags: W
Fore
-27 -426 m 1,0,-1
 274 1120 l 1,1,-1
 459 1120 l 1,2,-1
 323 423 l 2,3,4
 319 402 319 402 316 376 c 128,-1,5
 313 350 313 350 313 324 c 0,6,7
 313 231 313 231 371.5 181 c 128,-1,8
 430 131 430 131 539 131 c 0,9,10
 687 131 687 131 778 215 c 128,-1,11
 869 299 869 299 901 467 c 1,12,-1
 1028 1120 l 1,13,-1
 1212 1120 l 1,14,-1
 1045 259 l 1,15,16
 1041 240 1041 240 1039.5 226 c 128,-1,17
 1038 212 1038 212 1038 201 c 0,18,19
 1038 170 1038 170 1050.5 155.5 c 128,-1,20
 1063 141 1063 141 1090 141 c 0,21,22
 1100 141 1100 141 1117.5 146 c 128,-1,23
 1135 151 1135 151 1167 164 c 1,24,-1
 1139 16 l 1,25,26
 1095 -6 1095 -6 1055 -17.5 c 128,-1,27
 1015 -29 1015 -29 977 -29 c 0,28,29
 911 -29 911 -29 873.5 13 c 128,-1,30
 836 55 836 55 836 129 c 1,31,32
 780 49 780 49 702.5 10 c 128,-1,33
 625 -29 625 -29 520 -29 c 0,34,35
 427 -29 427 -29 357.5 14 c 128,-1,36
 288 57 288 57 266 127 c 1,37,-1
 158 -426 l 1,38,-1
 -27 -426 l 1,0,-1
EndSplineSet
EndChar
StartChar: paragraph
Encoding: 182 182 136
Width: 1303
Flags: W
Fore
768 1493 m 2,0,-1
 1174 1493 l 1,1,-1
 846 -197 l 1,2,-1
 707 -197 l 1,3,-1
 1012 1370 l 1,4,-1
 821 1370 l 1,5,-1
 516 -197 l 1,6,-1
 375 -197 l 1,7,-1
 539 649 l 1,8,9
 361 655 361 655 260.5 749 c 128,-1,10
 160 843 160 843 160 1001 c 0,11,12
 160 1212 160 1212 332 1352.5 c 128,-1,13
 504 1493 504 1493 768 1493 c 2,0,-1
EndSplineSet
EndChar
StartChar: periodcentered
Encoding: 183 183 195
Width: 651
Flags: W
Fore
283 838 m 1,0,-1
 494 838 l 1,1,-1
 444 584 l 1,2,-1
 233 584 l 1,3,-1
 283 838 l 1,0,-1
EndSplineSet
EndChar
StartChar: cedilla
Encoding: 184 184 221
Width: 1024
Flags: W
Fore
477 0 m 1,0,1
 513 -51 513 -51 530 -94.5 c 128,-1,2
 547 -138 547 -138 547 -180 c 0,3,4
 547 -280 547 -280 473.5 -337.5 c 128,-1,5
 400 -395 400 -395 272 -395 c 0,6,7
 229 -395 229 -395 186 -389 c 128,-1,8
 143 -383 143 -383 100 -371 c 1,9,-1
 123 -240 l 1,10,11
 162 -256 162 -256 201.5 -264 c 128,-1,12
 241 -272 241 -272 283 -272 c 0,13,14
 343 -272 343 -272 378.5 -241.5 c 128,-1,15
 414 -211 414 -211 414 -158 c 0,16,17
 414 -129 414 -129 401.5 -93 c 128,-1,18
 389 -57 389 -57 358 0 c 1,19,-1
 477 0 l 1,0,1
EndSplineSet
Ligature: 0 1 'liga' space uni0327
EndChar
StartChar: onesuperior
Encoding: 185 185 240
Width: 821
Flags: W
Fore
156 778 m 1,0,-1
 360 778 l 1,1,-1
 479 1389 l 1,2,-1
 250 1348 l 1,3,-1
 272 1464 l 1,4,-1
 502 1503 l 1,5,-1
 647 1503 l 1,6,-1
 506 778 l 1,7,-1
 711 778 l 1,8,-1
 688 668 l 1,9,-1
 135 668 l 1,10,-1
 156 778 l 1,0,-1
EndSplineSet
EndChar
StartChar: ordmasculine
Encoding: 186 186 158
Width: 965
Flags: W
Fore
788 1180 m 0,0,1
 788 1290 788 1290 738.5 1347.5 c 128,-1,2
 689 1405 689 1405 592 1405 c 0,3,4
 476 1405 476 1405 391.5 1298 c 128,-1,5
 307 1191 307 1191 307 1040 c 0,6,7
 307 931 307 931 356.5 872 c 128,-1,8
 406 813 406 813 498 813 c 0,9,10
 620 813 620 813 704 918.5 c 128,-1,11
 788 1024 788 1024 788 1180 c 0,0,1
621 1520 m 0,12,13
 769 1520 769 1520 857.5 1434 c 128,-1,14
 946 1348 946 1348 946 1204 c 0,15,16
 946 984 946 984 813 841 c 128,-1,17
 680 698 680 698 477 698 c 0,18,19
 327 698 327 698 239.5 788 c 128,-1,20
 152 878 152 878 152 1032 c 0,21,22
 152 1100 152 1100 171 1166.5 c 128,-1,23
 190 1233 190 1233 227 1296 c 0,24,25
 289 1402 289 1402 393 1461 c 128,-1,26
 497 1520 497 1520 621 1520 c 0,12,13
104 592 m 1,27,-1
 793 592 l 1,28,-1
 770 469 l 1,29,-1
 82 469 l 1,30,-1
 104 592 l 1,27,-1
EndSplineSet
EndChar
StartChar: guillemotright
Encoding: 187 187 170
Width: 1264
Flags: W
Fore
569 141 m 1,0,-1
 608 342 l 1,1,-1
 963 612 l 1,2,-1
 711 879 l 1,3,-1
 750 1059 l 1,4,-1
 1135 641 l 1,5,-1
 1120 559 l 1,6,-1
 569 141 l 1,0,-1
127 141 m 1,7,-1
 166 342 l 1,8,-1
 518 612 l 1,9,-1
 268 879 l 1,10,-1
 305 1059 l 1,11,-1
 690 641 l 1,12,-1
 676 559 l 1,13,-1
 127 141 l 1,7,-1
EndSplineSet
EndChar
StartChar: questiondown
Encoding: 191 191 162
Width: 1087
Flags: W
Fore
612 1239 m 1,0,-1
 662 1493 l 1,1,-1
 864 1493 l 1,2,-1
 815 1239 l 1,3,-1
 612 1239 l 1,0,-1
834 86 m 1,4,5
 731 29 731 29 630 1 c 128,-1,6
 529 -27 529 -27 422 -27 c 0,7,8
 261 -27 261 -27 168.5 48 c 128,-1,9
 76 123 76 123 76 252 c 0,10,11
 76 355 76 355 129.5 445 c 128,-1,12
 183 535 183 535 303 633 c 2,13,-1
 406 717 l 2,14,15
 491 785 491 785 519.5 832 c 128,-1,16
 548 879 548 879 565 969 c 1,17,-1
 590 1092 l 1,18,-1
 780 1092 l 1,19,-1
 750 938 l 1,20,21
 731 844 731 844 692 778.5 c 128,-1,22
 653 713 653 713 543 621 c 2,23,-1
 436 532 l 2,24,25
 352 462 352 462 318.5 409 c 128,-1,26
 285 356 285 356 285 299 c 0,27,28
 285 223 285 223 339.5 180 c 128,-1,29
 394 137 394 137 489 137 c 0,30,31
 570 137 570 137 668 172.5 c 128,-1,32
 766 208 766 208 870 274 c 1,33,-1
 834 86 l 1,4,5
EndSplineSet
EndChar
StartChar: Aring
Encoding: 197 197 99
Width: 1401
Flags: W
Fore
1020 1626 m 0,0,1
 1020 1689 1020 1689 975.5 1733.5 c 128,-1,2
 931 1778 931 1778 868 1778 c 0,3,4
 804 1778 804 1778 760.5 1734.5 c 128,-1,5
 717 1691 717 1691 717 1626 c 0,6,7
 717 1563 717 1563 760.5 1519 c 128,-1,8
 804 1475 804 1475 868 1475 c 0,9,10
 931 1475 931 1475 975.5 1519 c 128,-1,11
 1020 1563 1020 1563 1020 1626 c 0,0,1
705 1407 m 1,12,13
 651 1444 651 1444 622.5 1500.5 c 128,-1,14
 594 1557 594 1557 594 1626 c 0,15,16
 594 1740 594 1740 674 1820.5 c 128,-1,17
 754 1901 754 1901 868 1901 c 0,18,19
 982 1901 982 1901 1062.5 1820.5 c 128,-1,20
 1143 1740 1143 1740 1143 1626 c 0,21,22
 1143 1547 1143 1547 1106.5 1486 c 128,-1,23
 1070 1425 1070 1425 1001 1389 c 1,24,-1
 1260 0 l 1,25,-1
 1049 0 l 1,26,-1
 987 383 l 1,27,-1
 315 383 l 1,28,-1
 104 0 l 1,29,-1
 -109 0 l 1,30,-1
 705 1407 l 1,12,13
827 1294 m 1,31,-1
 408 551 l 1,32,-1
 956 551 l 1,33,-1
 827 1294 l 1,31,-1
EndSplineSet
Ligature: 0 0 'liga' A uni030A
EndChar
StartChar: AE
Encoding: 198 198 144
Width: 1995
Flags: W
Fore
932 1335 m 1,0,-1
 449 551 l 1,1,-1
 907 551 l 1,2,-1
 1061 1335 l 1,3,-1
 932 1335 l 1,0,-1
2036 1493 m 1,4,-1
 2003 1323 l 1,5,-1
 1262 1323 l 1,6,-1
 1174 881 l 1,7,-1
 1886 881 l 1,8,-1
 1853 711 l 1,9,-1
 1141 711 l 1,10,-1
 1036 170 l 1,11,-1
 1796 170 l 1,12,-1
 1763 0 l 1,13,-1
 801 0 l 1,14,-1
 874 383 l 1,15,-1
 348 383 l 1,16,-1
 113 0 l 1,17,-1
 -92 0 l 1,18,-1
 823 1493 l 1,19,-1
 2036 1493 l 1,4,-1
EndSplineSet
KernsSLIF: 45 -36 0 0
EndChar
StartChar: Eth
Encoding: 208 208 232
Width: 1587
Flags: W
Fore
356 1493 m 1,0,-1
 791 1493 l 2,1,2
 1136 1493 1136 1493 1312.5 1346.5 c 128,-1,3
 1489 1200 1489 1200 1489 911 c 0,4,5
 1489 721 1489 721 1421.5 544.5 c 128,-1,6
 1354 368 1354 368 1235 246 c 0,7,8
 1116 122 1116 122 934 61 c 128,-1,9
 752 0 752 0 502 0 c 2,10,-1
 66 0 l 1,11,-1
 201 700 l 1,12,-1
 0 700 l 1,13,-1
 29 844 l 1,14,-1
 229 844 l 1,15,-1
 356 1493 l 1,0,-1
526 1327 m 1,16,-1
 432 844 l 1,17,-1
 768 844 l 1,18,-1
 739 700 l 1,19,-1
 403 700 l 1,20,-1
 301 166 l 1,21,-1
 565 166 l 2,22,23
 905 166 905 166 1090.5 361 c 128,-1,24
 1276 556 1276 556 1276 911 c 0,25,26
 1276 1126 1276 1126 1156 1226.5 c 128,-1,27
 1036 1327 1036 1327 780 1327 c 2,28,-1
 526 1327 l 1,16,-1
EndSplineSet
KernsSLIF: 45 38 0 0
EndChar
StartChar: multiply
Encoding: 215 215 239
Width: 1716
Flags: W
Fore
1436 1100 m 1,0,-1
 979 641 l 1,1,-1
 1436 184 l 1,2,-1
 1317 63 l 1,3,-1
 858 522 l 1,4,-1
 399 63 l 1,5,-1
 281 184 l 1,6,-1
 737 641 l 1,7,-1
 281 1100 l 1,8,-1
 399 1221 l 1,9,-1
 858 762 l 1,10,-1
 1317 1221 l 1,11,-1
 1436 1100 l 1,0,-1
EndSplineSet
EndChar
StartChar: Oslash
Encoding: 216 216 145
Width: 1612
Flags: W
Fore
1223 1235 m 1,0,1
 1178 1295 1178 1295 1105 1325.5 c 128,-1,2
 1032 1356 1032 1356 934 1356 c 0,3,4
 769 1356 769 1356 641.5 1275 c 128,-1,5
 514 1194 514 1194 422 1032 c 0,6,7
 360 923 360 923 327.5 804 c 128,-1,8
 295 685 295 685 295 571 c 0,9,10
 295 526 295 526 301 482.5 c 128,-1,11
 307 439 307 439 319 395 c 1,12,-1
 1223 1235 l 1,0,1
1288 1116 m 1,13,-1
 381 270 l 1,14,15
 432 202 432 202 505.5 168.5 c 128,-1,16
 579 135 579 135 678 135 c 0,17,18
 842 135 842 135 970.5 216.5 c 128,-1,19
 1099 298 1099 298 1190 459 c 0,20,21
 1252 571 1252 571 1283.5 688.5 c 128,-1,22
 1315 806 1315 806 1315 928 c 0,23,24
 1315 984 1315 984 1308.5 1030.5 c 128,-1,25
 1302 1077 1302 1077 1288 1116 c 1,13,-1
160 246 m 1,26,27
 121 326 121 326 101.5 408 c 128,-1,28
 82 490 82 490 82 575 c 0,29,30
 82 741 82 741 143 909 c 128,-1,31
 204 1077 204 1077 313 1212 c 0,32,33
 438 1366 438 1366 594.5 1443 c 128,-1,34
 751 1520 751 1520 940 1520 c 0,35,36
 1070 1520 1070 1520 1175 1481.5 c 128,-1,37
 1280 1443 1280 1443 1364 1366 c 1,38,-1
 1567 1559 l 1,39,-1
 1657 1460 l 1,40,-1
 1448 1262 l 1,41,42
 1488 1189 1488 1189 1508 1104.5 c 128,-1,43
 1528 1020 1528 1020 1528 922 c 0,44,45
 1528 745 1528 745 1469 579.5 c 128,-1,46
 1410 414 1410 414 1298 279 c 0,47,48
 1170 123 1170 123 1015.5 47 c 128,-1,49
 861 -29 861 -29 672 -29 c 0,50,51
 533 -29 533 -29 424.5 13 c 128,-1,52
 316 55 316 55 240 137 c 1,53,-1
 20 -66 l 1,54,-1
 -70 33 l 1,55,-1
 160 246 l 1,26,27
EndSplineSet
KernsSLIF: 88 -36 0 0 59 38 0 0 58 38 0 0 46 -83 0 0 45 38 0 0 44 -83 0 0
EndChar
StartChar: Thorn
Encoding: 222 222 236
Width: 1245
Flags: W
Fore
580 338 m 2,0,-1
 324 338 l 1,1,-1
 258 0 l 1,2,-1
 55 0 l 1,3,-1
 346 1493 l 1,4,-1
 549 1493 l 1,5,-1
 498 1229 l 1,6,-1
 764 1229 l 2,7,8
 968 1229 968 1229 1075 1134 c 128,-1,9
 1182 1039 1182 1039 1182 856 c 0,10,11
 1182 610 1182 610 1024 474 c 128,-1,12
 866 338 866 338 580 338 c 2,0,-1
467 1063 m 1,13,-1
 358 504 l 1,14,-1
 612 504 l 2,15,16
 784 504 784 504 876.5 591.5 c 128,-1,17
 969 679 969 679 969 844 c 0,18,19
 969 948 969 948 907 1005.5 c 128,-1,20
 845 1063 845 1063 731 1063 c 2,21,-1
 467 1063 l 1,13,-1
EndSplineSet
KernsSLIF: 46 -149 0 0 45 75 0 0 44 -149 0 0
EndChar
StartChar: germandbls
Encoding: 223 223 137
Width: 1290
Flags: W
Fore
317 1137 m 1,0,1
 355 1334 355 1334 487.5 1445 c 128,-1,2
 620 1556 620 1556 817 1556 c 0,3,4
 991 1556 991 1556 1099.5 1463 c 128,-1,5
 1208 1370 1208 1370 1208 1223 c 0,6,7
 1208 1198 1208 1198 1205 1167.5 c 128,-1,8
 1202 1137 1202 1137 1196 1100 c 1,9,10
 1034 1092 1034 1092 934 1024.5 c 128,-1,11
 834 957 834 957 834 860 c 0,12,13
 834 820 834 820 855 784 c 128,-1,14
 876 748 876 748 924 711 c 2,15,-1
 973 672 l 2,16,17
 1092 578 1092 578 1133 512.5 c 128,-1,18
 1174 447 1174 447 1174 367 c 0,19,20
 1174 195 1174 195 1035 83 c 128,-1,21
 896 -29 896 -29 678 -29 c 0,22,23
 602 -29 602 -29 532 -16.5 c 128,-1,24
 462 -4 462 -4 399 20 c 1,25,-1
 430 184 l 1,26,27
 495 155 495 155 564.5 140 c 128,-1,28
 634 125 634 125 705 125 c 0,29,30
 829 125 829 125 906 182 c 128,-1,31
 983 239 983 239 983 330 c 0,32,33
 983 375 983 375 959.5 414 c 128,-1,34
 936 453 936 453 858 520 c 2,35,-1
 807 563 l 2,36,37
 710 645 710 645 676.5 700.5 c 128,-1,38
 643 756 643 756 643 823 c 0,39,40
 643 949 643 949 749 1050 c 128,-1,41
 855 1151 855 1151 1028 1188 c 1,42,43
 1030 1196 1030 1196 1031 1206 c 128,-1,44
 1032 1216 1032 1216 1032 1235 c 0,45,46
 1032 1313 1032 1313 975.5 1358 c 128,-1,47
 919 1403 919 1403 819 1403 c 0,48,49
 686 1403 686 1403 606 1335 c 128,-1,50
 526 1267 526 1267 500 1133 c 2,51,-1
 281 0 l 1,52,-1
 96 0 l 1,53,-1
 317 1137 l 1,0,1
EndSplineSet
EndChar
StartChar: ae
Encoding: 230 230 160
Width: 2038
Flags: W
Fore
1763 660 m 1,0,1
 1766 676 1766 676 1767.5 693 c 128,-1,2
 1769 710 1769 710 1769 727 c 0,3,4
 1769 849 1769 849 1698 920 c 128,-1,5
 1627 991 1627 991 1503 991 c 0,6,7
 1366 991 1366 991 1261 904.5 c 128,-1,8
 1156 818 1156 818 1102 659 c 1,9,-1
 1763 660 l 1,0,1
319 1069 m 1,10,11
 423 1108 423 1108 522.5 1127.5 c 128,-1,12
 622 1147 622 1147 715 1147 c 0,13,14
 859 1147 859 1147 952 1102 c 128,-1,15
 1045 1057 1045 1057 1090 965 c 1,16,17
 1176 1055 1176 1055 1288 1101 c 128,-1,18
 1400 1147 1400 1147 1532 1147 c 0,19,20
 1722 1147 1722 1147 1835 1033 c 128,-1,21
 1948 919 1948 919 1948 727 c 0,22,23
 1948 681 1948 681 1941.5 628.5 c 128,-1,24
 1935 576 1935 576 1923 516 c 1,25,-1
 1067 516 l 1,26,27
 1061 478 1061 478 1059 456 c 128,-1,28
 1057 434 1057 434 1057 418 c 0,29,30
 1057 279 1057 279 1142.5 203 c 128,-1,31
 1228 127 1228 127 1384 127 c 0,32,33
 1504 127 1504 127 1611.5 154 c 128,-1,34
 1719 181 1719 181 1810 233 c 1,35,-1
 1776 51 l 1,36,37
 1676 11 1676 11 1570.5 -9 c 128,-1,38
 1465 -29 1465 -29 1356 -29 c 0,39,40
 1188 -29 1188 -29 1074.5 28.5 c 128,-1,41
 961 86 961 86 905 199 c 1,42,43
 803 81 803 81 693 26 c 128,-1,44
 583 -29 583 -29 451 -29 c 0,45,46
 277 -29 277 -29 180.5 53 c 128,-1,47
 84 135 84 135 84 283 c 0,48,49
 84 479 84 479 240.5 593 c 128,-1,50
 397 707 397 707 672 707 c 2,51,-1
 928 707 l 1,52,-1
 938 756 l 1,53,54
 940 764 940 764 941 773.5 c 128,-1,55
 942 783 942 783 942 803 c 0,56,57
 942 892 942 892 869.5 941.5 c 128,-1,58
 797 991 797 991 666 991 c 0,59,60
 576 991 576 991 481.5 968 c 128,-1,61
 387 945 387 945 287 899 c 1,62,-1
 319 1069 l 1,10,11
901 563 m 1,63,-1
 717 563 l 2,64,65
 491 563 491 563 382.5 502.5 c 128,-1,66
 274 442 274 442 274 315 c 0,67,68
 274 227 274 227 329.5 177 c 128,-1,69
 385 127 385 127 483 127 c 0,70,71
 633 127 633 127 745 234.5 c 128,-1,72
 857 342 857 342 893 522 c 2,73,-1
 901 563 l 1,63,-1
EndSplineSet
EndChar
StartChar: eth
Encoding: 240 240 233
Width: 1253
Flags: W
Fore
1016 1141 m 1,0,1
 1084 1039 1084 1039 1118.5 928.5 c 128,-1,2
 1153 818 1153 818 1153 700 c 0,3,4
 1153 564 1153 564 1113.5 437.5 c 128,-1,5
 1074 311 1074 311 999 211 c 1,6,7
 915 95 915 95 792.5 33 c 128,-1,8
 670 -29 670 -29 526 -29 c 0,9,10
 328 -29 328 -29 210 88.5 c 128,-1,11
 92 206 92 206 92 401 c 0,12,13
 92 521 92 521 133 639 c 128,-1,14
 174 757 174 757 250 858 c 0,15,16
 338 974 338 974 459 1036 c 128,-1,17
 580 1098 580 1098 719 1098 c 0,18,19
 739 1098 739 1098 768 1095.5 c 128,-1,20
 797 1093 797 1093 837 1088 c 1,21,-1
 713 1268 l 1,22,-1
 362 1161 l 1,23,-1
 330 1255 l 1,24,-1
 657 1352 l 1,25,-1
 518 1556 l 1,26,-1
 735 1556 l 1,27,-1
 831 1411 l 1,28,-1
 1167 1520 l 1,29,-1
 1202 1425 l 1,30,-1
 889 1327 l 1,31,-1
 1016 1141 l 1,0,1
913 915 m 1,32,33
 870 932 870 932 826.5 940 c 128,-1,34
 783 948 783 948 739 948 c 0,35,36
 537 948 537 948 410 797.5 c 128,-1,37
 283 647 283 647 283 408 c 0,38,39
 283 270 283 270 348.5 198.5 c 128,-1,40
 414 127 414 127 541 127 c 0,41,42
 723 127 723 127 845 288.5 c 128,-1,43
 967 450 967 450 967 694 c 0,44,45
 967 762 967 762 954 816 c 128,-1,46
 941 870 941 870 913 915 c 1,32,33
EndSplineSet
EndChar
StartChar: divide
Encoding: 247 247 184
Width: 1716
Flags: W
Fore
735 1135 m 1,0,-1
 981 1135 l 1,1,-1
 981 889 l 1,2,-1
 735 889 l 1,3,-1
 735 1135 l 1,0,-1
735 395 m 1,4,-1
 981 395 l 1,5,-1
 981 150 l 1,6,-1
 735 150 l 1,7,-1
 735 395 l 1,4,-1
217 727 m 1,8,-1
 1499 727 l 1,9,-1
 1499 557 l 1,10,-1
 217 557 l 1,11,-1
 217 727 l 1,8,-1
EndSplineSet
EndChar
StartChar: oslash
Encoding: 248 248 161
Width: 1253
Flags: W
Fore
901 922 m 1,0,1
 864 957 864 957 817.5 974 c 128,-1,2
 771 991 771 991 713 991 c 0,3,4
 527 991 527 991 407 830.5 c 128,-1,5
 287 670 287 670 287 420 c 0,6,7
 287 373 287 373 288.5 352.5 c 128,-1,8
 290 332 290 332 295 315 c 1,9,-1
 901 922 l 1,0,1
154 172 m 1,10,11
 124 221 124 221 109 284 c 128,-1,12
 94 347 94 347 94 422 c 0,13,14
 94 544 94 544 133.5 671.5 c 128,-1,15
 173 799 173 799 236 885 c 0,16,17
 334 1019 334 1019 455.5 1083 c 128,-1,18
 577 1147 577 1147 733 1147 c 0,19,20
 820 1147 820 1147 894 1121 c 128,-1,21
 968 1095 968 1095 1026 1044 c 1,22,-1
 1188 1208 l 1,23,-1
 1274 1122 l 1,24,-1
 1102 950 l 1,25,26
 1130 895 1130 895 1144.5 832.5 c 128,-1,27
 1159 770 1159 770 1159 702 c 0,28,29
 1159 578 1159 578 1119.5 448.5 c 128,-1,30
 1080 319 1080 319 1018 233 c 0,31,32
 921 99 921 99 799.5 35 c 128,-1,33
 678 -29 678 -29 520 -29 c 0,34,35
 433 -29 433 -29 359.5 -2.5 c 128,-1,36
 286 24 286 24 229 76 c 1,37,-1
 57 -94 l 1,38,-1
 -29 -10 l 1,39,-1
 154 172 l 1,10,11
961 809 m 1,40,-1
 352 199 l 1,41,42
 391 162 391 162 436.5 144.5 c 128,-1,43
 482 127 482 127 541 127 c 0,44,45
 730 127 730 127 849.5 290.5 c 128,-1,46
 969 454 969 454 969 717 c 0,47,48
 969 756 969 756 967 775 c 128,-1,49
 965 794 965 794 961 809 c 1,40,-1
EndSplineSet
EndChar
StartChar: thorn
Encoding: 254 254 237
Width: 1300
Flags: W
Fore
1016 690 m 0,0,1
 1016 837 1016 837 952 915 c 128,-1,2
 888 993 888 993 768 993 c 0,3,4
 686 993 686 993 611.5 951 c 128,-1,5
 537 909 537 909 479 829 c 0,6,7
 422 750 422 750 388 638 c 128,-1,8
 354 526 354 526 354 416 c 0,9,10
 354 276 354 276 418 200.5 c 128,-1,11
 482 125 482 125 600 125 c 0,12,13
 687 125 687 125 761.5 166 c 128,-1,14
 836 207 836 207 889 285 c 0,15,16
 946 367 946 367 981 478 c 128,-1,17
 1016 589 1016 589 1016 690 c 0,0,1
446 950 m 1,18,19
 520 1047 520 1047 620.5 1097 c 128,-1,20
 721 1147 721 1147 844 1147 c 0,21,22
 1016 1147 1016 1147 1111 1034.5 c 128,-1,23
 1206 922 1206 922 1206 719 c 0,24,25
 1206 553 1206 553 1147 402.5 c 128,-1,26
 1088 252 1088 252 977 133 c 0,27,28
 903 54 903 54 810 12.5 c 128,-1,29
 717 -29 717 -29 614 -29 c 0,30,31
 495 -29 495 -29 414 20.5 c 128,-1,32
 333 70 333 70 293 168 c 1,33,-1
 178 -426 l 1,34,-1
 -6 -426 l 1,35,-1
 375 1556 l 1,36,-1
 559 1556 l 1,37,-1
 446 950 l 1,18,19
EndSplineSet
EndChar
StartChar: Dcroat
Encoding: 272 272 257
Width: 1587
Flags: HW
Fore
356 1493 m 1,0,-1
 791 1493 l 2,1,2
 1136 1493 1136 1493 1312.5 1346.5 c 128,-1,3
 1489 1200 1489 1200 1489 911 c 0,4,5
 1489 721 1489 721 1421.5 544.5 c 128,-1,6
 1354 368 1354 368 1235 246 c 0,7,8
 1116 122 1116 122 934 61 c 128,-1,9
 752 0 752 0 502 0 c 2,10,-1
 66 0 l 1,11,-1
 201 700 l 1,12,-1
 0 700 l 1,13,-1
 29 844 l 1,14,-1
 229 844 l 1,15,-1
 356 1493 l 1,0,-1
526 1327 m 1,16,-1
 432 844 l 1,17,-1
 768 844 l 1,18,-1
 739 700 l 1,19,-1
 403 700 l 1,20,-1
 301 166 l 1,21,-1
 565 166 l 2,22,23
 905 166 905 166 1090.5 361 c 128,-1,24
 1276 556 1276 556 1276 911 c 0,25,26
 1276 1126 1276 1126 1156 1226.5 c 128,-1,27
 1036 1327 1036 1327 780 1327 c 2,28,-1
 526 1327 l 1,16,-1
EndSplineSet
EndChar
StartChar: dcroat
Encoding: 273 273 255
Width: 1300
Flags: W
Fore
856 168 m 1,0,1
 782 71 782 71 681 21 c 128,-1,2
 580 -29 580 -29 457 -29 c 0,3,4
 289 -29 289 -29 191.5 85.5 c 128,-1,5
 94 200 94 200 94 399 c 0,6,7
 94 565 94 565 153 715.5 c 128,-1,8
 212 866 212 866 324 985 c 0,9,10
 398 1064 398 1064 491 1105.5 c 128,-1,11
 584 1147 584 1147 686 1147 c 0,12,13
 794 1147 794 1147 876.5 1095 c 128,-1,14
 959 1043 959 1043 1004 946 c 1,15,-1
 1071 1284 l 1,16,-1
 745 1284 l 1,17,-1
 772 1407 l 1,18,-1
 1098 1407 l 1,19,-1
 1124 1556 l 1,20,-1
 1309 1556 l 1,21,-1
 1282 1407 l 1,22,-1
 1436 1407 l 1,23,-1
 1409 1284 l 1,24,-1
 1255 1284 l 1,25,-1
 1006 0 l 1,26,-1
 821 0 l 1,27,-1
 856 168 l 1,0,1
285 432 m 0,28,29
 285 287 285 287 350.5 206 c 128,-1,30
 416 125 416 125 532 125 c 0,31,32
 618 125 618 125 691.5 166.5 c 128,-1,33
 765 208 765 208 821 289 c 0,34,35
 880 373 880 373 914 483 c 128,-1,36
 948 593 948 593 948 700 c 0,37,38
 948 839 948 839 882.5 917 c 128,-1,39
 817 995 817 995 702 995 c 0,40,41
 615 995 615 995 540 954 c 128,-1,42
 465 913 465 913 412 836 c 0,43,44
 354 753 354 753 319.5 643 c 128,-1,45
 285 533 285 533 285 432 c 0,28,29
EndSplineSet
EndChar
StartChar: Hbar
Encoding: 294 294 252
Width: 1876
Flags: HW
Fore
514 1493 m 1,0,-1
 716 1493 l 1,1,-1
 673 1269 l 1,0,0
 1407 1269 l 1,0,0
 1450 1493 l 1,4,-1
 1652 1493 l 1,5,-1
 1609 1269 l 1,0,0
 1777 1269 l 1,1,-1
 1745 1105 l 1,2,-1
 1577 1105 l 1,0,0
 1362 0 l 1,6,-1
 1160 0 l 1,7,-1
 1298 711 l 1,8,-1
 564 711 l 1,9,-1
 426 0 l 1,10,-1
 224 0 l 1,11,-1
 439 1105 l 1,0,0
 271 1105 l 1,3,-1
 303 1269 l 1,0,-1
 471 1269 l 1,0,0
 514 1493 l 1,0,-1
641 1105 m 1,0,0
 597 881 l 1,2,-1
 1331 881 l 1,3,-1
 1375 1105 l 1,0,0
 641 1105 l 1,0,0
EndSplineSet
EndChar
StartChar: hbar
Encoding: 295 295 253
Width: 1423
Flags: HW
Fore
1163 676 m 2,0,-1
 1032 0 l 1,1,-1
 848 0 l 1,2,-1
 978 670 l 17,3,4
 990 733 990 733 990 784 c 0,0,0
 990 860.5 990 860.5 962.5 908 c 128,-1,5
 915.5 987 915.5 987 791.5 987 c 0,6,7
 643 987 643 987 538 892 c 128,-1,8
 434 797 434 797 402 633 c 9,9,-1
 279 0 l 1,10,-1
 94 0 l 1,11,-1
 341 1270 l 1,0,0
 216 1270 l 1,3,-1
 248 1434 l 1,0,-1
 373 1434 l 1,0,0
 396 1556 l 1,12,-1
 581 1556 l 1,13,-1
 558 1434 l 1,0,0
 910 1434 l 1,1,-1
 878 1270 l 1,2,-1
 526 1270 l 1,0,0
 463 946 l 1,14,15
 548 1047 548 1047 647.5 1097 c 128,-1,16
 746.5 1147 746.5 1147 863.5 1147 c 0,17,18
 1056.5 1147 1056.5 1147 1132.5 1027.5 c 128,-1,19
 1180 952.5 1180 952.5 1180 833.5 c 0,0,0
 1180 762.5 1180 762.5 1163 676 c 2,0,-1
EndSplineSet
EndChar
StartChar: dotlessi
Encoding: 305 305 214
Width: 569
Flags: W
Fore
291 1120 m 1,0,-1
 475 1120 l 1,1,-1
 256 0 l 1,2,-1
 72 0 l 1,3,-1
 291 1120 l 1,0,-1
EndSplineSet
EndChar
StartChar: kgreenlandic
Encoding: 312 312 217
Width: 1186
Flags: HW
Fore
295 1120 m 1,0,-1
 480 1120 l 1,1,-1
 386 635 l 1,2,-1
 1029 1120 l 1,3,-1
 1264 1120 l 1,4,-1
 568 594 l 1,5,-1
 1071 0 l 1,6,-1
 831 0 l 1,7,-1
 368 545 l 1,8,-1
 262 0 l 1,9,-1
 77 0 l 1,10,-1
 295 1120 l 1,0,-1
EndSplineSet
EndChar
StartChar: Lslash
Encoding: 321 321 225
Width: 1151
Flags: W
Fore
354 1493 m 1,0,-1
 557 1493 l 1,1,-1
 432 860 l 1,2,-1
 784 1016 l 1,3,-1
 840 891 l 1,4,-1
 401 698 l 1,5,-1
 301 168 l 1,6,-1
 1028 168 l 1,7,-1
 995 0 l 1,8,-1
 66 0 l 1,9,-1
 180 600 l 1,10,-1
 16 524 l 1,11,-1
 -41 647 l 1,12,-1
 211 760 l 1,13,-1
 354 1493 l 1,0,-1
EndSplineSet
KernsSLIF: 356 -139 0 0 253 -73 0 0 221 -196 0 0 210 -63 0 0 212 -63 0 0 211 -63 0 0 376 -196 0 0 255 -73 0 0 8217 -368 0 0 8216 -188 0 0 8221 -368 0 0 8220 -188 0 0 338 -63 0 0 213 -63 0 0 216 -63 0 0 214 -63 0 0 121 -73 0 0 89 -196 0 0 87 -83 0 0 86 -149 0 0 84 -139 0 0 79 -63 0 0 45 -159 0 0
EndChar
StartChar: lslash
Encoding: 322 322 226
Width: 588
Flags: W
Fore
389 1556 m 1,0,-1
 573 1556 l 1,1,-1
 457 950 l 1,2,-1
 598 1014 l 1,3,-1
 651 895 l 1,4,-1
 428 793 l 1,5,-1
 270 0 l 1,6,-1
 86 0 l 1,7,-1
 223 700 l 1,8,-1
 88 639 l 1,9,-1
 35 758 l 1,10,-1
 254 856 l 1,11,-1
 389 1556 l 1,0,-1
EndSplineSet
EndChar
StartChar: Eng
Encoding: 330 330 230
Width: 1532
Flags: HW
Fore
368 1493 m 1,0,-1
 552 1493 l 1,1,-1
 1066 344 l 1,2,-1
 1290 1493 l 1,3,-1
 1474 1493 l 1,4,-1
 1179.5 -20 l 18,5,-1
 1137.5 -234 1137.5 -234 1037 -330 c 128,-1,4
 937.5 -426 937.5 -426 756.5 -426 c 2,5,-1
 502.5 -426 l 1,6,-1
 532.5 -270 l 1,7,-1
 765.5 -270 l 2,8,9
 870.5 -270 870.5 -270 918 -222 c 128,-1,10
 971 -157 971 -157 999 0 c 1,6,-1
 485 1149 l 1,7,-1
 261 0 l 1,8,-1
 77 0 l 1,9,-1
 368 1493 l 1,0,-1
EndSplineSet
EndChar
StartChar: eng
Encoding: 331 331 231
Width: 1298
Flags: HW
Fore
1185 676 m 2,0,-1
 1050 -20 l 2,2,3
 1008 -234 1008 -234 908 -330 c 128,-1,4
 808 -426 808 -426 627 -426 c 2,5,-1
 373 -426 l 1,6,-1
 403 -270 l 1,7,-1
 636 -270 l 2,8,9
 741 -270 741 -270 789 -222 c 128,-1,10
 836 -173 836 -173 866 -20 c 2,11,-1
 1000 670 l 2,3,4
 1012 733 1012 733 1012 784 c 0,0,0
 1012 860 1012 860 984 908 c 128,-1,5
 938 987 938 987 814 987 c 0,6,7
 665 987 665 987 560 892 c 128,-1,8
 456 797 456 797 424 633 c 2,9,-1
 301 0 l 1,10,-1
 116 0 l 1,11,-1
 334 1120 l 1,12,-1
 519 1120 l 1,13,-1
 485 946 l 1,14,15
 570 1047 570 1047 670 1097 c 128,-1,16
 769 1147 769 1147 886 1147 c 0,17,18
 1079 1147 1079 1147 1155 1028 c 128,-1,19
 1202 953 1202 953 1202 833 c 0,0,0
 1202 763 1202 763 1185 676 c 2,0,-1
EndSplineSet
EndChar
StartChar: OE
Encoding: 338 338 176
Width: 2191
Flags: W
Fore
1210 1323 m 1,0,-1
 1090 1323 l 2,1,2
 924 1323 924 1323 794.5 1285 c 128,-1,3
 665 1247 665 1247 578 1174 c 0,4,5
 445 1064 445 1064 376 913.5 c 128,-1,6
 307 763 307 763 307 582 c 0,7,8
 307 379 307 379 433.5 274.5 c 128,-1,9
 560 170 560 170 807 170 c 2,10,-1
 856 170 l 1,11,-1
 985 170 l 1,12,-1
 1210 1323 l 1,0,-1
2185 1493 m 1,13,-1
 2152 1323 l 1,14,-1
 1413 1323 l 1,15,-1
 1325 881 l 1,16,-1
 2036 881 l 1,17,-1
 2003 711 l 1,18,-1
 1292 711 l 1,19,-1
 1188 170 l 1,20,-1
 1948 170 l 1,21,-1
 1915 0 l 1,22,-1
 825 0 l 2,23,24
 663 0 663 0 574.5 15.5 c 128,-1,25
 486 31 486 31 408 66 c 0,26,27
 251 136 251 136 172.5 265 c 128,-1,28
 94 394 94 394 94 582 c 0,29,30
 94 791 94 791 186.5 977 c 128,-1,31
 279 1163 279 1163 451 1298 c 0,32,33
 574 1396 574 1396 749 1444.5 c 128,-1,34
 924 1493 924 1493 1149 1493 c 2,35,-1
 2185 1493 l 1,13,-1
EndSplineSet
EndChar
StartChar: oe
Encoding: 339 339 177
Width: 2105
Flags: W
Fore
1991 516 m 1,0,-1
 1135 516 l 1,1,2
 1131 489 1131 489 1128.5 464 c 128,-1,3
 1126 439 1126 439 1126 418 c 0,4,5
 1126 279 1126 279 1211 203 c 128,-1,6
 1296 127 1296 127 1452 127 c 0,7,8
 1572 127 1572 127 1680.5 154 c 128,-1,9
 1789 181 1789 181 1880 233 c 1,10,-1
 1843 51 l 1,11,12
 1744 12 1744 12 1639 -8.5 c 128,-1,13
 1534 -29 1534 -29 1425 -29 c 0,14,15
 1264 -29 1264 -29 1149 26 c 128,-1,16
 1034 81 1034 81 987 180 c 1,17,18
 886 75 886 75 770.5 23 c 128,-1,19
 655 -29 655 -29 520 -29 c 0,20,21
 329 -29 329 -29 211.5 90 c 128,-1,22
 94 209 94 209 94 401 c 0,23,24
 94 538 94 538 132 667.5 c 128,-1,25
 170 797 170 797 236 885 c 0,26,27
 335 1019 335 1019 457 1083 c 128,-1,28
 579 1147 579 1147 733 1147 c 0,29,30
 863 1147 863 1147 962.5 1088.5 c 128,-1,31
 1062 1030 1062 1030 1116 922 c 1,32,33
 1215 1034 1215 1034 1336 1090.5 c 128,-1,34
 1457 1147 1457 1147 1599 1147 c 0,35,36
 1790 1147 1790 1147 1902.5 1033 c 128,-1,37
 2015 919 2015 919 2015 727 c 0,38,39
 2015 681 2015 681 2009 628.5 c 128,-1,40
 2003 576 2003 576 1991 516 c 1,0,-1
1831 660 m 1,41,42
 1834 676 1834 676 1835.5 693 c 128,-1,43
 1837 710 1837 710 1837 727 c 0,44,45
 1837 849 1837 849 1765.5 920 c 128,-1,46
 1694 991 1694 991 1571 991 c 0,47,48
 1433 991 1433 991 1328.5 904.5 c 128,-1,49
 1224 818 1224 818 1169 659 c 1,50,-1
 1831 660 l 1,41,42
285 430 m 0,51,52
 285 278 285 278 348.5 202.5 c 128,-1,53
 412 127 412 127 541 127 c 0,54,55
 726 127 726 127 847.5 287 c 128,-1,56
 969 447 969 447 969 696 c 0,57,58
 969 843 969 843 904.5 917 c 128,-1,59
 840 991 840 991 713 991 c 0,60,61
 609 991 609 991 528 942.5 c 128,-1,62
 447 894 447 894 383 795 c 0,63,64
 336 721 336 721 310.5 626 c 128,-1,65
 285 531 285 531 285 430 c 0,51,52
EndSplineSet
EndChar
StartChar: Tbar
Encoding: 358 358 231
Width: 1251
Flags: HW
TeX: 0 0 0 0
Fore
139 1493 m 1,0,-1
 1402 1493 l 1,1,-1
 1369 1323 l 1,2,-1
 839 1323 l 1,3,-1
 727 747 l 1,4,-1
 992 747 l 1,5,-1
 959 577 l 1,6,-1
 694 577 l 1,7,-1
 582 0 l 1,8,-1
 379 0 l 1,9,-1
 491 577 l 1,10,-1
 222 577 l 1,11,-1
 255 747 l 1,12,-1
 524 747 l 1,13,-1
 636 1323 l 1,14,-1
 106 1323 l 1,15,-1
 139 1493 l 1,0,-1
EndSplineSet
EndChar
StartChar: tbar
Encoding: 359 359 232
Width: 803
Flags: HW
TeX: 0 0 0 0
Fore
515 1438 m 1,0,-1
 453 1120 l 1,1,-1
 832 1120 l 1,2,-1
 804 977 l 1,3,-1
 425 977 l 1,4,-1
 380 744 l 1,0,0
 570 744 l 1,0,0
 542 602 l 1,0,0
 352 602 l 1,0,0
 307 369 l 2,5,6
 294 304 294 304 294 261 c 0,0,0
 294 214 294 214 310 193 c 128,-1,7
 340 154 340 154 455 154 c 2,8,-1
 644 154 l 1,9,-1
 614 0 l 1,10,-1
 425 0 l 2,11,12
 212 0 212 0 147 80 c 128,-1,13
 106 129 106 129 106 227 c 0,0,0
 106 289 106 289 122 369 c 2,14,-1
 167 602 l 1,0,0
 32 602 l 1,0,0
 60 744 l 1,0,0
 195 744 l 1,0,0
 240 977 l 1,15,-1
 105 977 l 1,16,-1
 133 1120 l 1,17,-1
 268 1120 l 1,18,-1
 330 1438 l 1,19,-1
 515 1438 l 1,0,-1
EndSplineSet
EndChar
StartChar: longs
Encoding: 383 383 231
Width: 721
Flags: HW
TeX: 0 0 0 0
Fore
324 0 m 1,10,-1
 139 0 l 1,11,-1
 330 977 l 1,12,-1
 154 977 l 1,13,-1
 180 1120 l 1,14,-1
 356 1120 l 1,15,-1
 371 1198 l 2,16,17
 409.092 1396.08 409.092 1396.08 504.5 1476 c 128,-1,18
 600 1556 600 1556 805 1556 c 2,19,-1
 979 1556 l 1,0,-1
 950 1403 l 1,1,-1
 774 1403 l 2,2,3
 674 1403 674 1403 628.5 1363.5 c 128,-1,4
 583 1324 583 1324 561 1219 c 1,5,-1
 324 0 l 1,10,-1
EndSplineSet
EndChar
StartChar: florin
Encoding: 402 402 166
Width: 1303
Flags: W
Fore
1266 1509 m 1,0,-1
 1235 1356 l 1,1,2
 1197 1385 1197 1385 1157 1399 c 128,-1,3
 1117 1413 1117 1413 1073 1413 c 0,4,5
 977 1413 977 1413 920 1352 c 128,-1,6
 863 1291 863 1291 838 1159 c 1,7,-1
 778 848 l 1,8,-1
 1096 848 l 1,9,-1
 1065 705 l 1,10,-1
 748 705 l 1,11,-1
 621 70 l 1,12,13
 564 -209 564 -209 471 -317.5 c 128,-1,14
 378 -426 378 -426 205 -426 c 0,15,16
 131 -426 131 -426 69.5 -413.5 c 128,-1,17
 8 -401 8 -401 -47 -375 c 1,18,-1
 -16 -217 l 1,19,20
 36 -250 36 -250 84.5 -266.5 c 128,-1,21
 133 -283 133 -283 180 -283 c 0,22,23
 277 -283 277 -283 331.5 -214.5 c 128,-1,24
 386 -146 386 -146 420 20 c 1,25,-1
 557 705 l 1,26,-1
 279 705 l 1,27,-1
 309 848 l 1,28,-1
 588 848 l 1,29,-1
 651 1178 l 1,30,31
 688 1369 688 1369 789 1462.5 c 128,-1,32
 890 1556 890 1556 1059 1556 c 0,33,34
 1105 1556 1105 1556 1154.5 1545 c 128,-1,35
 1204 1534 1204 1534 1266 1509 c 1,0,-1
EndSplineSet
EndChar
StartChar: dotlessj
Encoding: 567 567 218
Width: 569
Flags: HW
Fore
297 1120 m 1,0,-1
 481 1120 l 1,1,-1
 260 -20 l 1,2,-1
 259 -25 l 2,3,4
 222 -216 222 -216 174 -287 c 0,5,6
 129 -354 129 -354 42.5 -390 c 128,-1,7
 -44 -426 -44 -426 -162 -426 c 2,8,-1
 -231 -426 l 1,9,-1
 -201 -270 l 1,10,-1
 -154 -270 l 2,11,12
 -46 -270 -46 -270 -0.5 -225 c 128,-1,13
 45 -180 45 -180 76 -20 c 2,14,-1
 297 1120 l 1,0,-1
EndSplineSet
EndChar
StartChar: uni02BB
Encoding: 699 699 173
Width: 651
Flags: W
Fore
479 1001 m 1,0,-1
 268 1001 l 1,1,-1
 303 1174 l 1,2,-1
 528 1493 l 1,3,-1
 657 1493 l 1,4,-1
 514 1174 l 1,5,-1
 479 1001 l 1,0,-1
EndSplineSet
KernsSLIF: 221 47 0 0 193 -243 0 0 194 -243 0 0 376 47 0 0 195 -243 0 0 192 -243 0 0 198 -301 0 0 196 -243 0 0 89 47 0 0 86 75 0 0 65 -243 0 0
EndChar
StartChar: afii57929
Encoding: 700 700 174
Width: 651
Flags: HW
TeX: 0 0 0 0
Fore
304 1493 m 1,0,-1
 515 1493 l 1,1,-1
 481 1320 l 1,2,-1
 255 1001 l 1,3,-1
 126 1001 l 1,4,-1
 270 1320 l 1,5,-1
 304 1493 l 1,0,-1
EndSplineSet
EndChar
StartChar: circumflex
Encoding: 710 710 215
Width: 1024
Flags: W
Fore
657 1638 m 1,0,-1
 805 1638 l 1,1,-1
 977 1262 l 1,2,-1
 838 1262 l 1,3,-1
 711 1499 l 1,4,-1
 477 1262 l 1,5,-1
 338 1262 l 1,6,-1
 657 1638 l 1,0,-1
EndSplineSet
EndChar
StartChar: caron
Encoding: 711 711 224
Width: 1024
Flags: W
Fore
729 1262 m 1,0,-1
 582 1262 l 1,1,-1
 410 1638 l 1,2,-1
 551 1638 l 1,3,-1
 678 1401 l 1,4,-1
 909 1638 l 1,5,-1
 1049 1638 l 1,6,-1
 729 1262 l 1,0,-1
EndSplineSet
EndChar
StartChar: breve
Encoding: 728 728 218
Width: 1024
Flags: W
Fore
412 1608 m 1,0,-1
 526 1608 l 1,1,-1
 526 1593 l 2,2,3
 526 1525 526 1525 568 1491.5 c 128,-1,4
 610 1458 610 1458 696 1458 c 0,5,6
 781 1458 781 1458 836 1494.5 c 128,-1,7
 891 1531 891 1531 922 1608 c 1,8,-1
 1038 1608 l 1,9,10
 1006 1469 1006 1469 911 1395 c 128,-1,11
 816 1321 816 1321 670 1321 c 0,12,13
 542 1321 542 1321 476 1385.5 c 128,-1,14
 410 1450 410 1450 410 1575 c 0,15,16
 410 1581 410 1581 411 1592 c 128,-1,17
 412 1603 412 1603 412 1608 c 1,0,-1
EndSplineSet
Ligature: 0 1 'liga' space uni0306
EndChar
StartChar: dotaccent
Encoding: 729 729 219
Width: 1024
Flags: W
Fore
612 1552 m 1,0,-1
 815 1552 l 1,1,-1
 776 1348 l 1,2,-1
 571 1348 l 1,3,-1
 612 1552 l 1,0,-1
EndSplineSet
Ligature: 0 1 'liga' space uni0307
EndChar
StartChar: ring
Encoding: 730 730 220
Width: 1024
Flags: W
Fore
977 1524 m 0,0,1
 977 1409 977 1409 897.5 1329 c 128,-1,2
 818 1249 818 1249 702 1249 c 0,3,4
 587 1249 587 1249 507.5 1329 c 128,-1,5
 428 1409 428 1409 428 1524 c 0,6,7
 428 1640 428 1640 507.5 1719 c 128,-1,8
 587 1798 587 1798 702 1798 c 0,9,10
 818 1798 818 1798 897.5 1719 c 128,-1,11
 977 1640 977 1640 977 1524 c 0,0,1
854 1524 m 0,12,13
 854 1588 854 1588 810.5 1631.5 c 128,-1,14
 767 1675 767 1675 702 1675 c 0,15,16
 636 1675 636 1675 593.5 1632.5 c 128,-1,17
 551 1590 551 1590 551 1524 c 0,18,19
 551 1458 551 1458 593.5 1415 c 128,-1,20
 636 1372 636 1372 702 1372 c 0,21,22
 769 1372 769 1372 811.5 1415 c 128,-1,23
 854 1458 854 1458 854 1524 c 0,12,13
EndSplineSet
LCarets: 0 65535 '    ' 1 0 
Ligature: 0 1 'liga' space uni030A
EndChar
StartChar: ogonek
Encoding: 731 731 223
Width: 1024
Flags: W
Fore
354 0 m 1,0,-1
 473 0 l 1,1,2
 409 -67 409 -67 377.5 -117.5 c 128,-1,3
 346 -168 346 -168 346 -203 c 0,4,5
 346 -238 346 -238 368.5 -255 c 128,-1,6
 391 -272 391 -272 436 -272 c 0,7,8
 465 -272 465 -272 499.5 -264.5 c 128,-1,9
 534 -257 534 -257 571 -242 c 1,10,-1
 547 -374 l 1,11,12
 510 -386 510 -386 474.5 -391.5 c 128,-1,13
 439 -397 439 -397 408 -397 c 0,14,15
 305 -397 305 -397 253 -359 c 128,-1,16
 201 -321 201 -321 201 -246 c 0,17,18
 201 -194 201 -194 239.5 -132.5 c 128,-1,19
 278 -71 278 -71 354 0 c 1,0,-1
EndSplineSet
Ligature: 0 1 'liga' space uni0328
EndChar
StartChar: tilde
Encoding: 732 732 216
Width: 1024
Flags: W
Fore
674 1370 m 1,0,-1
 629 1425 l 2,1,2
 616 1441 616 1441 600 1451 c 128,-1,3
 584 1461 584 1461 568 1464 c 1,4,5
 529 1464 529 1464 503.5 1427.5 c 128,-1,6
 478 1391 478 1391 461 1309 c 1,7,-1
 336 1309 l 1,8,9
 366 1446 366 1446 430.5 1518.5 c 128,-1,10
 495 1591 495 1591 586 1591 c 0,11,12
 623 1591 623 1591 655 1575.5 c 128,-1,13
 687 1560 687 1560 713 1530 c 2,14,-1
 760 1475 l 1,15,16
 772 1459 772 1459 786 1450 c 128,-1,17
 800 1441 800 1441 819 1436 c 1,18,19
 857 1436 857 1436 881.5 1471.5 c 128,-1,20
 906 1507 906 1507 926 1591 c 1,21,-1
 1051 1591 l 1,22,23
 1022 1454 1022 1454 957.5 1381.5 c 128,-1,24
 893 1309 893 1309 801 1309 c 0,25,26
 763 1309 763 1309 730 1324.5 c 128,-1,27
 697 1340 697 1340 674 1370 c 1,0,-1
EndSplineSet
Ligature: 0 1 'liga' space tildecomb
EndChar
StartChar: hungarumlaut
Encoding: 733 733 222
Width: 1024
Flags: W
Fore
649 1638 m 1,0,-1
 819 1638 l 1,1,-1
 522 1262 l 1,2,-1
 385 1262 l 1,3,-1
 649 1638 l 1,0,-1
983 1638 m 1,4,-1
 1161 1638 l 1,5,-1
 840 1262 l 1,6,-1
 705 1262 l 1,7,-1
 983 1638 l 1,4,-1
EndSplineSet
Ligature: 0 1 'liga' space uni030B
EndChar
StartChar: uni0312
Encoding: 786 786 223
Width: 651
Flags: HW
TeX: 0 0 0 0
Fore
479 1001 m 1,5,-1
 268 1001 l 1,2,-1
 493 1320 l 1,3,-1
 622 1320 l 1,4,-1
 479 1001 l 1,5,-1
EndSplineSet
EndChar
StartChar: uni0326
Encoding: 806 806 223
Width: 1024
Flags: HW
Fore
366 -132 m 1,5,-1
 578 -132 l 1,2,-1
 351 -452 l 1,3,-1
 222 -452 l 1,4,-1
 366 -132 l 1,5,-1
EndSplineSet
EndChar
StartChar: Omega
Encoding: 937 937 159
Width: 1565
Flags: W
Fore
1487 178 m 1,0,-1
 1487 0 l 1,1,-1
 887 0 l 1,2,-1
 887 178 l 1,3,4
 1064 275 1064 275 1163 441 c 128,-1,5
 1262 607 1262 607 1262 809 c 0,6,7
 1262 1049 1262 1049 1130 1194 c 128,-1,8
 998 1339 998 1339 782 1339 c 0,9,10
 566 1339 566 1339 433.5 1193.5 c 128,-1,11
 301 1048 301 1048 301 809 c 0,12,13
 301 607 301 607 400.5 441 c 128,-1,14
 500 275 500 275 678 178 c 1,15,-1
 678 0 l 1,16,-1
 78 0 l 1,17,-1
 78 178 l 1,18,-1
 397 178 l 1,19,20
 239 317 239 317 166.5 466 c 128,-1,21
 94 615 94 615 94 799 c 0,22,23
 94 1117 94 1117 285.5 1314 c 128,-1,24
 477 1511 477 1511 782 1511 c 0,25,26
 1085 1511 1085 1511 1277.5 1314.5 c 128,-1,27
 1470 1118 1470 1118 1470 809 c 0,28,29
 1470 615 1470 615 1399 467 c 128,-1,30
 1328 319 1328 319 1167 178 c 1,31,-1
 1487 178 l 1,0,-1
EndSplineSet
EndChar
StartChar: pi
Encoding: 960 960 155
Width: 1206
Flags: W
Fore
1159 913 m 1,0,-1
 977 913 l 1,1,-1
 872 426 l 1,2,3
 857 352 857 352 849.5 306 c 128,-1,4
 842 260 842 260 842 238 c 0,5,6
 842 180 842 180 865.5 155.5 c 128,-1,7
 889 131 889 131 944 131 c 0,8,9
 961 131 961 131 984 133.5 c 128,-1,10
 1007 136 1007 136 1044 141 c 1,11,-1
 1014 0 l 1,12,13
 984 -8 984 -8 956.5 -12 c 128,-1,14
 929 -16 929 -16 903 -16 c 0,15,16
 785 -16 785 -16 724.5 35 c 128,-1,17
 664 86 664 86 664 186 c 0,18,19
 664 232 664 232 674.5 304 c 128,-1,20
 685 376 685 376 719 537 c 2,21,-1
 799 913 l 1,22,-1
 473 913 l 1,23,-1
 279 0 l 1,24,-1
 98 0 l 1,25,-1
 293 913 l 1,26,-1
 252 913 l 2,27,28
 198 913 198 913 168 881 c 128,-1,29
 138 849 138 849 129 780 c 1,30,-1
 -31 780 l 1,31,32
 -3 946 -3 946 68.5 1008.5 c 128,-1,33
 140 1071 140 1071 305 1071 c 2,34,-1
 1194 1071 l 1,35,-1
 1159 913 l 1,0,-1
EndSplineSet
EndChar
StartChar: afii10051
Encoding: 1026 1026 158
Width: 1610
Flags: HW
HStem: 0 21G<319 522> 711 170<693 1061> 1323 170<178 576 179 1309>
VStem: 1234 208<509 562>
Fore
1367 104 m 18,0,1
 1314 -166 1314 -166 1189 -288 c 128,-1,2
 1063 -410 1063 -410 835 -410 c 2,3,-1
 759 -410 l 1,4,-1
 792 -240 l 1,5,-1
 854 -240 l 2,6,7
 988 -240 988 -240 1059 -165 c 0,8,9
 1128 -90 1128 -90 1166 104 c 2,10,-1
 1222 394 l 2,11,12
 1234 458 1234 458 1234 509 c 0,0,0
 1234 585 1234 585 1207 632 c 128,-1,13
 1160 711 1160 711 1036 711 c 2,14,-1
 660 711 l 9,15,-1
 522 0 l 17,16,-1
 319 0 l 1,17,-1
 576 1323 l 1,18,-1
 146 1323 l 1,19,-1
 179 1493 l 1,20,-1
 1342 1493 l 1,21,-1
 1309 1323 l 1,22,-1
 779 1323 l 1,23,-1
 693 881 l 1,24,-1
 1110 881 l 2,25,26
 1296 881 1296 881 1386 762 c 0,27,28
 1442 688 1442 688 1442 562 c 0,0,0
 1442 493 1442 493 1426 410 c 10,29,-1
 1367 104 l 18,0,1
EndSplineSet
EndChar
StartChar: afii10053
Encoding: 1028 1028 160
Width: 1430
Flags: HW
HStem: -29 166<693 738> 711 170<362 1019> 1354 166<948 1006>
VStem: 93 214<530 564>
Fore
321 711 m 0,0,1
 307 627 307 627 307 555 c 0,0,0
 307 395 307 395 376 294 c 0,2,3
 482 137 482 137 738 137 c 0,4,5
 868 137 868 137 993 184 c 0,6,7
 1117 231 1117 231 1237 326 c 1,8,-1
 1196 115 l 1,9,10
 1076 43 1076 43 950 7 c 0,11,12
 825 -29 825 -29 693 -29 c 0,13,14
 354 -29 354 -29 200 178 c 0,15,16
 93 321 93 321 93 536 c 0,0,0
 93 633 93 633 115 745 c 0,17,18
 185 1105 185 1105 420 1312 c 0,19,20
 656 1520 656 1520 995 1520 c 0,21,22
 1129 1520 1129 1520 1240 1484 c 0,23,24
 1352 1449 1352 1449 1442 1378 c 1,25,-1
 1401 1165 l 1,26,27
 1317 1260 1317 1260 1211 1307 c 0,28,29
 1104 1354 1104 1354 974 1354 c 0,30,31
 718 1354 718 1354 552 1198 c 0,32,33
 426 1079 426 1079 362 881 c 0,34,-1
 1052 881 l 1,35,-1
 1019 711 l 1,36,-1
 321 711 l 0,0,1
EndSplineSet
EndChar
StartChar: afii10058
Encoding: 1033 1033 165
Width: 2240
Flags: HW
HStem: 0 166<1228 1475> 713 166<1367 1587> 1323 170<598 1251>
VStem: 1833 217<514 551>
Fore
1251 1323 m 17,0,-1
 766 1323 l 1,1,2
 724 1110 l 2,3,4
 630 622 630 622 431 280 c 0,5,6
 284 27 284 27 -94 -29 c 9,7,-1
 -61 138 l 17,8,9
 159 184 159 184 259 352 c 0,10,11
 433 645 433 645 543 1210 c 2,12,-1
 598 1493 l 1,13,-1
 1486 1493 l 17,14,-1
 1367 879 l 1,15,-1
 1601 879 l 2,16,17
 1852 879 1852 879 1966 770 c 128,-1,18
 2050 691 2050 691 2050 551 c 0,0,0
 2050 499 2050 499 2038 439 c 8,19,20
 1995 218 1995 218 1838 109 c 128,-1,21
 1681 0 1681 0 1430 0 c 2,22,-1
 994 0 l 9,23,-1
 1251 1323 l 17,0,-1
1825 439 m 16,24,25
 1833 479 1833 479 1833 514 c 0,0,0
 1833 598 1833 598 1786 646 c 0,26,27
 1721 713 1721 713 1558 713 c 2,28,-1
 1334 713 l 1,29,-1
 1228 166 l 1,30,-1
 1452 166 l 2,31,32
 1613 166 1613 166 1706 234 c 0,33,34
 1798 301 1798 301 1825 439 c 16,24,25
EndSplineSet
EndChar
StartChar: afii10059
Encoding: 1034 1034 166
Width: 2140
Flags: HW
HStem: 0 166<1126 1369> 711 170<429 1030 1265 1481> 713 166<1456 1499>
VStem: 1731 217<514 552>
Fore
892 0 m 17,0,-1
 1030 711 l 1,1,-1
 396 711 l 1,2,-1
 258 0 l 1,3,-1
 56 0 l 1,4,-1
 346 1493 l 1,5,-1
 548 1493 l 1,6,-1
 429 881 l 1,7,-1
 1063 881 l 1,8,-1
 1182 1493 l 1,9,-1
 1384 1493 l 17,10,-1
 1265 879 l 1,11,-1
 1499 879 l 2,12,13
 1750 879 1750 879 1865 770 c 128,-1,14
 1948 691 1948 691 1948 552 c 0,0,0
 1948 500 1948 500 1936 439 c 8,15,16
 1893 218 1893 218 1736 109 c 128,-1,17
 1579 0 1579 0 1328 0 c 10,18,-1
 892 0 l 17,0,-1
1723 439 m 16,19,20
 1731 479 1731 479 1731 514 c 0,0,0
 1731 598 1731 598 1684 646 c 0,21,22
 1619 713 1619 713 1456 713 c 2,23,-1
 1232 713 l 1,24,-1
 1126 166 l 1,25,-1
 1350 166 l 2,26,27
 1511 166 1511 166 1604 234 c 0,28,29
 1696 301 1696 301 1723 439 c 16,19,20
EndSplineSet
EndChar
StartChar: afii10060
Encoding: 1035 1035 167
Width: 1610
Flags: HW
HStem: 0 21G<279 482 1106 1307> 711 170<653 1019> 1323 170<138 536 139 1269>
VStem: 1194 209<509 560>
Fore
1070 881 m 2,0,1
 1256 881 1256 881 1346 762 c 0,2,3
 1403 687 1403 687 1403 560 c 0,0,0
 1403 492 1403 492 1387 410 c 2,4,-1
 1307 0 l 1,5,-1
 1106 0 l 1,6,-1
 1182 394 l 2,7,8
 1194 458 1194 458 1194 509 c 0,0,0
 1194 585 1194 585 1167 632 c 128,-1,9
 1120 711 1120 711 996 711 c 2,10,-1
 620 711 l 9,11,-1
 482 0 l 17,12,-1
 279 0 l 1,13,-1
 536 1323 l 1,14,-1
 106 1323 l 1,15,-1
 139 1493 l 1,16,-1
 1302 1493 l 1,17,-1
 1269 1323 l 1,18,-1
 739 1323 l 1,19,-1
 653 881 l 1,20,-1
 1070 881 l 2,0,1
EndSplineSet
EndChar
StartChar: afii10145
Encoding: 1039 1039 171
Width: 1540
Flags: HW
HStem: -426 21G<513 714> 0 170<332 596 332 1235> 1473 20G<388 590 1324 1526>
Fore
596 0 m 25,0,-1
 97 0 l 1,1,-1
 388 1493 l 1,2,-1
 590 1493 l 1,3,-1
 332 170 l 1,4,-1
 1066 170 l 1,5,-1
 1324 1493 l 1,6,-1
 1526 1493 l 1,7,-1
 1235 0 l 1,8,-1
 797 0 l 25,9,-1
 714 -426 l 1,10,-1
 513 -426 l 1,11,-1
 596 0 l 25,0,-1
EndSplineSet
EndChar
StartChar: afii10018
Encoding: 1041 1041 173
Width: 1405
Flags: HW
HStem: 0 166<290 633> 713 166<429 745> 1327 166<346 1160>
VStem: 995 217<514 552>
Fore
987 439 m 16,0,1
 995 479 995 479 995 514 c 0,0,0
 995 598 995 598 948 646 c 0,2,3
 883 713 883 713 720 713 c 2,4,-1
 396 713 l 1,5,-1
 290 166 l 1,6,-1
 614 166 l 2,7,8
 777 166 777 166 868 234 c 0,9,10
 960 301 960 301 987 439 c 16,0,1
1192 1493 m 25,11,-1
 1160 1327 l 25,12,-1
 516 1327 l 1,13,-1
 429 879 l 1,14,-1
 763 879 l 2,15,16
 1014 879 1014 879 1129 770 c 128,-1,17
 1212 691 1212 691 1212 552 c 0,0,0
 1212 500 1212 500 1200 439 c 8,18,19
 1157 218 1157 218 1000 109 c 128,-1,20
 843 0 843 0 592 0 c 2,21,-1
 56 0 l 1,22,-1
 346 1493 l 1,23,-1
 1192 1493 l 25,11,-1
EndSplineSet
EndChar
StartChar: afii10020
Encoding: 1043 1043 175
Width: 1141
Flags: HW
Fore
56 0 m 1,0,-1
 346 1493 l 1,1,-1
 1275 1493 l 1,2,-1
 1242 1323 l 1,3,-1
 515 1323 l 1,4,-1
 258 0 l 1,5,-1
 56 0 l 1,0,-1
EndSplineSet
EndChar
StartChar: afii10021
Encoding: 1044 1044 176
Width: 1590
Flags: HW
HStem: -426 21G<-138 63 1151 1352> 0 170<385 1234> 1323 170<637 1289>
Fore
385 170 m 1,0,-1
 1065 170 l 17,1,-1
 1289 1323 l 1,2,-1
 804 1323 l 1,3,4
 763 1111 l 2,5,6
 667 616 667 616 470 281 c 0,7,8
 434 220 434 220 385 170 c 1,0,-1
80 170 m 1,9,10
 223 227 223 227 298 353 c 0,11,12
 472 646 472 646 582 1211 c 2,13,-1
 637 1493 l 1,14,-1
 1525 1493 l 17,15,-1
 1267 170 l 17,16,-1
 1468 170 l 1,17,-1
 1352 -426 l 1,18,-1
 1151 -426 l 1,19,-1
 1234 0 l 0,20,-1
 146 0 l 9,21,-1
 63 -426 l 1,22,-1
 -138 -426 l 1,23,-1
 -22 170 l 1,24,-1
 80 170 l 1,9,10
EndSplineSet
EndChar
StartChar: afii10024
Encoding: 1046 1046 178
Width: 1768
Flags: HW
HStem: 0 21G<-86 131 638 840 1347 1564> 711 170<659 776 1011 1128> 1473 20G<254 471 928 1130 1587 1804>
Fore
1011 881 m 0,0,-1
 1160 881 l 9,1,-1
 1587 1493 l 17,2,-1
 1804 1493 l 1,3,-1
 1319 796 l 1,4,-1
 1564 0 l 1,5,-1
 1347 0 l 9,6,-1
 1128 711 l 17,7,-1
 978 711 l 0,8,-1
 840 0 l 1,9,-1
 638 0 l 1,10,-1
 776 711 l 0,11,-1
 626 711 l 9,12,-1
 131 0 l 17,13,-1
 -86 0 l 1,14,-1
 469 796 l 1,15,-1
 254 1493 l 1,16,-1
 471 1493 l 9,17,-1
 660 881 l 17,18,-1
 809 881 l 0,19,-1
 928 1493 l 1,20,-1
 1130 1493 l 1,21,-1
 1011 881 l 0,0,-1
EndSplineSet
EndChar
StartChar: afii10026
Encoding: 1048 1048 180
Width: 1532
Flags: HW
HStem: 0 21G<56 328 990 1186> 1473 20G<346 542 1204 1476>
Fore
1476 1493 m 1,0,-1
 1186 0 l 1,1,-1
 990 0 l 1,2,-1
 1233 1249 l 1,3,-1
 328 0 l 1,4,-1
 56 0 l 1,5,-1
 346 1493 l 1,6,-1
 542 1493 l 1,7,-1
 299 244 l 1,8,-1
 1204 1493 l 1,9,-1
 1476 1493 l 1,0,-1
EndSplineSet
EndChar
StartChar: afii10029
Encoding: 1051 1051 183
Width: 1540
Flags: HW
HStem: 0 21G<994 1196> 1323 170<765 1486>
Fore
-94 -28 m 17,0,1
 284 28 284 28 431 281 c 0,2,3
 630 623 630 623 725 1111 c 2,4,5
 766 1323 l 1,6,-1
 1251 1323 l 1,7,-1
 994 0 l 1,8,-1
 1196 0 l 9,9,-1
 1486 1493 l 9,10,-1
 598 1493 l 1,11,-1
 543 1211 l 2,12,13
 433 646 433 646 259 353 c 0,14,15
 159 185 159 185 -61 139 c 9,16,-1
 -94 -28 l 17,0,1
EndSplineSet
EndChar
StartChar: afii10033
Encoding: 1055 1055 187
Width: 1540
Flags: HW
Fore
1484 1493 m 17,0,-1
 1194 0 l 1,1,-1
 992 0 l 1,2,-1
 1249 1323 l 1,3,-1
 515 1323 l 1,4,-1
 258 0 l 1,5,-1
 56 0 l 1,6,-1
 346 1493 l 1,7,-1
 1484 1493 l 17,0,-1
EndSplineSet
EndChar
StartChar: afii10037
Encoding: 1059 1059 191
Width: 1248
Flags: HW
HStem: -29 21G<47 124> 1473 20G<183 400 1144 1361>
Fore
548 181 m 2,0,1
 516 130 516 130 478 93 c 0,2,3
 351 -29 351 -29 124 -29 c 2,4,-1
 47 -29 l 1,5,-1
 80 141 l 1,6,-1
 143 141 l 2,7,8
 283 141 283 141 347 216 c 0,9,10
 365 238 365 238 376 256 c 2,11,-1
 442 362 l 0,12,-1
 183 1493 l 1,13,-1
 400 1493 l 1,14,-1
 601 617 l 1,15,-1
 1144 1493 l 1,16,-1
 1361 1493 l 1,17,-1
 548 181 l 2,0,1
EndSplineSet
EndChar
StartChar: afii10038
Encoding: 1060 1060 192
Width: 1612
Flags: HW
HStem: 0 21G<561 763> 1473 20G<851 1053>
VStem: 102 216<616 648> 1294 216<842 874>
Fore
788 1166 m 0,0,1
 633 1145 633 1145 519 1058 c 0,2,3
 366 943 366 943 328 745 c 0,4,5
 318 693 318 693 318 646 c 0,0,0
 318 517 318 517 397 433 c 0,6,7
 478 346 478 346 624 325 c 0,8,-1
 788 1166 l 0,0,1
826 325 m 0,9,10
 980 346 980 346 1095 433 c 0,11,12
 1245 548 1245 548 1284 745 c 0,13,14
 1294 798 1294 798 1294 844 c 0,0,0
 1294 974 1294 974 1217 1058 c 0,15,16
 1135 1145 1135 1145 990 1166 c 0,17,-1
 826 325 l 0,9,10
592 158 m 0,18,19
 352 180 352 180 220 314 c 0,20,21
 102 434 102 434 102 616 c 0,0,0
 102 677 102 677 115 745 c 128,-1,22
 167 1016 167 1016 388 1177 c 0,23,24
 571 1312 571 1312 820 1334 c 0,25,-1
 851 1493 l 1,26,-1
 1053 1493 l 1,27,-1
 1022 1334 l 0,28,29
 1262 1311 1262 1311 1393 1177 c 0,30,31
 1510 1056 1510 1056 1510 874 c 0,0,0
 1510 813 1510 813 1497 745 c 0,32,33
 1444 475 1444 475 1225 314 c 0,34,35
 1042 180 1042 180 793 157 c 0,36,-1
 763 0 l 1,37,-1
 561 0 l 1,38,-1
 592 158 l 0,18,19
EndSplineSet
EndChar
StartChar: afii10040
Encoding: 1062 1062 194
Width: 1590
Flags: HW
HStem: -426 21G<1152 1353> 0 170<332 1235> 1473 20G<388 590 1324 1526>
Fore
1235 0 m 8,0,-1
 97 0 l 1,1,-1
 388 1493 l 1,2,-1
 590 1493 l 1,3,-1
 332 170 l 1,4,-1
 1066 170 l 1,5,-1
 1324 1493 l 1,6,-1
 1526 1493 l 1,7,-1
 1268 170 l 1,8,-1
 1469 170 l 1,9,-1
 1353 -426 l 1,10,-1
 1152 -426 l 1,11,-1
 1235 0 l 8,0,-1
EndSplineSet
EndChar
StartChar: afii10041
Encoding: 1063 1063 195
Width: 1404
Flags: HW
HStem: 0 21G<855 1058> 711 170<627 993> 1473 20G<320 521 1145 1348>
VStem: 244 208<1030 1084>
Fore
855 0 m 17,0,-1
 993 711 l 1,1,-1
 576 711 l 2,2,3
 390 711 390 711 300 830 c 0,4,5
 244 904 244 904 244 1030 c 0,0,0
 244 1099 244 1099 260 1182 c 2,6,-1
 320 1493 l 1,7,-1
 521 1493 l 1,8,-1
 464 1198 l 2,9,10
 452 1135 452 1135 452 1084 c 0,0,0
 452 1008 452 1008 480 960 c 128,-1,11
 526 881 526 881 650 881 c 2,12,-1
 1026 881 l 9,13,-1
 1145 1493 l 17,14,-1
 1348 1493 l 1,15,-1
 1058 0 l 9,16,-1
 855 0 l 17,0,-1
EndSplineSet
EndChar
StartChar: afii10042
Encoding: 1064 1064 196
Width: 2054
Flags: HW
HStem: 0 170<291 1704> 1473 20G<346 548 1792 1994>
Fore
1014 170 m 9,0,-1
 1535 170 l 1,1,-1
 1792 1493 l 1,2,-1
 1994 1493 l 1,3,-1
 1704 0 l 1,4,-1
 56 0 l 1,5,-1
 346 1493 l 1,6,-1
 548 1493 l 1,7,-1
 291 170 l 1,8,-1
 812 170 l 1,9,-1
 1054 1415 l 1,10,-1
 1256 1415 l 1,11,-1
 1014 170 l 9,0,-1
EndSplineSet
EndChar
StartChar: afii10043
Encoding: 1065 1065 197
Width: 2100
Flags: HW
HStem: -426 21G<1662 1863> 0 170<332 1745> 1473 20G<388 590 1834 2036>
Fore
1745 0 m 17,0,-1
 97 0 l 1,1,-1
 388 1493 l 1,2,-1
 590 1493 l 1,3,-1
 332 170 l 1,4,-1
 853 170 l 1,5,-1
 1095 1415 l 1,6,-1
 1297 1415 l 1,7,-1
 1055 170 l 9,8,-1
 1576 170 l 1,9,-1
 1834 1493 l 1,10,-1
 2036 1493 l 1,11,-1
 1778 170 l 17,12,-1
 1979 170 l 1,13,-1
 1863 -426 l 1,14,-1
 1662 -426 l 1,15,-1
 1745 0 l 17,0,-1
EndSplineSet
EndChar
StartChar: afii10044
Encoding: 1066 1066 198
Width: 1705
Flags: HW
HStem: 0 166<590 931> 713 166<729 1059> 1323 170<194 613>
VStem: 1295 217<514 552>
Fore
356 0 m 9,0,-1
 613 1323 l 25,1,-1
 162 1323 l 17,2,-1
 195 1493 l 1,3,-1
 848 1493 l 17,4,-1
 729 879 l 1,5,-1
 1063 879 l 2,6,7
 1314 879 1314 879 1429 770 c 128,-1,8
 1512 691 1512 691 1512 552 c 0,0,0
 1512 500 1512 500 1500 439 c 8,9,10
 1457 218 1457 218 1300 109 c 128,-1,11
 1143 0 1143 0 892 0 c 2,12,-1
 356 0 l 9,0,-1
1287 439 m 16,13,14
 1295 479 1295 479 1295 514 c 0,0,0
 1295 598 1295 598 1248 646 c 0,15,16
 1183 713 1183 713 1020 713 c 2,17,-1
 696 713 l 1,18,-1
 590 166 l 1,19,-1
 914 166 l 2,20,21
 1075 166 1075 166 1168 234 c 0,22,23
 1260 301 1260 301 1287 439 c 16,13,14
EndSplineSet
EndChar
StartChar: afii10046
Encoding: 1068 1068 200
Width: 1405
Flags: HW
HStem: 0 166<290 633> 713 166<429 745> 1473 20G<346 548>
VStem: 995 217<514 552>
Fore
987 439 m 16,0,1
 995 479 995 479 995 514 c 0,0,0
 995 598 995 598 948 646 c 0,2,3
 883 713 883 713 720 713 c 2,4,-1
 396 713 l 1,5,-1
 290 166 l 1,6,-1
 614 166 l 2,7,8
 777 166 777 166 868 234 c 0,9,10
 960 301 960 301 987 439 c 16,0,1
346 1493 m 9,11,-1
 548 1493 l 17,12,-1
 429 879 l 1,13,-1
 763 879 l 2,14,15
 1014 879 1014 879 1129 770 c 128,-1,16
 1212 691 1212 691 1212 552 c 0,0,0
 1212 500 1212 500 1200 439 c 8,17,18
 1157 218 1157 218 1000 109 c 128,-1,19
 843 0 843 0 592 0 c 2,20,-1
 56 0 l 1,21,-1
 346 1493 l 9,11,-1
EndSplineSet
EndChar
StartChar: afii10047
Encoding: 1069 1069 201
Width: 1430
Flags: HW
HStem: -29 166<419 480> 711 170<429 1095> 1354 166<692 737>
VStem: 1122 215<914 964>
Fore
1095 711 m 0,0,-1
 397 711 l 1,1,-1
 430 881 l 1,2,-1
 1120 881 l 0,3,4
 1122 910 1122 910 1122 938 c 0,0,0
 1122 1097 1122 1097 1054 1198 c 0,5,6
 948 1354 948 1354 692 1354 c 0,7,8
 562 1354 562 1354 437 1307 c 0,9,10
 313 1260 313 1260 193 1165 c 1,11,-1
 234 1378 l 1,12,13
 352 1449 352 1449 478 1484 c 0,14,15
 603 1520 603 1520 737 1520 c 0,16,17
 1076 1520 1076 1520 1230 1312 c 0,18,19
 1337 1169 1337 1169 1337 954 c 0,0,0
 1337 857 1337 857 1315 745 c 0,20,21
 1245 386 1245 386 1010 178 c 0,22,23
 774 -29 774 -29 435 -29 c 0,24,25
 303 -29 303 -29 192 7 c 0,26,27
 80 43 80 43 -12 115 c 1,28,-1
 29 326 l 1,29,30
 113 231 113 231 219 184 c 0,31,32
 326 137 326 137 456 137 c 0,33,34
 712 137 712 137 878 294 c 0,35,36
 1036 441 1036 441 1095 711 c 0,0,-1
EndSplineSet
EndChar
StartChar: afii10048
Encoding: 1070 1070 202
Width: 2111
Flags: HW
HStem: -29 164<1153 1189> 1356 164<1423 1459>
VStem: 591 216<530 564> 1803 215<914 964>
Fore
1425 1356 m 0,0,1
 1205 1356 1205 1356 1043 1192 c 0,2,3
 882 1028 882 1028 827 745 c 0,4,5
 807 643 807 643 807 556 c 0,0,0
 807 404 807 404 869 299 c 0,6,7
 967 135 967 135 1187 135 c 128,-1,8
 1407 135 1407 135 1567 299 c 0,9,10
 1728 463 1728 463 1783 745 c 0,11,12
 1803 847 1803 847 1803 934 c 0,0,0
 1803 1087 1803 1087 1741 1192 c 0,13,14
 1645 1356 1645 1356 1425 1356 c 0,0,1
647 881 m 17,15,16
 728 1142 728 1142 912 1310 c 0,17,18
 1141 1520 1141 1520 1457 1520 c 0,19,20
 1771 1520 1771 1520 1918 1310 c 0,21,22
 2018 1166 2018 1166 2018 957 c 0,0,0
 2018 858 2018 858 1996 745 c 0,23,24
 1927 392 1927 392 1698 182 c 0,25,26
 1469 -29 1469 -29 1155 -29 c 0,27,28
 840 -29 840 -29 692 181 c 0,29,30
 591 325 591 325 591 535 c 0,0,0
 591 618 591 618 607 711 c 9,31,-1
 406 711 l 17,32,-1
 268 0 l 1,33,-1
 66 0 l 1,34,-1
 356 1493 l 1,35,-1
 558 1493 l 1,36,-1
 439 881 l 9,37,-1
 647 881 l 17,15,16
EndSplineSet
EndChar
StartChar: afii10049
Encoding: 1071 1071 203
Width: 1423
Flags: HW
HStem: 0 21G<-86 131 875 1077> 631 166<745 998> 1327 166<873 1133>
VStem: 310 215<966 992>
Fore
505 700 m 1,0,1
 387 736 387 736 340 829 c 128,-1,2
 310 888 310 888 310 966 c 0,0,0
 310 1011 310 1011 320 1063 c 0,3,4
 362 1279 362 1279 508 1386 c 128,-1,5
 655 1493 655 1493 911 1493 c 2,6,-1
 1367 1493 l 1,7,-1
 1077 0 l 1,8,-1
 875 0 l 1,9,-1
 998 631 l 1,10,-1
 778 631 l 2,11,12
 658 631 658 631 579 582 c 128,-1,13
 500 533 500 533 396 383 c 1,14,-1
 131 0 l 1,15,-1
 -86 0 l 1,16,-1
 198 408 l 1,17,18
 285 534 285 534 360 606 c 128,-1,19
 436 678 436 678 505 700 c 1,0,1
1133 1327 m 1,20,-1
 879 1327 l 2,21,22
 733 1327 733 1327 645 1260 c 128,-1,23
 558 1194 558 1194 533 1063 c 128,-1,24
 525 1024 525 1024 525 990 c 0,0,0
 525 912 525 912 568 864 c 128,-1,25
 630 797 630 797 776 797 c 2,26,-1
 1030 797 l 1,27,-1
 1133 1327 l 1,20,-1
EndSplineSet
EndChar
StartChar: afii10066
Encoding: 1073 1073 205
Width: 1253
Flags: HW
HStem: -29 156<507 542> 1367 153<792 859>
VStem: 90 197<386 420> 346 192<1204 1238> 952 199<674 711>
Fore
1142 1297 m 17,0,1
 1054 1367 1054 1367 815 1367 c 0,2,3
 562 1367 562 1367 539 1250 c 16,4,5
 538 1244 538 1244 538 1238 c 0,0,0
 538 1155 538 1155 776 1110 c 0,6,7
 976 1073 976 1073 1072 961 c 0,8,9
 1151 869 1151 869 1151 711 c 0,0,0
 1151 637 1151 637 1134 549 c 0,10,11
 1082 284 1082 284 915 128 c 0,12,13
 747 -29 747 -29 507 -29 c 0,14,15
 268 -29 268 -29 161 128 c 0,16,17
 90 232 90 232 90 389 c 0,0,0
 90 467 90 467 108 559 c 0,18,19
 147 763 147 763 316 928 c 0,20,21
 382 992 382 992 464 1028 c 1,22,23
 346 1094 346 1094 346 1204 c 0,0,0
 346 1225 346 1225 351 1248 c 8,24,25
 404 1520 404 1520 845 1520 c 0,26,27
 1066 1520 1066 1520 1172 1450 c 9,28,-1
 1142 1297 l 17,0,1
592 978 m 1,29,30
 519 949 519 949 449 876 c 0,31,32
 341 763 341 763 302 559 c 0,33,34
 287 481 287 481 287 416 c 0,0,0
 287 312 287 312 325 242 c 0,35,36
 389 127 389 127 538 127 c 0,37,38
 685 127 685 127 793 243 c 128,-1,39
 902 359 902 359 939 549 c 0,40,41
 952 618 952 618 952 675 c 0,0,0
 952 781 952 781 905 844 c 0,42,43
 828 947 828 947 704 958 c 0,44,45
 641 964 641 964 592 978 c 1,29,30
EndSplineSet
EndChar
StartChar: afii10067
Encoding: 1074 1074 206
Width: 1200
Flags: HW
HStem: 0 153<286 569> 514 159<387 649> 967 153<290 713>
VStem: 846 193<367 385> 897 192<851 898>
Fore
356 514 m 1,0,-1
 286 153 l 1,1,-1
 548 153 l 2,2,3
 677 153 677 153 752 199 c 0,4,5
 823 243 823 243 841 334 c 0,6,7
 846 357 846 357 846 377 c 0,0,0
 846 438 846 438 804 469 c 0,8,9
 744 514 744 514 618 514 c 2,10,-1
 356 514 l 1,0,-1
444 967 m 1,11,-1
 387 673 l 1,12,-1
 629 673 l 2,13,14
 746 673 746 673 814 711 c 0,15,16
 879 747 879 747 894 822 c 0,17,18
 897 838 897 838 897 851 c 0,0,0
 897 902 897 902 857 930 c 0,19,20
 803 967 803 967 686 967 c 2,21,-1
 444 967 l 1,11,-1
290 1120 m 1,22,-1
 728 1120 l 2,23,24
 925 1120 925 1120 1017 1048 c 128,-1,25
 1089 992 1089 992 1089 898 c 0,0,0
 1089 872 1089 872 1083 843 c 0,26,27
 1063 740 1063 740 997 680 c 0,28,29
 931 619 931 619 822 604 c 1,30,31
 945 580 945 580 1000 504 c 128,-1,32
 1039 450 1039 450 1039 376 c 0,0,0
 1039 347 1039 347 1033 314 c 0,33,34
 1004 164 1004 164 872 82 c 0,35,36
 741 0 741 0 527 0 c 2,37,-1
 72 0 l 1,38,-1
 290 1120 l 1,22,-1
EndSplineSet
EndChar
StartChar: afii10068
Encoding: 1075 1075 207
Width: 1006
Flags: HW
HStem: 0 21G<72 256> 950 170<290 1047>
Fore
72 0 m 1,0,-1
 290 1120 l 1,1,-1
 1080 1120 l 1,2,-1
 1047 950 l 1,3,-1
 441 950 l 1,4,-1
 256 0 l 1,5,-1
 72 0 l 1,0,-1
EndSplineSet
EndChar
StartChar: afii10069
Encoding: 1076 1076 208
Width: 1376
Flags: HW
HStem: 0 153<338 1028> 967 153<489 1032>
Fore
338 153 m 0,0,-1
 874 153 l 17,1,-1
 1032 967 l 1,2,-1
 643 967 l 1,3,4
 617 833 l 2,5,6
 539 430 539 430 377 207 c 0,7,8
 354 190 354 190 338 153 c 0,0,-1
72 153 m 0,9,10
 171 193 171 193 227 278 c 0,11,12
 366 489 366 489 448 908 c 2,13,-1
 489 1120 l 1,14,-1
 1246 1120 l 17,15,-1
 1058 153 l 17,16,-1
 1242 153 l 1,17,-1
 1129 -426 l 1,18,-1
 945 -426 l 1,19,-1
 1028 0 l 0,20,-1
 120 0 l 9,21,-1
 37 -426 l 1,22,-1
 -147 -426 l 1,23,-1
 -34 153 l 1,24,-1
 72 153 l 0,9,10
EndSplineSet
EndChar
StartChar: afii10072
Encoding: 1078 1078 210
Width: 1502
Flags: HW
HStem: 0 21G<-64 133 546 729 1142 1339> 521 152<563 647 860 944> 1100 20G<197 393 764 947 1318 1514>
Fore
860 673 m 0,0,-1
 973 673 l 9,1,-1
 1318 1120 l 17,2,-1
 1514 1120 l 1,3,-1
 1115 597 l 1,4,-1
 1339 0 l 1,5,-1
 1142 0 l 9,6,-1
 944 521 l 17,7,-1
 830 521 l 0,8,-1
 729 0 l 1,9,-1
 546 0 l 1,10,-1
 647 521 l 0,11,-1
 533 521 l 9,12,-1
 133 0 l 17,13,-1
 -64 0 l 1,14,-1
 392 597 l 1,15,-1
 197 1120 l 1,16,-1
 393 1120 l 9,17,-1
 564 673 l 17,18,-1
 677 673 l 0,19,-1
 764 1120 l 1,20,-1
 947 1120 l 1,21,-1
 860 673 l 0,0,-1
EndSplineSet
EndChar
StartChar: afii10073
Encoding: 1079 1079 211
Width: 1107
Flags: HW
HStem: -29 153<337 393> 521 152<368 524> 988 160<578 624>
VStem: 740 183<360 383> 808 187<853 908>
Fore
709 604 m 1,0,1
 829 580 829 580 884 507 c 128,-1,2
 923 454 923 454 923 383 c 0,0,0
 923 356 923 356 917 326 c 0,3,4
 884 153 884 153 737 62 c 128,-1,5
 590 -29 590 -29 352 -29 c 0,6,7
 272 -29 272 -29 190 -15 c 0,8,9
 109 -1 109 -1 24 27 c 1,10,-1
 58 198 l 1,11,12
 121 161 121 161 203 142 c 0,13,14
 284 124 284 124 377 124 c 0,15,16
 528 124 528 124 624 180 c 0,17,18
 719 236 719 236 736 326 c 0,19,20
 740 344 740 344 740 360 c 0,0,0
 740 425 740 425 686 470 c 0,21,22
 624 521 624 521 487 521 c 2,23,-1
 339 521 l 1,24,-1
 369 673 l 1,25,-1
 524 673 l 2,26,27
 640 673 640 673 715 717 c 0,28,29
 792 762 792 762 806 832 c 0,30,31
 808 843 808 843 808 853 c 0,0,0
 808 904 808 904 757 942 c 0,32,33
 697 988 697 988 578 988 c 0,34,35
 507 988 507 988 424 975 c 0,36,37
 341 962 341 962 238 933 c 1,38,-1
 271 1100 l 1,39,40
 374 1124 374 1124 461 1136 c 128,-1,41
 548 1148 548 1148 624 1148 c 0,42,43
 820 1148 820 1148 918 1070 c 0,44,45
 995 1008 995 1008 995 908 c 0,0,0
 995 881 995 881 989 850 c 0,46,47
 971 757 971 757 899 693 c 0,48,49
 826 628 826 628 709 604 c 1,0,1
EndSplineSet
EndChar
StartChar: afii10074
Encoding: 1080 1080 212
Width: 1345
Flags: HW
HStem: 0 21G<79 315 855 1038> 1100 20G<297 480 1019 1256>
Fore
1256 1120 m 1,0,-1
 1038 0 l 1,1,-1
 855 0 l 1,2,-1
 1030 899 l 1,3,-1
 315 0 l 1,4,-1
 79 0 l 1,5,-1
 297 1120 l 1,6,-1
 480 1120 l 1,7,-1
 305 223 l 1,8,-1
 1019 1120 l 1,9,-1
 1256 1120 l 1,0,-1
EndSplineSet
EndChar
StartChar: afii10076
Encoding: 1082 1082 214
Width: 1237
Flags: HW
HStem: 0 21<191 376 945 1185> 1100 20<191 376 925 1160>
VStem: 191 185<0 547 0 1120>
Fore
295 1120 m 1,0,-1
 480 1120 l 1,1,-1
 386 637 l 1,2,-1
 1029 1120 l 1,3,-1
 1264 1120 l 1,4,-1
 568 596 l 1,5,-1
 1071 0 l 1,6,-1
 831 0 l 1,7,-1
 368 547 l 1,8,-1
 262 0 l 1,9,-1
 77 0 l 1,10,-1
 295 1120 l 1,0,-1
EndSplineSet
EndChar
StartChar: afii10077
Encoding: 1083 1083 215
Width: 1309
Flags: HW
HStem: 0 21G<841 1025> 967 153<639 1243>
Fore
-74 -29 m 17,0,1
 240 0 240 0 374 207 c 0,2,3
 543 467 543 467 614 833 c 2,4,5
 640 967 l 1,6,-1
 1029 967 l 1,7,-1
 841 0 l 1,8,-1
 1025 0 l 9,9,-1
 1243 1120 l 9,10,-1
 486 1120 l 1,11,-1
 445 908 l 2,12,13
 362 485 362 485 224 278 c 0,14,15
 140 151 140 151 -44 124 c 9,16,-1
 -74 -29 l 17,0,1
EndSplineSet
EndChar
StartChar: afii10078
Encoding: 1084 1084 216
Width: 1545
Flags: HW
HStem: 0 21G<79 257 1060 1238> 1100 20G<297 559 1196 1456>
Fore
297 1120 m 1,0,-1
 559 1120 l 1,1,-1
 731 370 l 1,2,-1
 1196 1120 l 1,3,-1
 1456 1120 l 1,4,-1
 1238 0 l 1,5,-1
 1060 0 l 1,6,-1
 1244 944 l 1,7,-1
 793 215 l 1,8,-1
 609 215 l 1,9,-1
 441 944 l 1,10,-1
 257 0 l 1,11,-1
 79 0 l 1,12,-1
 297 1120 l 1,0,-1
EndSplineSet
EndChar
StartChar: afii10079
Encoding: 1085 1085 217
Width: 1353
Flags: HW
HStem: 0 21G<79 263 862 1046> 516 143<391 962>
Fore
297 1120 m 1,0,-1
 481 1120 l 1,1,-1
 391 659 l 1,2,-1
 990 659 l 1,3,-1
 1080 1120 l 1,4,-1
 1264 1120 l 1,5,-1
 1046 0 l 1,6,-1
 862 0 l 1,7,-1
 962 516 l 1,8,-1
 363 516 l 1,9,-1
 263 0 l 1,10,-1
 79 0 l 1,11,-1
 297 1120 l 1,0,-1
EndSplineSet
EndChar
StartChar: afii10081
Encoding: 1087 1087 219
Width: 1351
Flags: HW
HStem: 0 21G<79 263 862 1046> 966 154<297 1050>
Fore
1264 1120 m 17,0,-1
 1046 0 l 1,1,-1
 862 0 l 1,2,-1
 1050 966 l 1,3,-1
 451 966 l 1,4,-1
 263 0 l 1,5,-1
 79 0 l 1,6,-1
 297 1120 l 1,7,-1
 1264 1120 l 17,0,-1
EndSplineSet
EndChar
StartChar: afii10084
Encoding: 1090 1090 222
Width: 1083
Flags: HW
HStem: 0 21G<337 518> 950 170<108 522 109 1149>
Fore
109 1120 m 1,0,-1
 1182 1120 l 1,1,-1
 1149 950 l 1,2,-1
 703 950 l 1,3,-1
 518 0 l 1,4,-1
 337 0 l 1,5,-1
 522 950 l 1,6,-1
 76 950 l 1,7,-1
 109 1120 l 1,0,-1
EndSplineSet
EndChar
StartChar: afii10086
Encoding: 1092 1092 224
Width: 1877
Flags: HW
HStem: -29 156<427 487 1190 1240> 991 156<630 680 1382 1439> 1473 20G<1022 1207>
VStem: 87 196<357 391> 1586 193<725 759>
Fore
303 559 m 0,0,1
 283 458 283 458 283 381 c 0,0,0
 283 294 283 294 308 236 c 0,2,3
 354 127 354 127 487 127 c 128,-1,4
 620 127 620 127 710 236 c 0,5,6
 799 346 799 346 841 559 c 128,-1,7
 860 659 860 659 860 737 c 0,0,0
 860 824 860 824 836 882 c 0,8,9
 788 991 788 991 655 991 c 128,-1,10
 522 991 522 991 434 882 c 0,11,12
 344 773 344 773 303 559 c 0,0,1
649 -426 m 17,13,-1
 760 143 l 1,14,15
 699 60 699 60 613 16 c 0,16,17
 528 -29 528 -29 427 -29 c 0,18,19
 226 -29 226 -29 141 126 c 0,20,21
 87 223 87 223 87 365 c 0,0,0
 87 451 87 451 107 555 c 0,22,23
 161 833 161 833 308 990 c 128,-1,24
 454 1147 454 1147 656 1147 c 0,25,26
 756 1147 756 1147 825 1104 c 0,27,28
 892 1060 892 1060 922 977 c 1,29,-1
 1022 1493 l 1,30,-1
 1207 1493 l 1,31,-1
 1107 977 l 1,32,33
 1169 1060 1169 1060 1255 1104 c 0,34,35
 1339 1147 1339 1147 1439 1147 c 0,36,37
 1642 1147 1642 1147 1727 990 c 0,38,39
 1779 894 1779 894 1779 752 c 0,0,0
 1779 663 1779 663 1758 555 c 0,40,41
 1705 282 1705 282 1559 126 c 0,42,43
 1412 -29 1412 -29 1210 -29 c 0,44,45
 1108 -29 1108 -29 1041 14 c 0,46,47
 972 58 972 58 945 141 c 1,48,-1
 834 -426 l 9,49,-1
 649 -426 l 17,13,-1
1566 559 m 0,50,51
 1586 661 1586 661 1586 739 c 0,0,0
 1586 825 1586 825 1562 882 c 0,52,53
 1515 991 1515 991 1382 991 c 0,54,55
 1248 991 1248 991 1158 882 c 0,56,57
 1067 772 1067 772 1026 559 c 0,58,59
 1007 461 1007 461 1007 384 c 0,0,0
 1007 296 1007 296 1032 237 c 128,-1,60
 1080 127 1080 127 1214 127 c 0,61,62
 1347 127 1347 127 1436 236 c 0,63,64
 1524 345 1524 345 1566 559 c 0,50,51
EndSplineSet
EndChar
StartChar: afii10088
Encoding: 1094 1094 226
Width: 1394
Flags: HW
HStem: 0 153<293 1046> 1100 20G<297 481 1080 1264>
Fore
1046 0 m 8,0,-1
 79 0 l 1,1,-1
 297 1120 l 1,2,-1
 481 1120 l 1,3,-1
 293 153 l 1,4,-1
 892 153 l 1,5,-1
 1080 1120 l 1,6,-1
 1264 1120 l 1,7,-1
 1076 153 l 1,8,-1
 1260 153 l 1,9,-1
 1147 -426 l 1,10,-1
 963 -426 l 1,11,-1
 1046 0 l 8,0,-1
EndSplineSet
EndChar
StartChar: afii10089
Encoding: 1095 1095 227
Width: 1210
Flags: HW
HStem: 0 21G<726 910> 521 153<548 827> 1100 20G<254 438 944 1128>
VStem: 197 192<778 832>
Fore
726 0 m 17,0,-1
 827 521 l 1,1,-1
 484 521 l 2,2,3
 332 521 332 521 248 616 c 0,4,5
 197 674 197 674 197 778 c 0,0,0
 197 827 197 827 208 886 c 2,6,-1
 254 1120 l 1,7,-1
 438 1120 l 1,8,-1
 397 909 l 2,9,10
 389 867 389 867 389 832 c 0,0,0
 389 771 389 771 415 733 c 0,11,12
 456 674 456 674 560 674 c 2,13,-1
 857 674 l 9,14,-1
 944 1120 l 17,15,-1
 1128 1120 l 1,16,-1
 910 0 l 9,17,-1
 726 0 l 17,0,-1
EndSplineSet
EndChar
StartChar: afii10090
Encoding: 1096 1096 228
Width: 1787
Flags: HW
HStem: 0 153<293 1480> 1100 20G<297 481 1514 1698>
Fore
901 153 m 9,0,-1
 1326 153 l 1,1,-1
 1514 1120 l 1,2,-1
 1698 1120 l 1,3,-1
 1480 0 l 1,4,-1
 79 0 l 1,5,-1
 297 1120 l 1,6,-1
 481 1120 l 1,7,-1
 293 153 l 1,8,-1
 717 153 l 1,9,-1
 893 1061 l 1,10,-1
 1077 1061 l 1,11,-1
 901 153 l 9,0,-1
EndSplineSet
EndChar
StartChar: afii10091
Encoding: 1097 1097 229
Width: 1828
Flags: HW
HStem: 0 153<293 1480> 1100 20G<297 481 1514 1698>
Fore
1480 0 m 17,0,-1
 79 0 l 1,1,-1
 297 1120 l 1,2,-1
 481 1120 l 1,3,-1
 293 153 l 1,4,-1
 717 153 l 1,5,-1
 893 1061 l 1,6,-1
 1077 1061 l 1,7,-1
 901 153 l 9,8,-1
 1326 153 l 1,9,-1
 1514 1120 l 1,10,-1
 1698 1120 l 1,11,-1
 1510 153 l 17,12,-1
 1694 153 l 1,13,-1
 1581 -426 l 1,14,-1
 1397 -426 l 1,15,-1
 1480 0 l 17,0,-1
EndSplineSet
EndChar
StartChar: afii10092
Encoding: 1098 1098 230
Width: 1440
Flags: HW
HStem: 0 153<526 805> 514 153<626 885> 966 154<145 500>
VStem: 1085 200<376 409>
Fore
1081 332 m 16,0,1
 1085 356 1085 356 1085 376 c 0,0,0
 1085 436 1085 436 1045 468 c 0,2,3
 987 514 987 514 859 514 c 2,4,-1
 596 514 l 1,5,-1
 526 153 l 1,6,-1
 789 153 l 2,7,8
 918 153 918 153 993 199 c 0,9,10
 1063 242 1063 242 1081 332 c 16,0,1
500 966 m 25,11,-1
 116 966 l 17,12,-1
 146 1120 l 1,13,-1
 714 1120 l 17,14,-1
 626 667 l 1,15,-1
 897 667 l 2,16,17
 1105 667 1105 667 1209 582 c 0,18,19
 1285 520 1285 520 1285 409 c 0,0,0
 1285 373 1285 373 1277 332 c 8,20,21
 1244 164 1244 164 1112 82 c 0,22,23
 981 0 981 0 767 0 c 2,24,-1
 312 0 l 9,25,-1
 500 966 l 25,11,-1
EndSplineSet
EndChar
StartChar: afii10094
Encoding: 1100 1100 232
Width: 1207
Flags: HW
HStem: 0 153<293 576> 514 153<393 656> 1100 20G<297 481>
VStem: 852 200<376 409>
Fore
848 332 m 16,0,1
 852 356 852 356 852 376 c 0,0,0
 852 436 852 436 812 468 c 0,2,3
 754 514 754 514 626 514 c 2,4,-1
 363 514 l 1,5,-1
 293 153 l 1,6,-1
 556 153 l 2,7,8
 685 153 685 153 760 199 c 0,9,10
 830 242 830 242 848 332 c 16,0,1
297 1120 m 9,11,-1
 481 1120 l 17,12,-1
 393 667 l 1,13,-1
 664 667 l 2,14,15
 872 667 872 667 976 582 c 0,16,17
 1052 520 1052 520 1052 409 c 0,0,0
 1052 373 1052 373 1044 332 c 8,18,19
 1011 164 1011 164 879 82 c 0,20,21
 748 0 748 0 534 0 c 2,22,-1
 79 0 l 1,23,-1
 297 1120 l 9,11,-1
EndSplineSet
EndChar
StartChar: afii10095
Encoding: 1101 1101 233
Width: 1260
Flags: HW
HStem: -29 156<424 482> 487 144<257 962> 991 156<632 675>
VStem: 964 194<682 715>
Fore
345 942 m 17,0,1
 385 955 385 955 424 965 c 0,2,3
 528 991 528 991 634 991 c 0,4,5
 817 991 817 991 899 892 c 0,6,7
 964 815 964 815 964 684 c 0,0,0
 964 658 964 658 962 631 c 0,8,-1
 285 631 l 1,9,-1
 257 487 l 1,10,-1
 934 487 l 0,11,12
 883 318 883 318 770 226 c 0,13,14
 649 127 649 127 466 127 c 0,15,16
 360 127 360 127 266 153 c 0,17,18
 171 179 171 179 83 231 c 1,19,-1
 49 57 l 1,20,21
 140 15 140 15 240 -7 c 128,-1,22
 339 -29 339 -29 446 -29 c 0,23,24
 714 -29 714 -29 901 127 c 0,25,26
 1088 283 1088 283 1142 559 c 128,-1,27
 1158 641 1158 641 1158 713 c 0,0,0
 1158 881 1158 881 1069 991 c 0,28,29
 943 1147 943 1147 675 1147 c 0,30,31
 568 1147 568 1147 460 1125 c 0,32,33
 418 1117 418 1117 377 1105 c 1,34,35
 361 1025 361 1025 345 942 c 17,0,1
EndSplineSet
EndChar
StartChar: afii10096
Encoding: 1102 1102 234
Width: 1664
Flags: HW
HStem: -29 156<918 951> 991 156<1115 1147>
VStem: 501 197<386 419> 1366 199<696 730>
Fore
1117 991 m 0,0,1
 969 991 969 991 860 876 c 0,2,3
 752 760 752 760 713 559 c 128,-1,4
 698 482 698 482 698 417 c 0,0,0
 698 313 698 313 736 242 c 0,5,6
 800 127 800 127 949 127 c 0,7,8
 1096 127 1096 127 1204 243 c 128,-1,9
 1313 359 1313 359 1352 559 c 0,10,11
 1366 634 1366 634 1366 698 c 0,0,0
 1366 802 1366 802 1327 874 c 0,12,13
 1264 991 1264 991 1117 991 c 0,0,1
547 673 m 1,14,15
 603 863 603 863 740 991 c 0,16,17
 907 1147 907 1147 1147 1147 c 0,18,19
 1387 1147 1387 1147 1494 991 c 128,-1,20
 1565 887 1565 887 1565 730 c 0,0,0
 1565 651 1565 651 1547 559 c 0,21,22
 1493 284 1493 284 1326 128 c 0,23,24
 1158 -29 1158 -29 918 -29 c 0,25,26
 677 -29 677 -29 572 128 c 0,27,28
 501 232 501 232 501 388 c 0,0,0
 501 451 501 451 512 521 c 0,29,-1
 364 521 l 1,30,-1
 263 0 l 1,31,-1
 79 0 l 1,32,-1
 297 1120 l 1,33,-1
 481 1120 l 1,34,-1
 394 673 l 1,35,-1
 547 673 l 1,14,15
EndSplineSet
EndChar
StartChar: afii10097
Encoding: 1103 1103 235
Width: 1232
Flags: HW
HStem: 0 21G<-64 131 740 925> 473 155<639 832> 965 155<719 927>
VStem: 253 194<732 762>
Fore
425 525 m 1,0,1
 324 552 324 552 282 622 c 128,-1,2
 253 669 253 669 253 732 c 0,0,0
 253 763 253 763 260 797 c 0,3,4
 292 959 292 959 414 1040 c 0,5,6
 538 1120 538 1120 755 1120 c 2,7,-1
 1143 1120 l 1,8,-1
 925 0 l 1,9,-1
 740 0 l 1,10,-1
 832 473 l 1,11,-1
 663 473 l 2,12,13
 566 473 566 473 500 436 c 0,14,15
 434 400 434 400 349 287 c 1,16,-1
 131 0 l 1,17,-1
 -64 0 l 1,18,-1
 170 306 l 1,19,20
 241 400 241 400 303 454 c 0,21,22
 367 508 367 508 425 525 c 1,0,1
928 965 m 1,23,-1
 730 965 l 2,24,25
 611 965 611 965 540 923 c 0,26,27
 467 881 467 881 451 797 c 0,28,29
 447 778 447 778 447 762 c 0,0,0
 447 704 447 704 491 671 c 0,30,31
 545 628 545 628 664 628 c 2,32,-1
 862 628 l 1,33,-1
 928 965 l 1,23,-1
EndSplineSet
EndChar
StartChar: afii10099
Encoding: 1106 1106 238
Width: 1319
Flags: HW
HStem: 0 21G<79 264> 900 160<760 832> 1284 125<199 329 538 840> 1284 272<382 840>
VStem: 959 190<697 753>
Fore
329 1284 m 1,0,-1
 176 1284 l 1,1,-1
 200 1409 l 1,2,-1
 353 1409 l 1,3,-1
 382 1556 l 1,4,-1
 567 1556 l 1,5,-1
 538 1409 l 1,6,-1
 864 1409 l 1,7,-1
 840 1284 l 1,8,-1
 514 1284 l 9,9,-1
 431 859 l 17,10,11
 517 960 517 960 615 1010 c 0,12,13
 715 1060 715 1060 832 1060 c 0,14,15
 1017 1060 1017 1060 1101 941 c 0,16,17
 1149 872 1149 872 1149 753 c 0,0,0
 1149 680 1149 680 1132 589 c 10,18,-1
 1013 -20 l 18,19,20
 972 -234 972 -234 871 -330 c 0,21,22
 771 -426 771 -426 590 -426 c 2,23,-1
 520 -426 l 1,24,-1
 551 -270 l 1,25,-1
 600 -270 l 2,26,27
 710 -270 710 -270 752 -222 c 0,28,29
 801 -167 801 -167 829 -20 c 2,30,-1
 946 583 l 2,31,32
 959 646 959 646 959 697 c 0,0,0
 959 773 959 773 931 821 c 0,33,34
 884 900 884 900 760 900 c 0,35,36
 606 900 606 900 507 805 c 0,37,38
 401 704 401 704 370 546 c 2,39,-1
 264 0 l 1,40,-1
 79 0 l 1,41,-1
 329 1284 l 1,0,-1
EndSplineSet
EndChar
StartChar: afii10101
Encoding: 1108 1108 240
Width: 1260
Flags: HW
HStem: -29 156<672 738> 487 144<307 984> 991 156<672 738>
Fore
1053 942 m 17,0,1
 1019 955 1019 955 984 965 c 0,2,3
 890 991 890 991 784 991 c 0,4,5
 601 991 601 991 479 892 c 0,6,7
 367 800 367 800 316 631 c 0,8,-1
 993 631 l 1,9,-1
 965 487 l 1,10,-1
 288 487 l 0,11,12
 285 460 285 460 285 434 c 0,0,0
 285 303 285 303 350 226 c 0,13,14
 433 127 433 127 616 127 c 0,15,16
 722 127 722 127 826 153 c 0,17,18
 931 179 931 179 1039 231 c 1,19,-1
 1005 57 l 1,20,21
 898 15 898 15 790 -7 c 128,-1,22
 681 -29 681 -29 574 -29 c 0,23,24
 306 -29 306 -29 181 127 c 0,25,26
 92 237 92 237 92 405 c 0,0,0
 92 477 92 477 108 559 c 128,-1,27
 161 835 161 835 349 991 c 0,28,29
 535 1147 535 1147 803 1147 c 0,30,31
 910 1147 910 1147 1010 1125 c 0,32,33
 1048 1117 1048 1117 1085 1105 c 1,34,35
 1069 1025 1069 1025 1053 942 c 17,0,1
EndSplineSet
EndChar
StartChar: afii10106
Encoding: 1113 1113 245
Width: 1840
Flags: HW
HStem: 0 153<1026 1214> 514 153<1126 1287> 967 153<486 1000>
VStem: 1485 200<376 409>
Fore
1000 967 m 9,0,-1
 640 967 l 17,1,2
 614 833 l 2,3,4
 543 467 543 467 374 207 c 0,5,6
 240 0 240 0 -74 -29 c 9,7,-1
 -44 124 l 17,8,9
 140 151 140 151 224 278 c 0,10,11
 362 485 362 485 445 908 c 2,12,-1
 486 1120 l 1,13,-1
 1214 1120 l 17,14,-1
 1126 667 l 1,15,-1
 1297 667 l 2,16,17
 1505 667 1505 667 1609 582 c 0,18,19
 1685 520 1685 520 1685 409 c 0,0,0
 1685 373 1685 373 1677 332 c 8,20,21
 1644 164 1644 164 1512 82 c 0,22,23
 1381 0 1381 0 1167 0 c 10,24,-1
 812 0 l 17,25,-1
 1000 967 l 9,0,-1
1481 332 m 16,26,27
 1485 356 1485 356 1485 376 c 0,0,0
 1485 437 1485 437 1445 468 c 0,28,29
 1387 514 1387 514 1259 514 c 2,30,-1
 1096 514 l 1,31,-1
 1026 153 l 1,32,-1
 1189 153 l 2,33,34
 1318 153 1318 153 1393 199 c 0,35,36
 1463 242 1463 242 1481 332 c 16,26,27
EndSplineSet
EndChar
StartChar: afii10107
Encoding: 1114 1114 246
Width: 1826
Flags: HW
HStem: 0 153<1024 1212> 514 153<393 910 1124 1280>
VStem: 1483 200<377 409>
Fore
1479 332 m 16,0,1
 1483 356 1483 356 1483 377 c 0,0,0
 1483 437 1483 437 1443 469 c 0,2,3
 1386 514 1386 514 1257 514 c 2,4,-1
 1094 514 l 1,5,-1
 1024 153 l 1,6,-1
 1187 153 l 2,7,8
 1316 153 1316 153 1391 199 c 0,9,10
 1461 242 1461 242 1479 332 c 16,0,1
810 0 m 17,11,-1
 910 514 l 1,12,-1
 363 514 l 1,13,-1
 263 0 l 1,14,-1
 79 0 l 1,15,-1
 297 1120 l 1,16,-1
 481 1120 l 1,17,-1
 393 667 l 1,18,-1
 940 667 l 1,19,-1
 1028 1120 l 1,20,-1
 1212 1120 l 17,21,-1
 1124 667 l 1,22,-1
 1295 667 l 2,23,24
 1503 667 1503 667 1607 582 c 0,25,26
 1683 520 1683 520 1683 409 c 0,0,0
 1683 373 1683 373 1675 332 c 8,27,28
 1642 164 1642 164 1510 82 c 0,29,30
 1379 0 1379 0 1165 0 c 10,31,-1
 810 0 l 17,11,-1
EndSplineSet
EndChar
StartChar: afii10108
Encoding: 1115 1115 247
Width: 1305
Flags: HW
HStem: 0 21G<79 264 833 1017> 900 160<760 832> 1284 125<199 329 538 840> 1284 272<382 840>
VStem: 959 190<697 750>
Fore
329 1284 m 1,0,-1
 176 1284 l 1,1,-1
 200 1409 l 1,2,-1
 353 1409 l 1,3,-1
 382 1556 l 1,4,-1
 567 1556 l 1,5,-1
 538 1409 l 1,6,-1
 864 1409 l 1,7,-1
 840 1284 l 1,8,-1
 514 1284 l 9,9,-1
 431 859 l 17,10,11
 517 960 517 960 615 1010 c 0,12,13
 715 1060 715 1060 832 1060 c 0,14,15
 1022 1060 1022 1060 1101 941 c 0,16,17
 1149 869 1149 869 1149 750 c 0,0,0
 1149 678 1149 678 1132 589 c 10,18,-1
 1017 0 l 17,19,-1
 833 0 l 1,20,-1
 946 583 l 2,21,22
 959 646 959 646 959 697 c 0,0,0
 959 773 959 773 931 821 c 0,23,24
 884 900 884 900 760 900 c 0,25,26
 608 900 608 900 507 805 c 0,27,28
 402 707 402 707 370 546 c 2,29,-1
 264 0 l 1,30,-1
 79 0 l 1,31,-1
 329 1284 l 1,0,-1
EndSplineSet
EndChar
StartChar: afii10193
Encoding: 1119 1119 251
Width: 1356
Flags: HW
HStem: 0 154<79 892> 1100 20G<297 481 1080 1264>
Fore
653 0 m 25,0,-1
 1046 0 l 1,1,-1
 1264 1120 l 1,2,-1
 1080 1120 l 1,3,-1
 892 154 l 1,4,-1
 293 154 l 1,5,-1
 481 1120 l 1,6,-1
 297 1120 l 1,7,-1
 79 0 l 1,8,-1
 469 0 l 25,9,-1
 386 -426 l 25,10,-1
 570 -426 l 25,11,-1
 653 0 l 25,0,-1
EndSplineSet
EndChar
StartChar: uni2010
Encoding: 8208 8208 237
Width: 739
Flags: W
Fore
125 643 m 1,0,-1
 664 643 l 1,1,-1
 633 479 l 1,2,-1
 92 479 l 1,3,-1
 125 643 l 1,0,-1
EndSplineSet
KernsSLIF: 356 -149 0 0 221 -149 0 0 376 -149 0 0 89 -149 0 0 88 -73 0 0 87 -36 0 0 86 -83 0 0 84 -149 0 0
EndChar
StartChar: figuredash
Encoding: 8210 8210 239
Width: 1024
Flags: W
Fore
14 633 m 1,0,-1
 1038 633 l 1,1,-1
 1010 489 l 1,2,-1
 -14 489 l 1,3,-1
 14 633 l 1,0,-1
EndSplineSet
EndChar
StartChar: endash
Encoding: 8211 8211 178
Width: 1024
Flags: W
Fore
14 633 m 1,0,-1
 1038 633 l 1,1,-1
 1010 489 l 1,2,-1
 -14 489 l 1,3,-1
 14 633 l 1,0,-1
EndSplineSet
EndChar
StartChar: emdash
Encoding: 8212 8212 179
Width: 2048
Flags: W
Fore
14 633 m 1,0,-1
 2062 633 l 1,1,-1
 2034 489 l 1,2,-1
 -14 489 l 1,3,-1
 14 633 l 1,0,-1
EndSplineSet
EndChar
StartChar: afii00208
Encoding: 8213 8213 180
Width: 2048
Flags: W
Fore
14 633 m 1,0,-1
 2062 633 l 1,1,-1
 2034 489 l 1,2,-1
 -14 489 l 1,3,-1
 14 633 l 1,0,-1
EndSplineSet
EndChar
StartChar: quoteleft
Encoding: 8216 8216 182
Width: 651
Flags: W
Fore
479 1001 m 1,0,-1
 268 1001 l 1,1,-1
 303 1174 l 1,2,-1
 528 1493 l 1,3,-1
 657 1493 l 1,4,-1
 514 1174 l 1,5,-1
 479 1001 l 1,0,-1
EndSplineSet
KernsSLIF: 221 47 0 0 193 -243 0 0 194 -243 0 0 376 47 0 0 195 -243 0 0 192 -243 0 0 198 -301 0 0 196 -243 0 0 89 47 0 0 86 75 0 0 65 -243 0 0
EndChar
StartChar: quoteright
Encoding: 8217 8217 183
Width: 651
Flags: W
Fore
455 1493 m 1,0,-1
 666 1493 l 1,1,-1
 633 1321 l 1,2,-1
 406 1001 l 1,3,-1
 276 1001 l 1,4,-1
 420 1321 l 1,5,-1
 455 1493 l 1,0,-1
EndSplineSet
EndChar
StartChar: quotesinglbase
Encoding: 8218 8218 196
Width: 651
Flags: W
Fore
184 254 m 1,0,-1
 395 254 l 1,1,-1
 360 82 l 1,2,-1
 135 -238 l 1,3,-1
 6 -238 l 1,4,-1
 150 82 l 1,5,-1
 184 254 l 1,0,-1
EndSplineSet
KernsSLIF: 356 -225 0 0 268 -73 0 0 262 -73 0 0 253 -92 0 0 221 -339 0 0 210 -73 0 0 212 -73 0 0 211 -73 0 0 64258 -73 0 0 64257 -73 0 0 376 -339 0 0 255 -92 0 0 338 -73 0 0 213 -73 0 0 216 -55 0 0 214 -73 0 0 199 -73 0 0 121 -92 0 0 119 -73 0 0 118 -112 0 0 102 -73 0 0 89 -339 0 0 87 -149 0 0 86 -264 0 0 84 -225 0 0 81 -73 0 0 79 -73 0 0 67 -73 0 0
EndChar
StartChar: quotedblleft
Encoding: 8220 8220 180
Width: 1061
Flags: W
Fore
479 1001 m 1,0,-1
 268 1001 l 1,1,-1
 303 1174 l 1,2,-1
 528 1493 l 1,3,-1
 657 1493 l 1,4,-1
 514 1174 l 1,5,-1
 479 1001 l 1,0,-1
889 1001 m 1,6,-1
 678 1001 l 1,7,-1
 713 1174 l 1,8,-1
 938 1493 l 1,9,-1
 1067 1493 l 1,10,-1
 924 1174 l 1,11,-1
 889 1001 l 1,6,-1
EndSplineSet
KernsSLIF: 221 47 0 0 193 -243 0 0 194 -243 0 0 376 47 0 0 195 -243 0 0 192 -243 0 0 198 -301 0 0 196 -243 0 0 89 47 0 0 86 75 0 0 65 -243 0 0
EndChar
StartChar: quotedblright
Encoding: 8221 8221 181
Width: 1061
Flags: W
Fore
455 1493 m 1,0,-1
 666 1493 l 1,1,-1
 631 1321 l 1,2,-1
 406 1001 l 1,3,-1
 276 1001 l 1,4,-1
 420 1321 l 1,5,-1
 455 1493 l 1,0,-1
864 1493 m 1,6,-1
 1075 1493 l 1,7,-1
 1040 1321 l 1,8,-1
 815 1001 l 1,9,-1
 686 1001 l 1,10,-1
 829 1321 l 1,11,-1
 864 1493 l 1,6,-1
EndSplineSet
EndChar
StartChar: quotedblbase
Encoding: 8222 8222 197
Width: 1061
Flags: W
Fore
184 254 m 1,0,-1
 395 254 l 1,1,-1
 360 82 l 1,2,-1
 135 -238 l 1,3,-1
 6 -238 l 1,4,-1
 150 82 l 1,5,-1
 184 254 l 1,0,-1
594 254 m 1,6,-1
 805 254 l 1,7,-1
 770 82 l 1,8,-1
 545 -238 l 1,9,-1
 416 -238 l 1,10,-1
 559 82 l 1,11,-1
 594 254 l 1,6,-1
EndSplineSet
KernsSLIF: 356 -225 0 0 268 -73 0 0 262 -73 0 0 253 -112 0 0 221 -339 0 0 210 -73 0 0 212 -73 0 0 211 -73 0 0 64258 -73 0 0 64257 -73 0 0 376 -339 0 0 255 -112 0 0 338 -73 0 0 213 -73 0 0 216 -55 0 0 214 -73 0 0 199 -73 0 0 121 -112 0 0 119 -73 0 0 118 -149 0 0 102 -73 0 0 89 -339 0 0 87 -149 0 0 86 -264 0 0 84 -225 0 0 81 -73 0 0 79 -73 0 0 67 -73 0 0
EndChar
StartChar: dagger
Encoding: 8224 8224 130
Width: 1024
Flags: W
Fore
565 1493 m 1,0,-1
 739 1493 l 1,1,-1
 659 1073 l 1,2,-1
 1026 1073 l 1,3,-1
 995 920 l 1,4,-1
 629 920 l 1,5,-1
 412 -197 l 1,6,-1
 236 -197 l 1,7,-1
 453 920 l 1,8,-1
 86 920 l 1,9,-1
 115 1073 l 1,10,-1
 483 1073 l 1,11,-1
 565 1493 l 1,0,-1
EndSplineSet
EndChar
StartChar: daggerdbl
Encoding: 8225 8225 194
Width: 1024
Flags: W
Fore
874 223 m 1,0,-1
 508 223 l 1,1,-1
 426 -197 l 1,2,-1
 250 -197 l 1,3,-1
 332 223 l 1,4,-1
 -35 223 l 1,5,-1
 -6 377 l 1,6,-1
 360 377 l 1,7,-1
 467 920 l 1,8,-1
 100 920 l 1,9,-1
 129 1073 l 1,10,-1
 496 1073 l 1,11,-1
 578 1493 l 1,12,-1
 754 1493 l 1,13,-1
 672 1073 l 1,14,-1
 1040 1073 l 1,15,-1
 1010 920 l 1,16,-1
 643 920 l 1,17,-1
 537 377 l 1,18,-1
 903 377 l 1,19,-1
 874 223 l 1,0,-1
EndSplineSet
EndChar
StartChar: bullet
Encoding: 8226 8226 135
Width: 1208
Flags: W
Fore
307 762 m 0,0,1
 307 885 307 885 394 971 c 128,-1,2
 481 1057 481 1057 604 1057 c 0,3,4
 726 1057 726 1057 812.5 970.5 c 128,-1,5
 899 884 899 884 899 762 c 0,6,7
 899 640 899 640 811.5 552.5 c 128,-1,8
 724 465 724 465 602 465 c 0,9,10
 479 465 479 465 393 552 c 128,-1,11
 307 639 307 639 307 762 c 0,0,1
EndSplineSet
EndChar
StartChar: ellipsis
Encoding: 8230 8230 171
Width: 2048
Flags: W
Fore
182 254 m 1,0,-1
 393 254 l 1,1,-1
 344 0 l 1,2,-1
 133 0 l 1,3,-1
 182 254 l 1,0,-1
1548 254 m 1,4,-1
 1759 254 l 1,5,-1
 1710 0 l 1,6,-1
 1499 0 l 1,7,-1
 1548 254 l 1,4,-1
864 254 m 1,8,-1
 1075 254 l 1,9,-1
 1026 0 l 1,10,-1
 815 0 l 1,11,-1
 864 254 l 1,8,-1
EndSplineSet
Ligature: 0 1 'liga' period period period
EndChar
StartChar: perthousand
Encoding: 8240 8240 198
Width: 2765
Flags: W
Fore
2163 -29 m 0,0,1
 2026 -29 2026 -29 1947 60 c 128,-1,2
 1868 149 1868 149 1868 301 c 0,3,4
 1868 517 1868 517 1983.5 650.5 c 128,-1,5
 2099 784 2099 784 2286 784 c 0,6,7
 2421 784 2421 784 2499.5 696 c 128,-1,8
 2578 608 2578 608 2578 455 c 0,9,10
 2578 240 2578 240 2462.5 105.5 c 128,-1,11
 2347 -29 2347 -29 2163 -29 c 0,0,1
2419 446 m 0,12,13
 2419 553 2419 553 2380.5 606 c 128,-1,14
 2342 659 2342 659 2265 659 c 0,15,16
 2154 659 2154 659 2091 561.5 c 128,-1,17
 2028 464 2028 464 2028 291 c 0,18,19
 2028 198 2028 198 2068 148 c 128,-1,20
 2108 98 2108 98 2183 98 c 0,21,22
 2290 98 2290 98 2354.5 193 c 128,-1,23
 2419 288 2419 288 2419 446 c 0,12,13
481 707 m 0,24,25
 345 707 345 707 265.5 795.5 c 128,-1,26
 186 884 186 884 186 1036 c 0,27,28
 186 1252 186 1252 302 1386 c 128,-1,29
 418 1520 418 1520 604 1520 c 0,30,31
 740 1520 740 1520 819.5 1430.5 c 128,-1,32
 899 1341 899 1341 899 1188 c 0,33,34
 899 974 899 974 783 840.5 c 128,-1,35
 667 707 667 707 481 707 c 0,24,25
739 1182 m 0,36,37
 739 1287 739 1287 700 1340 c 128,-1,38
 661 1393 661 1393 584 1393 c 0,39,40
 472 1393 472 1393 409 1296 c 128,-1,41
 346 1199 346 1199 346 1026 c 0,42,43
 346 934 346 934 386.5 884 c 128,-1,44
 427 834 427 834 502 834 c 0,45,46
 609 834 609 834 674 929 c 128,-1,47
 739 1024 739 1024 739 1182 c 0,36,37
1599 446 m 0,48,49
 1599 553 1599 553 1561 606 c 128,-1,50
 1523 659 1523 659 1446 659 c 0,51,52
 1335 659 1335 659 1271.5 561.5 c 128,-1,53
 1208 464 1208 464 1208 291 c 0,54,55
 1208 198 1208 198 1248.5 148 c 128,-1,56
 1289 98 1289 98 1364 98 c 0,57,58
 1471 98 1471 98 1535 193 c 128,-1,59
 1599 288 1599 288 1599 446 c 0,48,49
1343 -29 m 0,60,61
 1207 -29 1207 -29 1128 60 c 128,-1,62
 1049 149 1049 149 1049 301 c 0,63,64
 1049 517 1049 517 1164.5 650.5 c 128,-1,65
 1280 784 1280 784 1466 784 c 0,66,67
 1602 784 1602 784 1680.5 696 c 128,-1,68
 1759 608 1759 608 1759 455 c 0,69,70
 1759 240 1759 240 1643.5 105.5 c 128,-1,71
 1528 -29 1528 -29 1343 -29 c 0,60,61
1683 1520 m 1,72,-1
 449 -29 l 1,73,-1
 289 -29 l 1,74,-1
 1524 1520 l 1,75,-1
 1683 1520 l 1,72,-1
EndSplineSet
EndChar
StartChar: guilsinglleft
Encoding: 8249 8249 190
Width: 819
Flags: W
Fore
692 1059 m 1,0,-1
 655 858 l 1,1,-1
 299 588 l 1,2,-1
 551 322 l 1,3,-1
 514 141 l 1,4,-1
 127 559 l 1,5,-1
 143 641 l 1,6,-1
 692 1059 l 1,0,-1
EndSplineSet
EndChar
StartChar: guilsinglright
Encoding: 8250 8250 191
Width: 819
Flags: W
Fore
127 141 m 1,0,-1
 166 342 l 1,1,-1
 522 612 l 1,2,-1
 270 879 l 1,3,-1
 305 1059 l 1,4,-1
 692 641 l 1,5,-1
 678 559 l 1,6,-1
 127 141 l 1,0,-1
EndSplineSet
EndChar
StartChar: Euro
Encoding: 8364 8364 258
Width: 1303
Flags: W
Fore
1243 1378 m 1,0,-1
 1210 1165 l 1,1,2
 1127 1266 1127 1266 1043.5 1313 c 128,-1,3
 960 1360 960 1360 864 1360 c 0,4,5
 721 1360 721 1360 613 1262.5 c 128,-1,6
 505 1165 505 1165 434 973 c 1,7,-1
 954 973 l 1,8,-1
 901 850 l 1,9,-1
 397 850 l 1,10,11
 385 800 385 800 377 749 c 128,-1,12
 369 698 369 698 365 643 c 1,13,-1
 809 643 l 1,14,-1
 754 520 l 1,15,-1
 361 520 l 1,16,17
 370 325 370 325 449.5 228 c 128,-1,18
 529 131 529 131 680 131 c 0,19,20
 789 131 789 131 885 174 c 128,-1,21
 981 217 981 217 1083 313 c 1,22,-1
 1044 74 l 1,23,24
 950 23 950 23 851 -3 c 128,-1,25
 752 -29 752 -29 655 -29 c 0,26,27
 432 -29 432 -29 300.5 117 c 128,-1,28
 169 263 169 263 159 520 c 1,29,-1
 -39 520 l 1,30,-1
 16 643 l 1,31,-1
 161 643 l 1,32,33
 166 698 166 698 174 749.5 c 128,-1,34
 182 801 182 801 193 850 c 1,35,-1
 20 850 l 1,36,-1
 76 973 l 1,37,-1
 227 973 l 1,38,39
 324 1249 324 1249 484 1384.5 c 128,-1,40
 644 1520 644 1520 872 1520 c 0,41,42
 975 1520 975 1520 1067.5 1484.5 c 128,-1,43
 1160 1449 1160 1449 1243 1378 c 1,0,-1
EndSplineSet
EndChar
StartChar: trademark
Encoding: 8482 8482 140
Width: 2048
Flags: W
Fore
1098 1493 m 1,0,-1
 1272 1237 l 1,1,-1
 1436 1493 l 1,2,-1
 1606 1493 l 1,3,-1
 1606 915 l 1,4,-1
 1493 915 l 1,5,-1
 1493 1399 l 1,6,-1
 1298 1096 l 1,7,-1
 1243 1096 l 1,8,-1
 1040 1399 l 1,9,-1
 1040 915 l 1,10,-1
 926 915 l 1,11,-1
 926 1493 l 1,12,-1
 1098 1493 l 1,0,-1
813 1493 m 1,13,-1
 813 1399 l 1,14,-1
 610 1399 l 1,15,-1
 610 915 l 1,16,-1
 496 915 l 1,17,-1
 496 1399 l 1,18,-1
 295 1399 l 1,19,-1
 295 1493 l 1,20,-1
 813 1493 l 1,13,-1
EndSplineSet
Ligature: 0 1 'liga' T M
EndChar
StartChar: partialdiff
Encoding: 8706 8706 152
Width: 1059
Flags: W
Fore
756 621 m 1,0,1
 771 708 771 708 778.5 789.5 c 128,-1,2
 786 871 786 871 786 946 c 0,3,4
 786 1075 786 1075 749.5 1140.5 c 128,-1,5
 713 1206 713 1206 641 1206 c 0,6,7
 586 1206 586 1206 514 1148 c 128,-1,8
 442 1090 442 1090 406 1090 c 0,9,10
 370 1090 370 1090 346 1112 c 128,-1,11
 322 1134 322 1134 322 1165 c 0,12,13
 322 1227 322 1227 394 1276 c 128,-1,14
 466 1325 466 1325 567 1325 c 0,15,16
 747 1325 747 1325 854 1170 c 128,-1,17
 961 1015 961 1015 961 752 c 0,18,19
 961 417 961 417 816.5 196 c 128,-1,20
 672 -25 672 -25 459 -25 c 0,21,22
 307 -25 307 -25 205.5 83 c 128,-1,23
 104 191 104 191 104 354 c 0,24,25
 104 552 104 552 214.5 680.5 c 128,-1,26
 325 809 325 809 487 809 c 0,27,28
 588 809 588 809 653 763.5 c 128,-1,29
 718 718 718 718 756 621 c 1,0,1
707 494 m 0,30,31
 707 610 707 610 663.5 672.5 c 128,-1,32
 620 735 620 735 541 735 c 0,33,34
 432 735 432 735 361.5 606 c 128,-1,35
 291 477 291 477 291 270 c 0,36,37
 291 154 291 154 334 92.5 c 128,-1,38
 377 31 377 31 457 31 c 0,39,40
 566 31 566 31 636.5 161 c 128,-1,41
 707 291 707 291 707 494 c 0,30,31
EndSplineSet
EndChar
StartChar: Delta
Encoding: 8710 8710 168
Width: 1370
Flags: W
Fore
684 1262 m 1,0,-1
 266 178 l 1,1,-1
 1102 178 l 1,2,-1
 684 1262 l 1,0,-1
573 1473 m 1,3,-1
 797 1473 l 1,4,-1
 1376 0 l 1,5,-1
 -6 0 l 1,6,-1
 573 1473 l 1,3,-1
EndSplineSet
EndChar
StartChar: product
Encoding: 8719 8719 154
Width: 1550
Flags: W
Fore
156 1473 m 1,0,-1
 1393 1473 l 1,1,-1
 1393 -393 l 1,2,-1
 1153 -393 l 1,3,-1
 1153 1268 l 1,4,-1
 395 1268 l 1,5,-1
 395 -393 l 1,6,-1
 156 -393 l 1,7,-1
 156 1473 l 1,0,-1
EndSplineSet
EndChar
StartChar: summation
Encoding: 8721 8721 153
Width: 1380
Flags: W
Fore
55 1473 m 1,0,-1
 1313 1473 l 1,1,-1
 1313 1280 l 1,2,-1
 354 1280 l 1,3,-1
 1026 563 l 1,4,-1
 332 -201 l 1,5,-1
 1339 -201 l 1,6,-1
 1339 -393 l 1,7,-1
 25 -393 l 1,8,-1
 25 -244 l 1,9,-1
 750 557 l 1,10,-1
 55 1296 l 1,11,-1
 55 1473 l 1,0,-1
EndSplineSet
EndChar
StartChar: minus
Encoding: 8722 8722 238
Width: 1716
Flags: W
Fore
217 727 m 1,0,-1
 1499 727 l 1,1,-1
 1499 557 l 1,2,-1
 217 557 l 1,3,-1
 217 727 l 1,0,-1
EndSplineSet
EndChar
StartChar: fraction
Encoding: 8725 8725 188
Width: 342
Flags: W
Fore
698 1520 m 1,0,-1
 877 1520 l 1,1,-1
 -356 -29 l 1,2,-1
 -537 -29 l 1,3,-1
 698 1520 l 1,0,-1
EndSplineSet
EndChar
StartChar: periodcentered
Encoding: 8729 8729 257
Width: 651
Flags: W
Fore
283 838 m 1,0,-1
 494 838 l 1,1,-1
 444 584 l 1,2,-1
 233 584 l 1,3,-1
 283 838 l 1,0,-1
EndSplineSet
EndChar
StartChar: radical
Encoding: 8730 8730 165
Width: 1305
Flags: W
Fore
1116 1661 m 1,0,-1
 1305 1661 l 1,1,-1
 1305 1565 l 1,2,-1
 1190 1565 l 1,3,-1
 596 -41 l 1,4,-1
 530 -41 l 1,5,-1
 211 842 l 1,6,-1
 86 797 l 1,7,-1
 61 877 l 1,8,-1
 344 975 l 1,9,-1
 600 266 l 1,10,-1
 1116 1661 l 1,0,-1
EndSplineSet
EndChar
StartChar: infinity
Encoding: 8734 8734 146
Width: 1706
Flags: W
Fore
915 559 m 1,0,1
 964 471 964 471 1031 426 c 128,-1,2
 1098 381 1098 381 1182 381 c 0,3,4
 1283 381 1283 381 1347 448.5 c 128,-1,5
 1411 516 1411 516 1411 621 c 0,6,7
 1411 722 1411 722 1352 789 c 128,-1,8
 1293 856 1293 856 1204 856 c 0,9,10
 1122 856 1122 856 1055.5 788.5 c 128,-1,11
 989 721 989 721 915 559 c 1,0,1
793 666 m 1,12,13
 744 754 744 754 677.5 798 c 128,-1,14
 611 842 611 842 526 842 c 0,15,16
 424 842 424 842 360.5 776 c 128,-1,17
 297 710 297 710 297 604 c 0,18,19
 297 503 297 503 356 436 c 128,-1,20
 415 369 415 369 504 369 c 0,21,22
 586 369 586 369 653 437 c 128,-1,23
 720 505 720 505 793 666 c 1,12,13
864 483 m 1,24,25
 794 348 794 348 715.5 284.5 c 128,-1,26
 637 221 637 221 543 221 c 0,27,28
 407 221 407 221 314 332.5 c 128,-1,29
 221 444 221 444 221 610 c 0,30,31
 221 785 221 785 304.5 893 c 128,-1,32
 388 1001 388 1001 522 1001 c 0,33,34
 617 1001 617 1001 693.5 938 c 128,-1,35
 770 875 770 875 842 737 c 1,36,37
 910 875 910 875 989 940.5 c 128,-1,38
 1068 1006 1068 1006 1165 1006 c 0,39,40
 1299 1006 1299 1006 1393 893.5 c 128,-1,41
 1487 781 1487 781 1487 614 c 0,42,43
 1487 439 1487 439 1403.5 332 c 128,-1,44
 1320 225 1320 225 1186 225 c 0,45,46
 1092 225 1092 225 1017.5 284.5 c 128,-1,47
 943 344 943 344 864 483 c 1,24,25
EndSplineSet
EndChar
StartChar: integral
Encoding: 8747 8747 156
Width: 1067
Flags: W
Fore
311 -262 m 0,0,1
 417 -262 417 -262 431 426 c 0,2,3
 433 534 433 534 434 591 c 0,4,5
 446 1106 446 1106 541 1328 c 128,-1,6
 636 1550 636 1550 838 1550 c 0,7,8
 918 1550 918 1550 968 1508 c 128,-1,9
 1018 1466 1018 1466 1018 1401 c 0,10,11
 1018 1347 1018 1347 986 1315.5 c 128,-1,12
 954 1284 954 1284 899 1284 c 0,13,14
 857 1284 857 1284 829 1303 c 128,-1,15
 801 1322 801 1322 789 1357 c 0,16,17
 783 1372 783 1372 778.5 1408 c 128,-1,18
 774 1444 774 1444 758 1444 c 0,19,20
 651 1444 651 1444 637 825 c 0,21,22
 633 632 633 632 629 522 c 0,23,24
 612 43 612 43 517.5 -164 c 128,-1,25
 423 -371 423 -371 227 -371 c 0,26,27
 148 -371 148 -371 97.5 -329.5 c 128,-1,28
 47 -288 47 -288 47 -223 c 0,29,30
 47 -167 47 -167 81 -135.5 c 128,-1,31
 115 -104 115 -104 176 -104 c 0,32,33
 209 -104 209 -104 233 -118.5 c 128,-1,34
 257 -133 257 -133 272 -161 c 0,35,36
 282 -179 282 -179 287 -220.5 c 128,-1,37
 292 -262 292 -262 311 -262 c 0,0,1
EndSplineSet
EndChar
StartChar: approxequal
Encoding: 8776 8776 167
Width: 1716
Flags: W
Fore
1499 623 m 1,0,-1
 1499 444 l 1,1,2
 1394 366 1394 366 1304.5 331.5 c 128,-1,3
 1215 297 1215 297 1118 297 c 0,4,5
 1008 297 1008 297 862 356 c 0,6,7
 852 360 852 360 845 363 c 0,8,9
 839 365 839 365 824 371 c 0,10,11
 669 432 669 432 575 432 c 0,12,13
 487 432 487 432 401 394 c 128,-1,14
 315 356 315 356 217 272 c 1,15,-1
 217 451 l 1,16,17
 322 529 322 529 411.5 563.5 c 128,-1,18
 501 598 501 598 598 598 c 0,19,20
 708 598 708 598 855 539 c 0,21,22
 866 534 866 534 871 532 c 0,23,24
 877 530 877 530 892 524 c 0,25,26
 1047 463 1047 463 1141 463 c 0,27,28
 1227 463 1227 463 1311.5 500.5 c 128,-1,29
 1396 538 1396 538 1499 623 c 1,0,-1
1499 1012 m 1,30,-1
 1499 834 l 1,31,32
 1394 755 1394 755 1304.5 720.5 c 128,-1,33
 1215 686 1215 686 1118 686 c 0,34,35
 1008 686 1008 686 862 745 c 0,36,37
 852 749 852 749 845 752 c 0,38,39
 839 754 839 754 824 760 c 0,40,41
 669 821 669 821 575 821 c 0,42,43
 487 821 487 821 401 783 c 128,-1,44
 315 745 315 745 217 662 c 1,45,-1
 217 840 l 1,46,47
 322 918 322 918 411.5 952.5 c 128,-1,48
 501 987 501 987 598 987 c 0,49,50
 708 987 708 987 855 928 c 0,51,52
 865 924 865 924 870 922 c 0,53,54
 877 919 877 919 892 913 c 0,55,56
 1047 852 1047 852 1141 852 c 0,57,58
 1227 852 1227 852 1311.5 889.5 c 128,-1,59
 1396 927 1396 927 1499 1012 c 1,30,-1
EndSplineSet
EndChar
StartChar: notequal
Encoding: 8800 8800 143
Width: 1716
Flags: W
Fore
217 930 m 1,0,-1
 989 930 l 1,1,-1
 1245 1245 l 1,2,-1
 1370 1143 l 1,3,-1
 1196 930 l 1,4,-1
 1499 930 l 1,5,-1
 1499 762 l 1,6,-1
 1059 762 l 1,7,-1
 864 522 l 1,8,-1
 1499 522 l 1,9,-1
 1499 352 l 1,10,-1
 725 352 l 1,11,-1
 467 39 l 1,12,-1
 342 141 l 1,13,-1
 516 352 l 1,14,-1
 217 352 l 1,15,-1
 217 522 l 1,16,-1
 655 522 l 1,17,-1
 850 762 l 1,18,-1
 217 762 l 1,19,-1
 217 930 l 1,0,-1
EndSplineSet
Ligature: 0 1 'liga' equal uni0338
EndChar
StartChar: lessequal
Encoding: 8804 8804 148
Width: 1716
Flags: W
Fore
1499 1016 m 1,0,-1
 539 739 l 1,1,-1
 1499 465 l 1,2,-1
 1499 287 l 1,3,-1
 217 655 l 1,4,-1
 217 825 l 1,5,-1
 1499 1192 l 1,6,-1
 1499 1016 l 1,0,-1
217 170 m 1,7,-1
 1499 170 l 1,8,-1
 1499 0 l 1,9,-1
 217 0 l 1,10,-1
 217 170 l 1,7,-1
EndSplineSet
EndChar
StartChar: greaterequal
Encoding: 8805 8805 149
Width: 1716
Flags: W
Fore
217 1016 m 1,0,-1
 217 1192 l 1,1,-1
 1499 825 l 1,2,-1
 1499 655 l 1,3,-1
 217 287 l 1,4,-1
 217 465 l 1,5,-1
 1178 739 l 1,6,-1
 217 1016 l 1,0,-1
1499 170 m 1,7,-1
 1499 0 l 1,8,-1
 217 0 l 1,9,-1
 217 170 l 1,10,-1
 1499 170 l 1,7,-1
EndSplineSet
EndChar
StartChar: uni2423
Encoding: 9251 9251 150
Width: 1300
Flags: HMW
HStem: -466 170<254.705 926.705>
Fore
254.705 -296 m 1,1,-1
 926.705 -296 l 1,4,-1
 1024.68 208 l 1,3,-1
 1192.68 208 l 1,2,-1
 1061.66 -466 l 1,1,-1
 53.6611 -466 l 1,0,-1
 184.673 208 l 1,3,-1
 352.673 208 l 1,2,-1
 254.705 -296 l 1,1,-1
EndSplineSet
EndChar
StartChar: lozenge
Encoding: 9674 9674 185
Width: 1012
Flags: W
Fore
506 1409 m 1,0,-1
 121 592 l 1,1,-1
 506 -233 l 1,2,-1
 891 592 l 1,3,-1
 506 1409 l 1,0,-1
506 1653 m 1,4,-1
 1006 592 l 1,5,-1
 506 -477 l 1,6,-1
 6 592 l 1,7,-1
 506 1653 l 1,4,-1
EndSplineSet
EndChar
StartChar: fi
Encoding: 64257 64257 192
Width: 1323
Flags: W
Fore
1042 1120 m 1,0,-1
 1229 1120 l 1,1,-1
 1010 0 l 1,2,-1
 825 0 l 1,3,-1
 1042 1120 l 1,0,-1
1128 1556 m 1,4,-1
 1313 1556 l 1,5,-1
 1268 1323 l 1,6,-1
 1083 1323 l 1,7,-1
 1128 1556 l 1,4,-1
979 1556 m 1,8,-1
 950 1403 l 1,9,-1
 774 1403 l 2,10,11
 674 1403 674 1403 628.5 1363.5 c 128,-1,12
 583 1324 583 1324 561 1219 c 1,13,-1
 541 1120 l 1,14,-1
 844 1120 l 1,15,-1
 817 977 l 1,16,-1
 514 977 l 1,17,-1
 324 0 l 1,18,-1
 139 0 l 1,19,-1
 330 977 l 1,20,-1
 154 977 l 1,21,-1
 180 1120 l 1,22,-1
 356 1120 l 1,23,-1
 371 1198 l 2,24,25
 409 1396 409 1396 504.5 1476 c 128,-1,26
 600 1556 600 1556 805 1556 c 2,27,-1
 979 1556 l 1,8,-1
EndSplineSet
Ligature: 0 0 'liga' f i
EndChar
StartChar: fl
Encoding: 64258 64258 193
Width: 1323
Flags: W
Fore
805 1556 m 2,0,-1
 1313 1556 l 1,1,-1
 1010 0 l 1,2,-1
 825 0 l 1,3,-1
 1104 1403 l 1,4,-1
 774 1403 l 2,5,6
 674 1403 674 1403 628.5 1363.5 c 128,-1,7
 583 1324 583 1324 561 1219 c 1,8,-1
 541 1120 l 1,9,-1
 844 1120 l 1,10,-1
 817 977 l 1,11,-1
 514 977 l 1,12,-1
 324 0 l 1,13,-1
 139 0 l 1,14,-1
 330 977 l 1,15,-1
 154 977 l 1,16,-1
 180 1120 l 1,17,-1
 356 1120 l 1,18,-1
 371 1198 l 2,19,20
 409 1397 409 1397 504 1476.5 c 128,-1,21
 599 1556 599 1556 805 1556 c 2,0,-1
EndSplineSet
Ligature: 0 0 'liga' f l
EndChar
StartChar: dlLtcaron
Encoding: 65537 -1 194
Width: 1024
Flags: HW
Fore
645 1638 m 1,0,-1
 844 1638 l 1,1,-1
 670 1262 l 1,2,-1
 516 1262 l 1,3,-1
 645 1638 l 1,0,-1
EndSplineSet
EndChar
StartChar: Dieresis
Encoding: 65538 -1 259
Width: 1024
Flags: W
Fore
406 1497 m 1,0,-1
 610 1497 l 1,1,-1
 569 1294 l 1,2,-1
 367 1294 l 1,3,-1
 406 1497 l 1,0,-1
797 1497 m 1,4,-1
 999 1497 l 1,5,-1
 961 1294 l 1,6,-1
 758 1294 l 1,7,-1
 797 1497 l 1,4,-1
EndSplineSet
EndChar
StartChar: Acute
Encoding: 65539 -1 260
Width: 1024
Flags: W
Fore
774 1526 m 1,0,-1
 981 1526 l 1,1,-1
 674 1262 l 1,2,-1
 516 1262 l 1,3,-1
 774 1526 l 1,0,-1
EndSplineSet
EndChar
StartChar: Tilde
Encoding: 65540 -1 261
Width: 1024
Flags: W
Fore
680 1337 m 2,0,-1
 645 1362 l 1,1,-1
 644 1363 l 2,2,3
 601 1395 601 1395 563 1395 c 0,4,5
 529 1395 529 1395 502 1369.5 c 128,-1,6
 475 1344 475 1344 457 1294 c 1,7,-1
 332 1294 l 1,8,9
 367 1403 367 1403 428.5 1458 c 128,-1,10
 490 1513 490 1513 575 1513 c 0,11,12
 610 1513 610 1513 640.5 1502 c 128,-1,13
 671 1491 671 1491 707 1466 c 1,14,-1
 739 1440 l 2,15,16
 757 1426 757 1426 776 1419.5 c 128,-1,17
 795 1413 795 1413 815 1413 c 0,18,19
 854 1413 854 1413 882.5 1440 c 128,-1,20
 911 1467 911 1467 922 1513 c 1,21,-1
 1047 1513 l 1,22,23
 1014 1404 1014 1404 951.5 1349 c 128,-1,24
 889 1294 889 1294 797 1294 c 0,25,26
 766 1294 766 1294 738.5 1304.5 c 128,-1,27
 711 1315 711 1315 680 1337 c 2,0,-1
EndSplineSet
EndChar
StartChar: Grave
Encoding: 65541 -1 262
Width: 1024
Flags: W
Fore
647 1526 m 1,0,-1
 795 1262 l 1,1,-1
 655 1262 l 1,2,-1
 465 1526 l 1,3,-1
 647 1526 l 1,0,-1
EndSplineSet
EndChar
StartChar: Circumflex
Encoding: 65542 -1 263
Width: 1024
Flags: W
Fore
600 1528 m 1,0,-1
 815 1528 l 1,1,-1
 973 1262 l 1,2,-1
 838 1262 l 1,3,-1
 698 1440 l 1,4,-1
 489 1262 l 1,5,-1
 338 1262 l 1,6,-1
 600 1528 l 1,0,-1
EndSplineSet
KernsSLIF: 536 38 0 0 348 38 0 0 346 38 0 0 350 38 0 0 352 38 0 0 8217 -45 0 0 8221 -45 0 0 83 38 0 0
EndChar
StartChar: Caron
Encoding: 65543 -1 264
Width: 1024
Flags: W
Fore
772 1262 m 1,0,-1
 559 1262 l 1,1,-1
 401 1528 l 1,2,-1
 535 1528 l 1,3,-1
 674 1350 l 1,4,-1
 883 1528 l 1,5,-1
 1034 1528 l 1,6,-1
 772 1262 l 1,0,-1
EndSplineSet
EndChar
StartChar: foursuperior
Encoding: 65544 -1 265
Width: 821
Flags: W
Fore
602 1378 m 1,0,-1
 209 963 l 1,1,-1
 520 963 l 1,2,-1
 602 1378 l 1,0,-1
602 1503 m 1,3,-1
 768 1503 l 1,4,-1
 662 963 l 1,5,-1
 799 963 l 1,6,-1
 778 854 l 1,7,-1
 641 854 l 1,8,-1
 604 668 l 1,9,-1
 463 668 l 1,10,-1
 500 854 l 1,11,-1
 84 854 l 1,12,-1
 109 985 l 1,13,-1
 602 1503 l 1,3,-1
EndSplineSet
EndChar
StartChar: Breve
Encoding: 65545 -1 266
Width: 1024
Flags: W
Fore
389 1528 m 1,0,-1
 508 1528 l 1,1,2
 520 1467 520 1467 559 1440 c 128,-1,3
 598 1413 598 1413 674 1413 c 0,4,5
 760 1413 760 1413 814 1440.5 c 128,-1,6
 868 1468 868 1468 897 1528 c 1,7,-1
 1016 1528 l 1,8,9
 982 1415 982 1415 890 1350.5 c 128,-1,10
 798 1286 798 1286 670 1286 c 0,11,12
 549 1286 549 1286 479 1346.5 c 128,-1,13
 409 1407 409 1407 389 1528 c 1,0,-1
EndSplineSet
EndChar
StartChar: Dotaccent
Encoding: 65546 -1 267
Width: 1024
Flags: W
Fore
602 1499 m 1,0,-1
 805 1499 l 1,1,-1
 766 1294 l 1,2,-1
 561 1294 l 1,3,-1
 602 1499 l 1,0,-1
EndSplineSet
EndChar
StartChar: Hungarumlaut
Encoding: 65547 -1 268
Width: 1024
Flags: HW
Fore
1037 1526 m 1,0,-1
 1244 1526 l 1,1,-1
 937 1262 l 1,2,-1
 779 1262 l 1,3,-1
 1037 1526 l 1,0,-1
721 1526 m 1,0,-1
 928 1526 l 1,1,-1
 621 1262 l 1,2,-1
 463 1262 l 1,3,-1
 721 1526 l 1,0,-1
EndSplineSet
EndChar
StartChar: Doublegrave
Encoding: 65548 -1 269
Width: 1024
Flags: HW
Fore
787 1526 m 1,0,-1
 935 1262 l 1,1,-1
 795 1262 l 1,2,-1
 605 1526 l 1,3,-1
 787 1526 l 1,0,-1
507 1526 m 1,0,-1
 655 1262 l 1,1,-1
 515 1262 l 1,2,-1
 325 1526 l 1,3,-1
 507 1526 l 1,0,-1
EndSplineSet
EndChar
